<?xml version="1.0" encoding="utf-8"?>
<!-- Generator: Adobe Illustrator 26.4.1, SVG Export Plug-In . SVG Version: 6.00 Build 0)  -->
<svg version="1.1" id="Слой_1" xmlns="http://www.w3.org/2000/svg" xmlns:xlink="http://www.w3.org/1999/xlink" x="0px" y="0px"
	 viewBox="0 0 1254 523" style="enable-background:new 0 0 1254 523;" xml:space="preserve">
<style type="text/css">
	.st0{fill:#D8F3FE;}
	.st1{fill:url(#SVGID_1_);}
	.st2{fill:#FFFFFF;}
</style>
<g>
	<circle class="st0" cx="714.6" cy="374.6" r="25"/>
	
		<linearGradient id="SVGID_1_" gradientUnits="userSpaceOnUse" x1="734.6435" y1="630.5565" x2="694.6435" y2="670.5565" gradientTransform="matrix(1 0 0 1 0 -276)">
		<stop  offset="0" style="stop-color:#48F2FA"/>
		<stop  offset="1" style="stop-color:#604AF4"/>
	</linearGradient>
	<circle class="st1" cx="714.6" cy="374.6" r="20"/>
	<g>
		<path class="st2" d="M731.5,372.9c-0.3,0.4-0.7,0.3-1.1,0.2c-0.4-0.1-0.7-0.3-1-0.6h-0.1c0.1,0.1,0.2,0.3,0.3,0.4
			c0.2,0.3,0.5,0.5,0.7,0.8c0.1,0.1,0.1,0.1,0,0.2c-0.2,0.1-0.4,0-0.5,0c-0.4-0.1-0.7-0.4-0.9-0.6c-0.3-0.3-0.6-0.4-1-0.3
			c-0.3,0.1-0.6,0.2-0.9,0.4c-0.4,0.3-0.8,0.6-1.1,1.1c-0.1,0.1-0.2,0.3-0.2,0.5c-0.1,0.3-0.2,0.6-0.3,1c0,0.2,0,0.3,0.2,0.4
			c0.5,0.3,0.9,0.6,1.4,1c0.1,0.1,0.3,0.1,0.4,0.2c0.3,0.1,0.5,0.3,0.7,0.5c0.5,0.3,0.9,0.6,1.3,0.9c0.3,0.2,0.6,0.3,1,0.4
			c0.1,0,0.1,0,0.2,0.1c0.2,0.1,0.2,0.2,0.1,0.4c-0.3,0.4-0.6,0.6-1,0.5c-0.3-0.1-0.5-0.3-0.7-0.5c-0.3-0.3-0.7-0.5-1.2-0.7
			c-0.4-0.2-0.9-0.4-1.3-0.5c-0.2-0.1-0.5-0.1-0.7-0.2c-0.4-0.1-0.9-0.3-1.3-0.4c-0.3-0.1-0.7-0.3-0.8-0.7c-0.1-0.1-0.1-0.3-0.1-0.5
			c0-0.3-0.3-0.6-0.6-0.7c-0.2,0-0.4,0-0.7,0c0,0.2,0.1,0.4,0.1,0.6c0.1,0.4,0.2,0.8,0.4,1.2c0.1,0.3,0.1,0.6,0.1,0.9
			c-0.1,0.3-0.3,0.5-0.6,0.6c-0.4,0-0.9,0.1-1.3,0.3c-0.1,0.1-0.3,0.1-0.4,0.1c-0.3,0-0.5,0-0.8-0.1c-0.1,0-0.1,0-0.1-0.1
			c0-0.4,0.3-0.7,0.7-0.7c0.2,0,0.3,0,0.5,0c0.1,0,0.3,0,0.4-0.1c0.2-0.1,0.3-0.3,0.2-0.5s-0.3-0.5-0.4-0.7c-0.2-0.3-0.4-0.6-0.4-1
			c0-0.1,0-0.2,0-0.3c0,0-0.1,0-0.2,0c-0.5-0.1-1-0.1-1.5-0.2s-0.9-0.1-1.4-0.3c-0.4-0.1-0.7-0.3-1.1-0.4c-0.2-0.1-0.4-0.2-0.6-0.2
			c-0.2,0-0.4,0-0.5,0.3c-0.3,0.8-0.9,1.3-1.5,1.7c-0.4,0.3-0.8,0.4-1.3,0.5c-0.2,0-0.4,0.1-0.6,0.1c-0.3,0.1-0.5,0.1-0.7,0.3
			c-0.3,0.2-0.3,0.6-0.2,0.9c0.1,0.2,0.2,0.4,0.4,0.6c0.1,0.2,0.2,0.3,0.3,0.5c0,0.1,0.1,0.1,0.2,0.1c0.3,0,0.5,0,0.7,0.1
			c0.1,0,0.2,0.1,0.2,0.2l0,0c-0.3,0-0.5,0.1-0.8,0.1s-0.5,0-0.8,0s-0.5-0.1-0.6-0.3c-0.4-0.5-0.8-1-1-1.7c-0.1-0.3-0.1-0.5-0.2-0.8
			c0-0.2,0-0.2,0.2-0.3c0.5-0.3,0.9-0.6,1.4-1c0,0,0-0.1,0.1-0.1c-0.3,0.1-0.6,0.2-0.8,0.3c-0.4,0.1-0.7,0.1-1.1,0.2
			c-0.2,0-0.4,0-0.6,0c-0.5,0-1,0.2-1.4,0.5c-0.7,0.5-1.2,1.1-1.6,1.8c-0.1,0.2-0.1,0.3-0.2,0.5c-0.1,0.2-0.2,0.2-0.4,0.2H705
			c-0.2,0.1-0.3,0-0.3-0.1l0,0c-0.2-0.1-0.1-0.3-0.1-0.5c0.2-0.5,0.5-1,0.9-1.4c0.3-0.4,0.7-0.9,1-1.3c0.1-0.1,0.3-0.2,0.4-0.3
			c0.4-0.1,0.7-0.3,1-0.5c0.4-0.3,0.7-0.5,1.1-0.7l0,0c0-0.1-0.1-0.2-0.1-0.2c-0.2,0.1-0.4,0.1-0.6,0.2c-0.4,0.1-0.8,0.3-1.1,0.4
			c-0.5,0.2-1.1,0.4-1.6,0.5c-0.6,0.2-1.1,0.3-1.7,0.5c-0.4,0.1-0.8,0.2-1.2,0.3c-0.5,0.1-0.9,0.2-1.4,0.2c-0.4,0-0.8,0.1-1.2,0.1
			s-0.8-0.1-1.1-0.2c-0.2-0.1-0.2-0.1-0.1-0.3c0.2-0.7,0.7-1.2,1.2-1.7s1.1-0.8,1.7-1.2c0.6-0.3,1.2-0.6,1.7-0.9
			c0.4-0.2,0.9-0.4,1.3-0.6c0.5-0.2,1-0.4,1.5-0.6c0.2-0.1,0.3-0.2,0.5-0.3c0.3-0.2,0.6-0.3,0.9-0.4c0.4,0,0.8,0,1.2-0.1
			c0.2,0,0.5-0.1,0.7-0.1c0.4-0.1,0.8-0.2,1.1-0.2c0.5-0.1,1-0.1,1.4-0.2c1.1-0.1,2.3-0.1,3.4-0.1c0.7,0,1.3,0.1,2,0.2
			c0.5,0.1,1,0.2,1.5,0.2s1,0,1.5-0.2c0.6-0.1,1.3-0.3,1.9-0.5c0.5-0.2,1.1-0.4,1.6-0.5c0.6-0.2,1.2-0.4,1.8-0.6
			c0.3-0.1,0.5-0.1,0.8-0.2c0-0.2,0-0.4,0-0.6s0.1-0.4,0.3-0.5c0.1,0,0.1,0,0.2,0c0.1,0,0.2,0.1,0.3,0.1c0.1-0.1,0.2-0.1,0.2-0.2
			c0.2-0.2,0.5-0.2,0.6,0.1c0.1,0.2,0.2,0.5,0.3,0.7c0,0.2,0,0.3,0.1,0.5c0,0.1,0.1,0.2,0.2,0.3c0.3,0.4,0.6,0.8,0.8,1.3
			c0.1,0.2,0.1,0.3,0.1,0.5c0.1,0.3,0.2,0.5,0.4,0.7c0.3,0.4,0.6,0.7,1,0.9C731.5,372.8,731.5,372.9,731.5,372.9z"/>
	</g>
</g>
</svg>
