<svg width="50" height="50" viewBox="0 0 50 50" fill="none" xmlns="http://www.w3.org/2000/svg">
<circle cx="25" cy="25" r="25" fill="#4DCDF8"/>
<path d="M24.7664 18.5507L24.5354 18.455L23.2604 17.6031L23.0836 17.4263L23.0835 17.4264L16.0525 24.4575C16.0524 24.4575 16.0524 24.4575 16.0524 24.4576C15.9565 24.5533 15.8805 24.667 15.8286 24.7922C15.7767 24.9173 15.75 25.0515 15.75 25.1871C15.75 25.3226 15.7767 25.4568 15.8286 25.582C15.8805 25.7071 15.9565 25.8208 16.0524 25.9166C16.0524 25.9166 16.0524 25.9166 16.0525 25.9167L23.0836 32.9478L23.2604 32.771L23.0836 32.9478C23.2771 33.1413 23.5395 33.25 23.8131 33.25C24.0867 33.25 24.3491 33.1413 24.5426 32.9478C24.7361 32.7543 24.8448 32.4919 24.8448 32.2183C24.8448 31.9447 24.7361 31.6823 24.5426 31.4888L24.5426 31.4888L19.2712 26.2183L33.9694 26.2183C34.2429 26.2183 34.5052 26.1097 34.6986 25.9163C34.892 25.7229 35.0006 25.4606 35.0006 25.1871C35.0006 24.9136 34.892 24.6513 34.6986 24.4579C34.5052 24.2645 34.2429 24.1558 33.9694 24.1558L19.2712 24.1558L24.5425 18.8854C24.5426 18.8854 24.5426 18.8854 24.5426 18.8853C24.6385 18.7896 24.7145 18.6759 24.7664 18.5507ZM24.5426 17.4263C24.5426 17.4263 24.5426 17.4262 24.5425 17.4262L24.3658 17.6031L24.5427 17.4264C24.5427 17.4264 24.5427 17.4263 24.5426 17.4263Z" fill="white" stroke="white" stroke-width="0.5"/>
</svg>
