<?xml version="1.0" encoding="utf-8"?>
<!-- Generator: Adobe Illustrator 26.4.1, SVG Export Plug-In . SVG Version: 6.00 Build 0)  -->
<svg version="1.1" id="Слой_1" xmlns="http://www.w3.org/2000/svg" xmlns:xlink="http://www.w3.org/1999/xlink" x="0px" y="0px"
	 viewBox="0 0 1254 523" style="enable-background:new 0 0 1254 523;" xml:space="preserve">
<style type="text/css">
	.st0{fill:#D8F3FE;}
	.st1{fill:url(#SVGID_1_);}
	.st2{fill:#FFFFFF;}
	.st3{fill:url(#SVGID_00000140000445394033136010000000163017546181978029_);}
</style>
<g>
	<circle class="st0" cx="630.6" cy="431.6" r="25"/>
	
		<linearGradient id="SVGID_1_" gradientUnits="userSpaceOnUse" x1="650.6435" y1="687.5565" x2="610.6435" y2="727.5565" gradientTransform="matrix(1 0 0 1 0 -276)">
		<stop  offset="0" style="stop-color:#48F2FA"/>
		<stop  offset="1" style="stop-color:#604AF4"/>
	</linearGradient>
	<circle class="st1" cx="630.6" cy="431.6" r="20"/>
	<path class="st2" d="M635.6,424.7l1.6-0.1h0.2h1.1l0.5,0.1l1.2,0.4l1.4,0.8l0.6,0.5l0.4,0.7l0.3,0.8l0.2,0.8v1l-0.1,1l-0.2,0.9
		l-0.1,1v1l0.1,0.9l0.5,0.6l0.3,0.3l0.2,0.4v0.4l-0.2,0.4l-1.1,1.3l-0.4,0.4l-0.4,0.1l-1,0.1l-0.6,0.1l-0.2-0.1l-0.1-0.1l0.2-0.4
		l0.3-0.2l0.4-0.1h0.3l0.2-0.1v-0.5h-0.3l-0.3,0.1l-0.6,0.2l-0.5,0.3l-0.5-0.1h-0.1h-0.1v-0.3l0.2-0.3l0.5-0.4v-0.7l-0.1-0.3
		l-0.2-0.2l-1.2-0.8l-1.4-0.8l-0.8-0.6l-0.3-0.1h-0.3l-0.5,0.2l-0.1,0.2v0.3l-0.2,1.2l-0.1,0.3v0.3l0.2,0.1l0.2,0.2l0.1,0.6v1.3v0.5
		l-0.2,0.2l-0.4,0.2l-0.6,0.1l-0.6-0.1v-0.3l0.1-0.2l0.2-0.4l-0.1-0.3l-0.1-0.2l-0.5-0.3l-0.5-0.4l-0.2-0.3l-0.2-0.4l-0.2-0.8
		l-0.5-0.9l-0.5-0.7l-0.7-0.5l-0.5-0.2l-0.4,0.1l-0.2,0.3l-0.2,0.5l-0.3,0.9l-0.2,1v0.9l-0.2,0.4l-0.4,0.4l-0.7,0.5l-0.4,0.4v0.4
		h-1.6l-1.6-0.1l-0.4-0.1l-0.3-0.2l0.3-0.3l0.4-0.2h0.6l0.5-0.1l0.6-0.5l0.1-0.6l0.1-1l0.1-1.7v-0.7l-0.2-0.7l-0.1-0.2l-0.2-0.1
		h-0.5l-0.4,0.2l-0.8,0.3l-1.4,0.3l-1.4,0.2l-0.8,0.3l-0.5,0.1l-0.5-0.1l-0.4-0.2l-0.3-0.2v-0.2l0.2-0.3l1-1.3l0.1-0.4l0.6-0.7
		l0.7-0.6l0.9-0.5l2.2-1.4l2.8-1.6l0.6-0.3l0.4-0.1l1,0.3l0.7,0.1h0.9l1.7-0.2l2.8-0.6L635.6,424.7z"/>
	<circle class="st0" cx="630.6" cy="431.6" r="25"/>
	
		<linearGradient id="SVGID_00000016068726820955234080000017815530173688593571_" gradientUnits="userSpaceOnUse" x1="650.6435" y1="687.5565" x2="610.6435" y2="727.5565" gradientTransform="matrix(1 0 0 1 0 -276)">
		<stop  offset="0" style="stop-color:#48F2FA"/>
		<stop  offset="1" style="stop-color:#604AF4"/>
	</linearGradient>
	<circle style="fill:url(#SVGID_00000016068726820955234080000017815530173688593571_);" cx="630.6" cy="431.6" r="20"/>
	<path class="st2" d="M635.6,424.7l1.6-0.1h0.2h1.1l0.5,0.1l1.2,0.4l1.4,0.8l0.6,0.5l0.4,0.7l0.3,0.8l0.2,0.8v1l-0.1,1l-0.2,0.9
		l-0.1,1v1l0.1,0.9l0.5,0.6l0.3,0.3l0.2,0.4v0.4l-0.2,0.4l-1.1,1.3l-0.4,0.4l-0.4,0.1l-1,0.1l-0.6,0.1l-0.2-0.1l-0.1-0.1l0.2-0.4
		l0.3-0.2l0.4-0.1h0.3l0.2-0.1v-0.5h-0.3l-0.3,0.1l-0.6,0.2l-0.5,0.3l-0.5-0.1h-0.1h-0.1v-0.3l0.2-0.3l0.5-0.4v-0.7l-0.1-0.3
		l-0.2-0.2l-1.2-0.8l-1.4-0.8l-0.8-0.6l-0.3-0.1h-0.3l-0.5,0.2l-0.1,0.2v0.3l-0.2,1.2l-0.1,0.3v0.3l0.2,0.1l0.2,0.2l0.1,0.6v1.3v0.5
		l-0.2,0.2l-0.4,0.2l-0.6,0.1l-0.6-0.1v-0.3l0.1-0.2l0.2-0.4l-0.1-0.3l-0.1-0.2l-0.5-0.3l-0.5-0.4l-0.2-0.3l-0.2-0.4l-0.2-0.8
		l-0.5-0.9l-0.5-0.7l-0.7-0.5l-0.5-0.2l-0.4,0.1l-0.2,0.3l-0.2,0.5l-0.3,0.9l-0.2,1v0.9l-0.2,0.4l-0.4,0.4l-0.7,0.5l-0.4,0.4v0.4
		h-1.6l-1.6-0.1l-0.4-0.1l-0.3-0.2l0.3-0.3l0.4-0.2h0.6l0.5-0.1l0.6-0.5l0.1-0.6l0.1-1l0.1-1.7v-0.7l-0.2-0.7l-0.1-0.2l-0.2-0.1
		h-0.5l-0.4,0.2l-0.8,0.3l-1.4,0.3l-1.4,0.2l-0.8,0.3l-0.5,0.1l-0.5-0.1l-0.4-0.2l-0.3-0.2v-0.2l0.2-0.3l1-1.3l0.1-0.4l0.6-0.7
		l0.7-0.6l0.9-0.5l2.2-1.4l2.8-1.6l0.6-0.3l0.4-0.1l1,0.3l0.7,0.1h0.9l1.7-0.2l2.8-0.6L635.6,424.7z"/>
</g>
</svg>
