<?xml version="1.0" encoding="utf-8"?>
<!-- Generator: Adobe Illustrator 26.4.1, SVG Export Plug-In . SVG Version: 6.00 Build 0)  -->
<svg version="1.1" id="Слой_1" xmlns="http://www.w3.org/2000/svg" xmlns:xlink="http://www.w3.org/1999/xlink" x="0px" y="0px"
	 viewBox="0 0 50 50" style="enable-background:new 0 0 50 50;" xml:space="preserve">
<style type="text/css">
	.st0{fill:#D8F3FE;}
	.st1{fill:url(#SVGID_1_);}
	.st2{fill:#FFFFFF;}
	.st3{fill:url(#SVGID_00000163750915838623830020000018110577309979386518_);}
</style>
<g>
	<circle class="st0" cx="25" cy="25" r="25"/>
	
		<linearGradient id="SVGID_1_" gradientUnits="userSpaceOnUse" x1="45.0435" y1="-570.1565" x2="5.0435" y2="-610.1565" gradientTransform="matrix(1 0 0 -1 0 -565.2)">
		<stop  offset="0" style="stop-color:#48F2FA"/>
		<stop  offset="1" style="stop-color:#604AF4"/>
	</linearGradient>
	<circle class="st1" cx="25" cy="25" r="20"/>
	<path class="st2" d="M30,18.1l1.6-0.1h0.2h1.1l0.5,0.1l1.2,0.4l1.4,0.8l0.6,0.5l0.4,0.7l0.3,0.8l0.2,0.8v1l-0.1,1L37.2,25l-0.1,1v1
		l0.1,0.9l0.5,0.6l0.3,0.3l0.2,0.4v0.4L38,30l-1.1,1.3l-0.4,0.4l-0.4,0.1l-1,0.1L34.5,32l-0.2-0.1l-0.1-0.1l0.2-0.4l0.3-0.2l0.4-0.1
		h0.3l0.2-0.1v-0.5h-0.3L35,30.6l-0.6,0.2l-0.5,0.3L33.4,31h-0.1h-0.1v-0.3l0.2-0.3l0.5-0.4v-0.7L33.8,29l-0.2-0.2L32.4,28L31,27.2
		l-0.8-0.6l-0.3-0.1h-0.3l-0.5,0.2L29,26.9v0.3l-0.2,1.2l-0.1,0.3V29l0.2,0.1l0.2,0.2l0.1,0.6v1.3v0.5L29,31.9l-0.4,0.2L28,32.2
		l-0.6-0.1v-0.3l0.1-0.2l0.2-0.4l-0.1-0.3l-0.1-0.2L27,30.4L26.5,30l-0.2-0.3l-0.2-0.4l-0.2-0.8l-0.5-0.9l-0.5-0.7l-0.7-0.5
		l-0.5-0.2l-0.4,0.1l-0.2,0.3l-0.2,0.5L22.6,28l-0.2,1v0.9l-0.2,0.4l-0.4,0.4l-0.7,0.5l-0.4,0.4V32h-1.6l-1.6-0.1l-0.4-0.1l-0.3-0.2
		l0.3-0.3l0.4-0.2h0.6l0.5-0.1l0.6-0.5l0.1-0.6l0.1-1l0.1-1.7v-0.7l-0.2-0.7l-0.1-0.2L19,25.5h-0.5l-0.4,0.2L17.3,26l-1.4,0.3
		l-1.4,0.2l-0.8,0.3l-0.5,0.1l-0.5-0.1l-0.4-0.2L12,26.4v-0.2l0.2-0.3l1-1.3l0.1-0.4l0.6-0.7l0.7-0.6l0.9-0.5l2.2-1.4l2.8-1.6
		l0.6-0.3l0.4-0.1l1,0.3l0.7,0.1h0.9l1.7-0.2l2.8-0.6L30,18.1z"/>
	<circle class="st0" cx="25" cy="25" r="25"/>
	
		<linearGradient id="SVGID_00000078751390218547634840000010380865911719237523_" gradientUnits="userSpaceOnUse" x1="45.0435" y1="-570.1565" x2="5.0435" y2="-610.1565" gradientTransform="matrix(1 0 0 -1 0 -565.2)">
		<stop  offset="0" style="stop-color:#48F2FA"/>
		<stop  offset="1" style="stop-color:#604AF4"/>
	</linearGradient>
	<circle style="fill:url(#SVGID_00000078751390218547634840000010380865911719237523_);" cx="25" cy="25" r="20"/>
	<path class="st2" d="M30,18.1l1.6-0.1h0.2h1.1l0.5,0.1l1.2,0.4l1.4,0.8l0.6,0.5l0.4,0.7l0.3,0.8l0.2,0.8v1l-0.1,1L37.2,25l-0.1,1v1
		l0.1,0.9l0.5,0.6l0.3,0.3l0.2,0.4v0.4L38,30l-1.1,1.3l-0.4,0.4l-0.4,0.1l-1,0.1L34.5,32l-0.2-0.1l-0.1-0.1l0.2-0.4l0.3-0.2l0.4-0.1
		h0.3l0.2-0.1v-0.5h-0.3L35,30.6l-0.6,0.2l-0.5,0.3L33.4,31h-0.1h-0.1v-0.3l0.2-0.3l0.5-0.4v-0.7L33.8,29l-0.2-0.2L32.4,28L31,27.2
		l-0.8-0.6l-0.3-0.1h-0.3l-0.5,0.2L29,26.9v0.3l-0.2,1.2l-0.1,0.3V29l0.2,0.1l0.2,0.2l0.1,0.6v1.3v0.5L29,31.9l-0.4,0.2L28,32.2
		l-0.6-0.1v-0.3l0.1-0.2l0.2-0.4l-0.1-0.3l-0.1-0.2L27,30.4L26.5,30l-0.2-0.3l-0.2-0.4l-0.2-0.8l-0.5-0.9l-0.5-0.7l-0.7-0.5
		l-0.5-0.2l-0.4,0.1l-0.2,0.3l-0.2,0.5L22.6,28l-0.2,1v0.9l-0.2,0.4l-0.4,0.4l-0.7,0.5l-0.4,0.4V32h-1.6l-1.6-0.1l-0.4-0.1l-0.3-0.2
		l0.3-0.3l0.4-0.2h0.6l0.5-0.1l0.6-0.5l0.1-0.6l0.1-1l0.1-1.7v-0.7l-0.2-0.7l-0.1-0.2L19,25.5h-0.5l-0.4,0.2L17.3,26l-1.4,0.3
		l-1.4,0.2l-0.8,0.3l-0.5,0.1l-0.5-0.1l-0.4-0.2L12,26.4v-0.2l0.2-0.3l1-1.3l0.1-0.4l0.6-0.7l0.7-0.6l0.9-0.5l2.2-1.4l2.8-1.6
		l0.6-0.3l0.4-0.1l1,0.3l0.7,0.1h0.9l1.7-0.2l2.8-0.6L30,18.1z"/>
</g>
</svg>
