<?xml version="1.0" encoding="utf-8"?>
<!-- Generator: Adobe Illustrator 26.4.1, SVG Export Plug-In . SVG Version: 6.00 Build 0)  -->
<svg version="1.1" id="Слой_1" xmlns="http://www.w3.org/2000/svg" xmlns:xlink="http://www.w3.org/1999/xlink" x="0px" y="0px"
	 viewBox="0 0 50 50" style="enable-background:new 0 0 50 50;" xml:space="preserve">
<style type="text/css">
	.st0{fill:#D8F3FE;}
	.st1{fill:url(#SVGID_1_);}
	.st2{fill:#FFFFFF;}
</style>
<g>
	<circle class="st0" cx="25" cy="25" r="25"/>
	
		<linearGradient id="SVGID_1_" gradientUnits="userSpaceOnUse" x1="44.8" y1="-329.5" x2="4.8" y2="-369.5" gradientTransform="matrix(1 0 0 -1 0 -325)">
		<stop  offset="0" style="stop-color:#48F2FA"/>
		<stop  offset="1" style="stop-color:#604AF4"/>
	</linearGradient>
	<circle class="st1" cx="24.8" cy="24.5" r="20"/>
	<path class="st2" d="M20.7,27.8l0.1,0.9l0.1,0.4v1.4v0.9l0.1,0.3l0.3,0.2l0.6,0.1l0.6,0.1l0.1,0.1l0.1,0.2h-0.1l0.2,0.3h-0.1v0.1
		l-0.1,0.1L22,33h-0.7l-0.5-0.1l-0.5-0.1l-1-0.1h-0.2l-0.4-0.4l-0.3-1l-0.1-0.2l-0.2-0.4l-0.3-0.5L17.7,30l-0.1,0.1h-0.1l-0.1,0.2
		l-0.2,0.3L17,30.8l-0.1,0.3h0.6l0.4,0.1l0.4,0.3l0.1,0.4L18.3,32L18,32.1h-0.2l-0.4,0.1l-1.2-0.1L15.7,32l-0.4-0.2l-0.8-0.5
		l-0.3-0.4v-0.3l0.1-0.2l0.1-0.2l0.3-0.8l0.1-1l0.1-0.5l0.1-0.4v-0.2v-0.2l-0.3-1l-0.2-1v-0.7l-0.1-0.6v-0.7l0.1-0.6v-0.1v-0.1
		l0.2-0.7l0.3-0.8l0,0l0.1-0.2l0.5-0.6l0.4-0.4l0.5-0.5l0.3-0.2l0.3-0.2l1.2-0.8l0,0l0.7-0.3l0.7-0.2l0.8-0.2l0.8-0.1l0.9,0.1h0.5
		l0.4,0.1l0.4,0.1l0.3,0.1l0.1-0.1l0.4,0.2v-0.1l0.5,0.2h0.3l0.3,0.1l0.9,0.2l1,0.1l0.5,0.1h0.1H28l0.4,0.1h0.1l0.2,0.1l0.5,0.1
		l0.3,0.2l1.6,0.9l0.3,0.2l0.3,0.2l0.9,0.5l0.8,0.6l0.3,0.4l0.4,0.6l0.2,0.2l0.2,0.4h0.1l0.1-0.1l0.2-0.2h0.3l0.2,0.2l0.1,0.2
		l0.1,0.4l0.4-0.3l0.2-0.1l0.2,0.2v0.6L36.1,24l-0.2,0.2l-0.1,0.3l0.1,0.6v0.6l-0.1,0.5l-0.1,0.5l-0.1,0.5l-0.2,1v0.6v0.4l-0.2,0.1
		h-0.4l-0.4-0.1h-0.1l-0.2,0.1h-0.2l-0.2-0.2l-0.4-0.6l-0.1-0.4L33,27.8l-0.4-0.1l-0.4-0.1l-0.4-0.7l-0.2-0.3h-0.2l-0.5-0.3
		l-0.4-0.2l-0.1,0.1v0.2l0.1,0.5h-0.1v0.2l0.2,0.3l0.3,0.3l0.7,0.4l0.3,0.2l0.2,0.2l0.8,0.6l0.7,0.7l0.1,0.3l0.1,0.3h-0.2l0.1,0.5
		v0.2L33.5,31l-0.7-0.5v0.4l-0.4-0.3l-0.1,0.3l-0.1-0.1L32,30.7l-0.2-0.1l-0.1-0.2l-0.1-0.2l-0.2-0.1L31.2,30l-0.1-0.1l0,0l-0.6-0.3
		l-0.3-0.2l-0.4-0.1l-0.4,0.1l-0.2-0.1L29,29.2L28.7,29l-0.1-0.4v0.5L28.5,29h-0.1l0,0l-0.1,0.1l-0.5-0.2l-0.3-0.2v-0.2l-0.1,0.2
		l-0.3-0.2l-0.2-0.1l-0.2-0.1l-0.1-0.1v-0.1l-0.2,0.3l-0.2,0.3l-0.1,0.1V29L26,29.2l-0.2,0.5l0,0l-0.1,0.1l-0.2,0.5h-0.1l-0.1,0.3
		v0.1v-0.1v-0.1v0.1v0.7l0.1,0.3l0.2,0.2H26l0.3,0.1l0.4,0.2l0.1,0.1l-0.3-0.1l0.5,0.4l0.1,0.1L27,32.7h-0.2l-0.2,0.2l-0.3,0.2h-0.8
		L24.7,33l-0.5-0.2v-0.2l0,0l0,0l-0.1-0.1L24,32.3l-0.1-0.1L23.8,32l-0.1-0.2l-0.1-0.2l-0.3-0.4l-0.1-0.3l0.1-0.2l-0.1-0.1L23,29.7
		l-0.1-0.3l-0.1-0.2l0.1-0.2v-0.6l0.2-1l0.1-0.5L22.9,27l-0.3,0.1l-0.3,0.1H22h-0.7L21,27.3h-0.4v0.3L20.7,27.8z"/>
</g>
</svg>
