<?xml version="1.0" encoding="utf-8"?>
<!-- Generator: Adobe Illustrator 26.4.1, SVG Export Plug-In . SVG Version: 6.00 Build 0)  -->
<svg version="1.1" id="Слой_1" xmlns="http://www.w3.org/2000/svg" xmlns:xlink="http://www.w3.org/1999/xlink" x="0px" y="0px"
	 viewBox="0 0 1254 523" style="enable-background:new 0 0 1254 523;" xml:space="preserve">
<style type="text/css">
	.st0{fill:#D8F3FE;}
	.st1{fill:url(#SVGID_1_);}
	.st2{fill:#FFFFFF;}
</style>
<g>
	<circle class="st0" cx="571.8" cy="229.5" r="25"/>
	
		<linearGradient id="SVGID_1_" gradientUnits="userSpaceOnUse" x1="591.7855" y1="485.5145" x2="551.7855" y2="525.5145" gradientTransform="matrix(1 0 0 1 0 -276)">
		<stop  offset="0" style="stop-color:#48F2FA"/>
		<stop  offset="1" style="stop-color:#604AF4"/>
	</linearGradient>
	<path class="st1" d="M591.8,229.5c0,11-9,20-20,20s-20-9-20-20s9-20,20-20C582.9,209.5,591.8,218.5,591.8,229.5z"/>
	<path class="st2" d="M560.9,223.9l0.1-0.1l0.2,0.1l0.1,0.1l0.1,0.1l0.2-0.1h0.2v-0.3h0.4l0.1-0.1h0.2v0.3l-0.1,0.2v0.2l0.3,0.3
		v-0.3l0.1-0.1h0.1l0.1,0.2l0.1,0.3l0.3-0.1l0.1-0.1h0.1v0.2l-0.2,0.2l-0.2,0.2l-0.1,0.3l0.3,0.5l0.2,0.1l0.3-0.1l0.3-0.3l0.2-0.3
		l0.1-0.8l-0.2-0.8L564,223l-0.4-0.6l-0.4-0.5l-0.9-0.6l-0.7-0.3l-0.4-0.2l-0.1-0.4l0.1-0.2h0.2l0.4,0.1v-0.4l-0.1-0.3l-0.1-0.3
		v-0.2l0.1-0.1l0.1,0.1l0.2,0.3l0.2,0.7l0.3-0.1l0.2-0.2l0.3-0.5l0.5-1h0.3l-0.1,0.3l-0.4,0.8l-0.1,0.5v0.4h0.2l0.1,0.2l0.8-0.4
		l0.7-0.2h0.7v-0.1l0.2-0.1h0.2l0.6,0.1l-0.1-0.3v-0.1l0.1-0.1h0.1l0.1,0.1l0.2,0.2l0.1,0.2l0.3,0.1v-0.5v-0.3l0.1-0.1l0.2,0.1
		l0.2,0.3l0.1,0.7h0.1l0,0h0.2l0.1,0.4l0.7-0.8l0.1-0.2l0.2-0.1l0.1,0.1v0.2l-0.1,0.5l-0.2,0.4l-0.1,0.3l0.1,0.4l1.1-0.1l0.6,0.1
		l0.2,0.2v0.2l-0.3,0.1h-0.3l-0.9,0.2l0.2,1.5l-0.1,0.9l-0.3,0.8l-0.5,0.7l-0.7,0.5l-0.4,0.2l-1.7,0.5l-1.5,0.5l-0.3,0.2l0.2,0.1
		l0.2,0.1l1.6,0.2l0.8-0.1l0.8-0.2l0.5-0.3l0.5-0.1h0.5l1,0.3l0.9,0.1h1.4l2.3-0.1l1.9-0.2h0.9l1,0.2l0.3,0.1l0.3-0.1l0.6-0.2
		l0.5,0.1l0.4,0.3l0.1,0.3l-0.2,0.2h-0.2h-0.6l0.1,0.1l0.2,0.2l-0.3,0.2l0.1,0.3l0.1,0.5l-0.1,0.5l-0.4,0.9l-0.5,0.5l-0.2,0.6v0.5
		l0.2,0.5l0.3,0.5l0.5,0.5l0.5,0.4l0.1,0.3v0.3l-0.1,0.4v0.5l0.1,1.7v1l0.2,0.4v0.2l-0.3,0.2l-0.4,0.3l-0.2,0.2l-0.2,0.1h-0.5
		l-0.3-0.1l-0.1-0.3l0.9-0.7l0.1-0.3v-0.4v-0.7v-1.2l-0.1-0.6l-0.3-0.5l-0.2-0.2l-0.7,0.9l-0.7,0.8l-0.8,0.7l-0.3,0.5l-0.1,0.3
		l-0.3,0.1v0.3l-0.5,0.5l-0.5,0.3h-0.2l-0.1-0.3l0.1-0.5l0.3-0.3l0.2-0.4l0.1-0.5l0.5-0.5l0.7-0.7l0.5-0.7l0.2-0.4V235l-0.4-0.8
		l-0.6-0.5l-1.4,0.4l-1.3,0.2h-0.7l-0.8-0.2l-0.5-0.2l-0.5-0.1l0.3,1.4l0.2,1.5l0.6,1.3l0.5,0.9l-0.2,0.1h-0.2v0.5v0.2l-0.2,0.2
		l-0.3,0.2l-0.4,0.1l-0.3-0.1l-0.1-0.2l0.2-0.5l0.1-0.4v-0.4l-0.2-0.7l-0.4-0.7l-0.3-0.8l-0.4-0.9l-0.5-0.8l-0.3-0.5h-0.7l-0.6-0.1
		l0.7-0.1l-0.2,0.8l-0.3,0.7l-0.4,0.6l-0.6,1.5L567,239l-0.2,0.1h-0.5l-0.2,0.2l-0.3,0.1h-0.6l-0.2-0.1l-0.1-0.2l0.1-0.2l0.3-0.3
		l0.6-0.3l0.3-0.4l0.5-0.9l0.4-1l0.2-1l0.1-1v-1.1h-0.3l-0.7-0.1l-0.7-0.4l-1-1l-0.8-1.1l-0.2-0.3l-0.2-0.2l-0.3-0.2h-0.5l-1.1-0.1
		h-0.4l-0.4,0.1l-0.3-0.1l-0.2-0.2l-0.3-0.5l-0.1-0.4l0.1-0.2l0.5-0.3l1.7-0.6l0.3-0.1l0.2-0.2l-0.7,0.1l-0.6,0.2l-0.8,0.2l-0.2-0.1
		l-0.1-0.2v-0.4v-0.1v-0.3v-0.3v-0.4l-0.1-0.2l0.1-0.3l-0.1-0.3l0.1-0.1l0.1-0.1l-0.2-0.5v-0.5l0.2-0.4l0.2-0.1h0.2v0.2L560.9,223.9
		z"/>
</g>
</svg>
