<?xml version="1.0" encoding="utf-8"?>
<!-- Generator: Adobe Illustrator 26.4.1, SVG Export Plug-In . SVG Version: 6.00 Build 0)  -->
<svg version="1.1" id="Слой_1" xmlns="http://www.w3.org/2000/svg" xmlns:xlink="http://www.w3.org/1999/xlink" x="0px" y="0px"
	 viewBox="0 0 50 50" style="enable-background:new 0 0 50 50;" xml:space="preserve">
<style type="text/css">
	.st0{fill:#D8F3FE;}
	.st1{fill:url(#SVGID_1_);}
	.st2{fill:#FFFFFF;}
</style>
<g>
	<circle class="st0" cx="25" cy="25" r="25"/>
	
		<linearGradient id="SVGID_1_" gradientUnits="userSpaceOnUse" x1="44.9855" y1="-166.0145" x2="4.9855" y2="-206.0145" gradientTransform="matrix(1 0 0 -1 0 -161)">
		<stop  offset="0" style="stop-color:#48F2FA"/>
		<stop  offset="1" style="stop-color:#604AF4"/>
	</linearGradient>
	<path class="st1" d="M45,25c0,11-9,20-20,20S5,36,5,25S14,5,25,5C36.1,5,45,14,45,25z"/>
	<path class="st2" d="M14.1,19.4l0.1-0.1l0.2,0.1l0.1,0.1l0.1,0.1l0.2-0.1H15v-0.3h0.4l0.1-0.1h0.2v0.3l-0.1,0.2v0.2l0.3,0.3v-0.3
		l0.1-0.1h0.1l0.1,0.2l0.1,0.3l0.3-0.1l0.1-0.1h0.1v0.2l-0.2,0.2l-0.2,0.2l-0.1,0.3l0.3,0.5l0.2,0.1l0.3-0.1l0.3-0.3l0.2-0.3
		l0.1-0.8l-0.2-0.8l-0.3-0.7l-0.4-0.6l-0.4-0.5l-0.9-0.6l-0.7-0.3l-0.4-0.2l-0.1-0.4l0.1-0.2h0.2l0.4,0.1v-0.4l-0.1-0.3l-0.1-0.3
		v-0.2l0.1-0.1l0.1,0.1l0.2,0.3l0.2,0.7l0.3-0.1l0.2-0.2l0.3-0.5l0.5-1H17l-0.1,0.3l-0.4,0.8l-0.1,0.5v0.4h0.2l0.1,0.2l0.8-0.4
		l0.7-0.2h0.7v-0.1l0.2-0.1h0.2l0.6,0.1L19.8,15v-0.1l0.1-0.1H20l0.1,0.1l0.2,0.2l0.1,0.2l0.3,0.1v-0.5v-0.3l0.1-0.1l0.2,0.1
		l0.2,0.3l0.1,0.7h0.1l0,0h0.2l0.1,0.4l0.7-0.8l0.1-0.2l0.2-0.1l0.1,0.1v0.2l-0.1,0.5l-0.2,0.4l-0.1,0.3l0.1,0.4l1.1-0.1l0.6,0.1
		l0.2,0.2v0.2l-0.3,0.1h-0.3l-0.9,0.2l0.2,1.5L23,19.9l-0.3,0.8l-0.5,0.7l-0.7,0.5l-0.4,0.2l-1.7,0.5l-1.5,0.5l-0.3,0.2l0.2,0.1
		l0.2,0.1l1.6,0.2l0.8-0.1l0.8-0.2l0.5-0.3l0.5-0.1h0.5l1,0.3l0.9,0.1H26l2.3-0.1l1.9-0.2h0.9l1,0.2l0.3,0.1l0.3-0.1l0.6-0.2
		l0.5,0.1l0.4,0.3l0.1,0.3L34.1,24h-0.2h-0.6l0.1,0.1l0.2,0.2l-0.3,0.2l0.1,0.3l0.1,0.5l-0.1,0.5L33,26.7l-0.5,0.5l-0.2,0.6v0.5
		l0.2,0.5l0.3,0.5l0.5,0.5l0.5,0.4l0.1,0.3v0.3l-0.1,0.4v0.5l0.1,1.7v1l0.2,0.4V35l-0.3,0.2l-0.4,0.3l-0.2,0.2L33,35.8h-0.5
		l-0.3-0.1l-0.1-0.3l0.9-0.7l0.1-0.3V34v-0.7v-1.2L33,31.5L32.7,31l-0.2-0.2l-0.7,0.9l-0.7,0.8l-0.8,0.7L30,33.7L29.9,34l-0.3,0.1
		v0.3l-0.5,0.5l-0.5,0.3h-0.2l-0.1-0.3l0.1-0.5l0.3-0.3l0.2-0.4l0.1-0.5l0.5-0.5l0.7-0.7l0.5-0.7l0.2-0.4v-0.4l-0.4-0.8l-0.6-0.5
		l-1.4,0.4l-1.3,0.2h-0.7l-0.8-0.2l-0.5-0.2l-0.5-0.1l0.3,1.4l0.2,1.5l0.6,1.3l0.5,0.9l-0.2,0.1h-0.2V35v0.2l-0.2,0.2l-0.3,0.2
		L25,35.7l-0.3-0.1l-0.1-0.2l0.2-0.5l0.1-0.4v-0.4l-0.2-0.7l-0.4-0.7L24,31.9L23.6,31l-0.5-0.8l-0.3-0.5h-0.7l-0.6-0.1l0.7-0.1
		L22,30.3L21.7,31l-0.4,0.6l-0.6,1.5l-0.5,1.4L20,34.6h-0.5l-0.2,0.2L19,34.9h-0.6l-0.2-0.1l-0.1-0.2l0.1-0.2l0.3-0.3l0.6-0.3
		l0.3-0.4l0.5-0.9l0.4-1l0.2-1l0.1-1v-1.1h-0.3l-0.7-0.1l-0.7-0.4l-1-1l-0.8-1.1l-0.2-0.3l-0.2-0.2l-0.3-0.2h-0.5L14.8,25h-0.4
		L14,25.1L13.7,25l-0.2-0.2l-0.3-0.5l-0.1-0.4l0.1-0.2l0.5-0.3l1.7-0.6l0.3-0.1l0.2-0.2l-0.7,0.1l-0.6,0.2L13.8,23l-0.2-0.1
		l-0.1-0.2v-0.4v-0.1v-0.3v-0.3v-0.4L13.4,21l0.1-0.3l-0.1-0.3l0.1-0.1l0.1-0.1l-0.2-0.5v-0.5l0.2-0.4l0.2-0.1H14v0.2L14.1,19.4z"/>
</g>
</svg>
