<?xml version="1.0" encoding="utf-8"?>
<!-- Generator: Adobe Illustrator 26.4.1, SVG Export Plug-In . SVG Version: 6.00 Build 0)  -->
<svg version="1.1" id="Слой_1" xmlns="http://www.w3.org/2000/svg" xmlns:xlink="http://www.w3.org/1999/xlink" x="0px" y="0px"
	 viewBox="0 0 43 43" style="enable-background:new 0 0 43 43;" xml:space="preserve">
<style type="text/css">
	.st0{fill:#D8F3FE;}
	.st1{fill:url(#SVGID_1_);}
	.st2{fill:#FFFFFF;}
</style>
<circle class="st0" cx="21.5" cy="21.4" r="21"/>
<linearGradient id="SVGID_1_" gradientUnits="userSpaceOnUse" x1="37.4724" y1="38.6123" x2="5.4724" y2="6.6123" gradientTransform="matrix(1 0 0 -1 0 44)">
	<stop  offset="0" style="stop-color:#48F2FA"/>
	<stop  offset="1" style="stop-color:#604AF4"/>
</linearGradient>
<circle class="st1" cx="21.5" cy="21.4" r="16"/>
<g>
	<path class="st2" d="M26.8,28.5c-0.7,0-1.4,0.1-2.2,0.1c-0.6,0-1.2,0-1.8,0c-0.8,0-1.5,0-2.3,0c-0.9,0-1.7,0.1-2.6,0.1
		c-0.8,0-1.6,0-2.4,0c-0.7,0-1.3,0-2,0c-0.6,0-1.2-0.1-1.8-0.1c-0.2,0-0.4,0-0.5-0.1c-0.1,0-0.2-0.1-0.2-0.2
		c-0.2-0.3-0.5-0.7-0.6-1.1c-0.1-0.2-0.2-0.4-0.3-0.6c-0.2-0.5-0.1-1.1,0-1.6c0.2-0.8,0.6-1.5,1.1-2.1c0.3-0.3,0.7-0.6,1-0.9
		c0.4-0.4,0.8-0.7,1.1-1.2c0.3-0.5,0.1-1-0.5-1.1c-0.2,0-0.4,0-0.6,0c-0.4,0.1-0.9,0.2-1.3,0.3c-0.6,0.2-1.2,0.3-1.9,0.4
		c-0.4,0.1-0.7,0-1.1,0c-0.2,0-0.4-0.1-0.4-0.3c-0.1-0.2,0-0.3,0.2-0.5c0.2-0.2,0.4-0.3,0.6-0.4c0.7-0.3,1.4-0.8,2-1.2
		c0.3-0.2,0.5-0.4,0.7-0.6c0.1-0.1,0.2-0.3,0.3-0.4c0.3-0.7,0.6-1.3,1.1-1.9c0.3-0.4,0.7-0.7,1.2-0.9c0.4-0.2,0.8-0.3,1.2-0.3
		c0.3,0,0.6-0.1,0.9,0c0.6,0.1,1.1,0.2,1.6,0.6c0.2,0.1,0.3,0.2,0.5,0.3c0.3,0.2,0.5,0.5,0.7,0.8c0.4,0.6,0.6,1.3,0.6,2
		c0,0.4,0,0.9-0.2,1.3c-0.1,0.3-0.2,0.6-0.3,0.9c-0.1,0.4-0.3,0.7-0.4,1.1C18,21.3,18,21.6,18,21.8c0,0.3,0.2,0.4,0.4,0.3
		c0.8-0.4,1.6-0.7,2.4-0.9c0.6-0.2,1.3-0.4,1.9-0.6c0.9-0.2,1.8-0.3,2.7-0.4c0.3,0,0.7,0,1-0.1c0.4-0.1,0.8-0.1,1.2-0.2
		c0.2-0.1,0.5-0.1,0.7-0.1c0.3-0.1,0.7-0.2,1.1-0.2c0.4,0,0.7-0.2,1.1-0.3c0.1,0,0.1-0.1,0.2-0.1c0.1-0.1,0.2-0.1,0.3-0.2
		c0,0,0.1,0,0.1,0c0.2,0.1,0.2,0.3,0.2,0.5c-0.1,0.2-0.2,0.4-0.3,0.6c-0.1,0.3-0.3,0.5-0.4,0.8c-0.1,0.3,0,0.5,0.3,0.4
		c0.5-0.1,0.9-0.2,1.4-0.3c0.6-0.1,1.1-0.3,1.6-0.4c0.3-0.1,0.7-0.2,1-0.3c0,0,0.1,0,0.1,0c0.1,0,0.3,0,0.3,0.1
		c0.1,0.1,0.1,0.4,0,0.5c-0.2,0.2-0.4,0.4-0.6,0.5c-0.7,0.5-1.4,1.1-2.1,1.6c-0.2,0.2-0.4,0.5-0.6,0.8c-0.3,0.4-0.4,0.9-0.6,1.3
		c-0.1,0.3-0.2,0.6-0.3,0.9c-0.3,0.8-0.6,1.6-1.1,2.3c-0.1,0.1-0.2,0.2-0.4,0.2c-0.4,0-0.8,0.1-1.1,0.1c-0.6,0-1.1,0.1-1.7,0.1
		C26.9,28.6,26.9,28.5,26.8,28.5C26.8,28.5,26.8,28.5,26.8,28.5z"/>
</g>
</svg>
