<svg width="37" height="31" viewBox="0 0 37 31" fill="none" xmlns="http://www.w3.org/2000/svg">
<path d="M20.1022 29.8584C19.9294 29.6867 19.7922 29.4828 19.6985 29.2581C19.6048 29.0334 19.5566 28.7924 19.5566 28.549C19.5566 28.3055 19.6048 28.0645 19.6985 27.8398C19.7922 27.6151 19.9294 27.4111 20.1023 27.2395C20.1023 27.2394 20.1023 27.2394 20.1024 27.2393L30.0509 17.3497L2.45828 17.3497C1.96618 17.3497 1.49376 17.1554 1.14509 16.8087C0.796336 16.462 0.599998 15.9912 0.599998 15.4998C0.599998 15.0085 0.796337 14.5377 1.14509 14.1909C1.49376 13.8443 1.96617 13.6499 2.45828 13.6499L30.0509 13.6499L20.1023 3.7602L20.1022 3.76017C19.7533 3.41328 19.5569 2.94229 19.5569 2.45071C19.5569 1.95912 19.7533 1.48814 20.1022 1.14125C20.4511 0.794427 20.9237 0.599999 21.416 0.599999C21.9083 0.599999 22.3809 0.794427 22.7298 1.14125L35.8542 14.1902C35.8542 14.1903 35.8543 14.1903 35.8543 14.1904C36.0271 14.362 36.1644 14.566 36.258 14.7907C36.3517 15.0154 36.4 15.2564 36.4 15.4998C36.4 15.7433 36.3517 15.9842 36.258 16.209L35.8888 16.0551L36.258 16.209C36.1644 16.4337 36.0271 16.6376 35.8543 16.8093C35.8543 16.8094 35.8542 16.8094 35.8542 16.8095L22.7299 29.8583C22.5572 30.0302 22.3523 30.1664 22.1269 30.2593C21.9014 30.3522 21.6599 30.4 21.416 30.4C21.1721 30.4 20.9306 30.3522 20.7051 30.2593C20.4798 30.1664 20.2748 30.0302 20.1022 29.8584ZM20.1022 29.8584C20.1021 29.8583 20.1021 29.8583 20.1021 29.8583L20.3843 29.5748L20.1024 29.8586C20.1023 29.8585 20.1022 29.8584 20.1022 29.8584Z" fill="#4DCDF8" stroke="#4DCDF8" stroke-width="0.8"/>
</svg>
