<?xml version="1.0" encoding="utf-8"?>
<!-- Generator: Adobe Illustrator 26.4.1, SVG Export Plug-In . SVG Version: 6.00 Build 0)  -->
<svg version="1.1" id="Слой_1" xmlns="http://www.w3.org/2000/svg" xmlns:xlink="http://www.w3.org/1999/xlink" x="0px" y="0px"
	 viewBox="0 0 50 50" style="enable-background:new 0 0 50 50;" xml:space="preserve">
<style type="text/css">
	.st0{fill:#D8F3FE;}
	.st1{fill:url(#SVGID_1_);}
	.st2{fill:#FFFFFF;}
</style>
<g>
	<circle class="st0" cx="25" cy="25" r="25"/>
	
		<linearGradient id="SVGID_1_" gradientUnits="userSpaceOnUse" x1="45.007" y1="-216.393" x2="5.007" y2="-256.393" gradientTransform="matrix(1 0 0 -1 0 -211.4)">
		<stop  offset="0" style="stop-color:#48F2FA"/>
		<stop  offset="1" style="stop-color:#604AF4"/>
	</linearGradient>
	<circle class="st1" cx="25" cy="25" r="20"/>
	<path class="st2" d="M21.4,19.9H23l1.5,0.3l3.1,0.4l0.8,0.1l0.8-0.1l2.3-1.2l0.8-0.3l0.2-0.1l0.3-0.2l0.3-0.4l0.5-0.4l0.1,1.6
		l0.4,0.2l0.2,0.3l0.3,0.8l0.1,0.4l0.2,0.3l0.7,0.6l0.5,0.4v0.2L36,23l-0.3,0.3l-0.6,0.2l-0.7-0.1l-1.3-0.3l-0.4,0.1l-0.3,0.2
		L31.9,24l-0.2,0.3l-0.2,0.1L31,24.7l-1,0.6l-0.4,0.3l-0.3,0.1l-0.4,0.2L28.7,26l-0.2,0.1v0.5l0.1,0.8l0.3,1.4l0.1,0.7l0.3,0.6
		l0.3,0.2l0.3,0.1l0.3,0.1l0.1,0.3L30,31h-0.4l-0.4-0.1l-0.4-0.3l-0.3-0.4l-0.2-0.4L28,28.9L27.7,28l-0.1-0.4l-0.2-0.3l0.1,1.5
		l0.1,0.4l-0.1,0.3l-0.8,0.7L25.9,31l-0.1,0.1h-0.1l-0.1-0.3l0.1-0.5l0.4-0.5l0.2-0.2l0.2-0.2l0.2-0.5v-0.5l-0.2-1l-0.3-1.3L25,25.9
		l-1.1-0.3l-0.7-0.3L23,25.7L22.8,26l-0.6,0.5l-0.6,0.7l-0.2,0.4V28l0.7,0.9l0.8,1l0.2,0.4v0.2L23,30.7l-0.6-0.2l-0.5-0.4l-0.2-0.3
		l-0.3-0.3L20.9,29l-0.4-0.6l-0.1-0.2l-0.1-0.1L20,27.7l-0.1-0.3v-0.2l0.3-0.3l0.3-0.3l0.1-0.5l-0.1-0.5l-0.1,0.3l-0.1,0.3l-0.2,0.3
		l-0.3,0.3l-0.7,0.4l-0.7,0.4l-0.3,0.3L18,28.3v0.9l0.1,0.9l0.6,0.1l0.3,0.2l0.1,0.3l-0.5,0.1H18l-0.2-0.1l-0.2-0.2l-0.3-0.6
		l-0.2-0.8L17,27.6l0.5-0.5l0.4-0.6l0.2-0.8v-0.5L18,24.9l-0.1,0.4l-0.1,0.4l-0.2,0.1L17.5,26l-0.2,0.2l-0.1,0.2v0.1l0,0l-0.1-0.2
		l-0.2,0.3l-0.3,0.2l-0.2,0.3l-0.3,0.2H16l-0.1,0.2l-0.3,0.2l-0.2,0.1L15,28.1h-0.1h-0.1l-0.1,0.2l-0.9,0.5v-4.9l1.3-1.3l0.1-0.1
		l0.1-0.1l0.3-0.1l0.3-0.2l0.2-0.2l0.3-0.2l0.3-0.1l0.1-0.2l0.1-0.1l0.2-0.1l1-0.3l1.1-0.2l0.6-0.3L21.4,19.9z"/>
</g>
</svg>
