<?xml version="1.0" encoding="utf-8"?>
<!-- Generator: Adobe Illustrator 26.4.1, SVG Export Plug-In . SVG Version: 6.00 Build 0)  -->
<svg version="1.1" id="Слой_1" xmlns="http://www.w3.org/2000/svg" xmlns:xlink="http://www.w3.org/1999/xlink" x="0px" y="0px"
	 viewBox="0 0 50 50" style="enable-background:new 0 0 50 50;" xml:space="preserve">
<style type="text/css">
	.st0{fill:#D8F3FE;}
	.st1{fill:url(#SVGID_1_);}
	.st2{fill:#FFFFFF;}
</style>
<g>
	<circle class="st0" cx="25" cy="25" r="25"/>
	
		<linearGradient id="SVGID_1_" gradientUnits="userSpaceOnUse" x1="44.985" y1="-190.015" x2="4.985" y2="-230.015" gradientTransform="matrix(1 0 0 -1 0 -185)">
		<stop  offset="0" style="stop-color:#48F2FA"/>
		<stop  offset="1" style="stop-color:#604AF4"/>
	</linearGradient>
	<path class="st1" d="M45,25c0,11-9,20-20,20S5,36,5,25S14,5,25,5C36.1,5,45,14,45,25z"/>
	<g>
		<path class="st2" d="M12.8,35.7c-0.1-0.1-0.2-0.2-0.3-0.4c-0.2-0.6-0.3-1.2-0.2-1.8v-0.1c0.3-0.6,0.4-1.3,0.6-2
			c0.1-0.4,0.3-0.9,0.5-1.3c0.1-0.3,0.3-0.5,0.6-0.6c0.2-0.1,0.5-0.2,0.7-0.4l0.1-0.1c-0.3,0.1-0.5,0-0.7-0.1
			c-0.6-0.3-1-0.8-1.2-1.5c-0.2-0.4,0-0.8,0.4-1s0.9-0.2,1.3-0.2c0.1,0,0.1,0,0.2,0c0.1,0,0.2,0,0.3-0.1c0.2-0.3,0.3-0.5,0.5-0.8
			c0.1-0.2,0.3-0.4,0.5-0.6c0.1-0.1,0.3-0.2,0.5-0.4c0.2-0.1,0.3-0.3,0.5-0.4c0.5-0.5,1-1,1.5-1.4s1-0.7,1.6-0.9
			c0.4-0.1,0.8-0.3,1.2-0.5c0.9-0.3,1.7-0.4,2.6-0.4c0.2,0,0.3-0.1,0.5-0.1c0.5-0.1,1-0.1,1.5,0c0.5,0,1.1,0.1,1.6,0.1s1,0,1.4-0.2
			c0.1,0,0.1-0.1,0.1-0.2c0-0.1-0.1-0.3-0.1-0.4c-0.3-0.3-0.5-0.7-0.8-1c-0.5-0.5-0.9-1-1.3-1.6c-0.3-0.5-0.6-1-0.6-1.6
			c0-0.5,0-0.9,0.2-1.4c0.1-0.1,0.1-0.2,0.3-0.2s0.3,0.1,0.5,0.2c0.1,0.2,0.2,0.3,0.4,0.5c0.1,0.1,0.1,0.1,0.2,0.2
			c0.1,0.1,0.1,0.1,0.2,0c0.2-0.2,0.4-0.2,0.6-0.2c0.6,0.1,1.2,0.3,1.7,0.7c0.2,0.2,0.3,0.4,0.5,0.6c0.4,0.7,0.8,1.4,1.1,2.2
			c0.1,0.2,0.2,0.4,0.2,0.5s0.1,0.2,0.2,0.2c0.6,0.2,1.1,0.4,1.6,0.7c0.6,0.4,1.1,0.9,1.4,1.5l0.1,0.1c0.4,0.6,0.6,1.2,0.5,1.9
			c-0.1,0.5-0.4,0.8-0.9,0.8c-0.4,0-0.7,0.1-1,0.4c-0.1,0.1-0.1,0.1-0.2,0.2c-0.1,0.2-0.1,0.4,0.1,0.5c0.1,0,0.1,0.1,0.2,0.1
			c0.6,0.1,1.1,0.3,1.6,0.5c0.4,0.2,0.7,0.3,1.1,0.2c0.1,0,0.2,0,0.2,0c0.1,0,0.2,0,0.3,0.1c0.2,0.1,0.3,0.2,0.3,0.4s0,0.3-0.1,0.4
			c-0.2,0.2-0.3,0.3-0.6,0.3c-0.4,0.1-0.7,0-1.1-0.1c-0.4-0.1-0.9-0.2-1.3-0.4c-0.1,0-0.2,0-0.3,0l0,0l0.1,0.1
			c0.2,0.2,0.4,0.4,0.5,0.6c0.2,0.2,0.2,0.4,0.2,0.6c-0.1,0.3-0.2,0.4-0.5,0.4s-0.6-0.1-0.9-0.2c-0.3-0.1-0.6-0.2-0.8-0.4
			c-0.5-0.3-1-0.4-1.6-0.5c-0.7-0.1-1.4-0.2-2-0.3c-0.1,0-0.3,0-0.4-0.1c-0.3-0.1-0.7-0.1-1-0.1c-1.5,0.2-2.9,0.5-4.4,0.9
			c-0.5,0.2-0.9,0.4-1.4,0.7c-0.4,0.2-0.9,0.5-1.4,0.6c0,0-0.1,0-0.1,0.1c-0.3,0.3-0.7,0.6-1,0.9c-0.3,0.3-0.7,0.5-1.1,0.7
			c-0.3,0.1-0.5,0.1-0.8,0.1c-0.4,0-0.9,0-1.3,0.1c-0.8,0.2-1.3,0.7-1.6,1.4c-0.2,0.5-0.3,1-0.5,1.4c-0.1,0.2-0.1,0.3-0.2,0.5
			c-0.2,0.4-0.4,0.7-0.8,1C13,35.7,12.9,35.7,12.8,35.7z"/>
	</g>
</g>
</svg>
