<svg width="50" height="51" viewBox="0 0 50 51" fill="none" xmlns="http://www.w3.org/2000/svg">
<path d="M25 50.5C11.1929 50.5 4.57764e-05 39.3071 4.57764e-05 25.5C4.57764e-05 11.6929 11.1929 0.5 25 0.5C38.8072 0.5 50 11.6929 50 25.5C50 39.3071 38.8072 50.5 25 50.5Z" fill="#4DCDF8"/>
<path d="M21.875 20.8125H23.4375C23.8519 20.8125 24.2493 20.9771 24.5424 21.2701C24.8354 21.5632 25 21.9606 25 22.375V34.875C25 35.2894 25.1646 35.6868 25.4576 35.9799C25.7507 36.2729 26.1481 36.4375 26.5625 36.4375H28.125M25 14.5625H25.0313" stroke="white" stroke-width="3" stroke-linecap="round" stroke-linejoin="round"/>
</svg>
