<?xml version="1.0" encoding="utf-8"?>
<!-- Generator: Adobe Illustrator 26.4.1, SVG Export Plug-In . SVG Version: 6.00 Build 0)  -->
<svg version="1.1" id="Слой_1" xmlns="http://www.w3.org/2000/svg" xmlns:xlink="http://www.w3.org/1999/xlink" x="0px" y="0px"
	 viewBox="0 0 42 42" style="enable-background:new 0 0 42 42;" xml:space="preserve">
<style type="text/css">
	.st0{fill:#D8F3FE;}
	.st1{fill:url(#SVGID_1_);}
	.st2{fill:#FFFFFF;}
</style>
<g>
	<circle class="st0" cx="21" cy="21" r="21"/>
	
		<linearGradient id="SVGID_1_" gradientUnits="userSpaceOnUse" x1="36.992" y1="-121.808" x2="4.992" y2="-153.808" gradientTransform="matrix(1 0 0 -1 0 -116.8)">
		<stop  offset="0" style="stop-color:#48F2FA"/>
		<stop  offset="1" style="stop-color:#604AF4"/>
	</linearGradient>
	<circle class="st1" cx="21" cy="21" r="16"/>
	<path class="st2" d="M21.7,20.1l0.4-0.2h0.1l0,0l0.6-0.4l0.8-0.7l0.5-0.5l0.1-0.1l0.1-0.2l0.1-0.2l0.1-0.2l0.1-0.3l0.3-0.7l0.2-0.7
		l0.2-0.8l0.5-1.1l0.1-0.1l0.4-0.3l0.4-0.2l0.1-0.1l0.1-0.1l0.3-0.2l0.3-0.2l0.4-0.1l0.2,0.1l0.1,0.3L28,13l-0.2,0.2l-0.1,0.3
		l0.3-0.1l0.4,0.1l-0.1,0.2L28,14l0.3,0.3l0.2,0.3l-0.1,0.1v0.1v0.1L28.2,15l0.2,0.2h-0.1h-0.1l0.2,0.2v0.1h-0.1l0.1,0.2h-0.2
		l0.1,0.2h-0.2V16l-0.3-0.1l0.2,0.2v0.1h-0.4l0.2,0.3l-0.2-0.1v0.7l-0.2-0.3l-0.1,0.4l-0.1-0.1v0.3h-0.1v0.2L27,17.7v0.6V19l0,0v0.2
		l-0.1,0.1v0.4l-0.1,0.7v0.4v0.4l-0.1,1.6l-0.2,1l-0.4,1L26,24.9l-0.1,0.3l-0.3,0.5L25.5,26l-0.1,0.2L24.8,27l-0.7,0.5l-0.3,0.2
		L23.6,28l-0.1,0.2v0.3l0.4,0.7h0.4l0.5,0.1l0.4,0.2l0.1,0.3H25l-1-0.1l-1.3,0.1l0.1-0.2l0.2-0.1v-0.2l-0.1-0.1l-0.3-0.1l0.2-0.2
		h-0.1h-0.1v-0.2h-0.4l0.1-0.3l-0.4-0.1l-0.1-0.2v-0.3l-0.1-0.2l-0.4,0.3v-0.1l-0.1-0.1L21,28.1v0.6V29l0.4,0.3l0.3,0.1l0.2,0.1
		l-0.2,0.1l-0.1,0.1v0.1l-0.2-0.1l-0.5-0.1h-0.2l-0.3-0.1l-0.2-0.2l-0.3-0.1h-0.4l-0.1-0.1h-0.2l0.1-0.1h0.2l0.2-0.1l0.1-0.2
		l0.2-0.2l0.1-0.2V28l-0.4,0.1l0.1-0.2v-0.2h-0.2l-0.2,0.1l0.1-0.2l-0.2-0.1l-0.1-0.2v-0.1l-0.5,0.1l-0.5,0.3l-0.8,0.7v-0.2L17,28.4
		l0.1-0.6L16.9,28l-0.1,0.1l0.1-0.6v-0.3v-0.4l0.2-0.8l0.3-0.7l0.1-0.1l0.1-0.2l-0.1-0.2l-0.2-0.1l0.1-0.4v-0.5h-0.7l0.2-0.2
		l-0.3-0.1v-0.1l0.2-0.1l-0.4-0.2l0.1-0.2L16,22.6l-0.9-0.2h-0.5l-0.4-0.2L14,21.8l-0.1-0.2l-0.1-0.1v-0.3l0.1-0.2l-0.1-0.4
		l-0.1-1.1l0.1-0.4l0.1-0.3v-0.3v-0.3v-0.5l0.1-0.3l0.3-0.1l-0.1-0.1v-0.1v-0.3l0.1-0.9l0.1-0.3h0.2v-0.3l0.1-0.5l0.3-0.5l0.1-0.2
		l0.1-0.1l0.4,0.7l0.3,0.4l-0.2-0.7l-0.2-0.5v-0.3l0.2-0.4l0.1-0.3l0.2-0.3l0.2-0.1l0.3-0.2V12l0.1-0.1h0.1l0,0l0.5-0.2l0.2-0.1h0.3
		l0.3-0.1l0.1,0.1v0.1v0.1l0.1,0.2l0.2-0.1l0.2-0.1l0.1,0.2l0.2,0.8l0.2,0.6l0.1-0.2l0.2,0.4l0.1,0.5l0.1,0.5v0.5l0.3,0.6l0.1,0.8
		v0.2l0.1,0.1l0.1,0.5v0.8l-0.1,0.4l0.2,0.4l0.1,0.6l0.2-0.2l-0.1,0.2v0.2h0.3l0.6,0.1h0.3L21.7,20.1L21.7,20.1z"/>
</g>
</svg>
