<?xml version="1.0" encoding="utf-8"?>
<!-- Generator: Adobe Illustrator 26.4.1, SVG Export Plug-In . SVG Version: 6.00 Build 0)  -->
<svg version="1.1" id="Слой_1" xmlns="http://www.w3.org/2000/svg" xmlns:xlink="http://www.w3.org/1999/xlink" x="0px" y="0px"
	 viewBox="0 0 1254 523" style="enable-background:new 0 0 1254 523;" xml:space="preserve">
<style type="text/css">
	.st0{fill:#D8F3FE;}
	.st1{fill:url(#SVGID_1_);}
	.st2{fill:#FFFFFF;}
</style>
<g>
	<circle class="st0" cx="392.5" cy="251.1" r="25"/>
	
		<linearGradient id="SVGID_1_" gradientUnits="userSpaceOnUse" x1="412.5005" y1="507.0995" x2="372.5005" y2="547.0995" gradientTransform="matrix(1 0 0 1 0 -276)">
		<stop  offset="0" style="stop-color:#48F2FA"/>
		<stop  offset="1" style="stop-color:#604AF4"/>
	</linearGradient>
	<circle class="st1" cx="392.5" cy="251.1" r="20"/>
	<path class="st2" d="M385,250.1l-0.1-0.3l-0.3-0.7l-0.4-0.6l-0.1,0.3h-0.4l-0.3-0.3v-0.3l-0.1-0.2l-0.4-0.1l-0.3,0.1l-0.3,0.2
		l-0.3,0.1l-0.3-0.1l-0.2-0.1v-0.2l-0.4-0.3l-0.3-0.4v-0.3l0.1-0.2l0.2-0.6v-0.6l0.1-0.3l0.2-0.1l0.3-0.4l0.4-0.3l-0.1-0.3l-0.2-0.4
		v-0.5l0.1-0.2l0.2-0.1l0.1,0.4l0.1-0.2l0.1-0.1v0.4l0.2,0.2l0.5,0.3l0.9,0.3l0.5,0.2l0.7,0.4l0.2,0.2l0.7,0.5l0.3,0.1h0.2h0.3
		l0.5,0.2l0.5,0.3l0.5,0.1l1.3,0.2l0.7,0.1h0.7l1.5-0.1h2.8h0.7l0.5,0.2l1.8,0.3l0.9,0.3l0.3,0.3l0.2,0.4l0.2,0.6l0.2,0.6l0.3-0.2
		l0.1-0.1l0.2,0.1l0.2,0.2v0.4l-0.3,0.6l-0.2,0.3l-0.3,0.2l0.2,0.9l0.4,0.8l0.2,0.5l0.9,0.7l0.9,0.6v0.6l-0.1,0.6v1.4l-0.1,0.7
		l-0.2,0.5l-0.4,0.2h-0.8l-0.6-0.1l-0.2-0.2v-0.3l0.3-0.5l0.3-0.1h0.3l0.2-0.2l0.1-0.3v-0.7l-0.2-0.5l-0.3-0.3l-0.8-0.2l-1.6-0.6
		l-0.6-0.4l-0.4-0.4l-0.4-0.3l-0.3-0.1v0.7l0.1,0.7l0.2,0.9l0.2,0.2v0.4l-0.1,0.4l-0.2,0.3l-0.3,0.2l-0.6,0.5l-0.5,0.6l-0.3,0.3
		l-0.4,0.1l-1,0.1h-0.7l-0.2-0.2v-0.4l0.3-0.4l0.3-0.2h0.3l0.4,0.1l0.4-0.2l0.6-0.4l0.3-0.3l0.1-0.3v-0.3l-0.3-0.5l-0.5-0.5
		l-0.3-0.4l-0.5-1l-0.3-0.8l-0.1-0.2l-0.1-0.2l-0.5,0.1l-0.7,0.2l-0.5-0.1l-0.5-0.2l-1.3-0.4l-0.5-0.1l-0.4,0.1l-0.1,0.2v0.2
		l0.1,0.5v1v1l-0.2,1.8l-0.2,0.8l-0.2,0.3l-0.3,0.2h-0.7l-0.7-0.1l-0.2-0.1l-0.1-0.1l0,0l-0.3,0.4l-0.3,0.2h-0.8H385l-0.2-0.1
		l-0.1-0.2l0.1-0.4l0.2-0.3h0.4h0.2l0.1-0.2l0.1-0.8l0.1-0.8l0.2-0.8l0.1-0.7l-0.1-0.6l-0.5-1.1l-0.2-0.7l-0.1-0.6l-0.1-0.2
		l-0.2-0.2L385,250.1z"/>
</g>
</svg>
