<?xml version="1.0" encoding="utf-8"?>
<!-- Generator: Adobe Illustrator 26.4.1, SVG Export Plug-In . SVG Version: 6.00 Build 0)  -->
<svg version="1.1" id="Слой_1" xmlns="http://www.w3.org/2000/svg" xmlns:xlink="http://www.w3.org/1999/xlink" x="0px" y="0px"
	 viewBox="0 0 50 50" style="enable-background:new 0 0 50 50;" xml:space="preserve">
<style type="text/css">
	.st0{fill:#D8F3FE;}
	.st1{fill:url(#SVGID_1_);}
	.st2{fill:#FFFFFF;}
</style>
<g>
	<circle class="st0" cx="25" cy="25" r="25"/>
	
		<linearGradient id="SVGID_1_" gradientUnits="userSpaceOnUse" x1="44.9795" y1="-472.0205" x2="4.9795" y2="-512.0205" gradientTransform="matrix(1 0 0 -1 0 -467)">
		<stop  offset="0" style="stop-color:#48F2FA"/>
		<stop  offset="1" style="stop-color:#604AF4"/>
	</linearGradient>
	<circle class="st1" cx="25" cy="25" r="20"/>
	<path class="st2" d="M16.8,27.6L16.5,27c0,0,0,0-0.1,0c-1.5,0.5-3.3,0.2-5.1-0.2c-0.3-0.1-0.3-0.5,0-0.5c1.7-0.1,3,0.1,4.5-1.2
		c0,0,0.7-2.9,4.7-4c2.2-0.6,4.7,0.1,6.4,0.8c1.5,0.6,3.6,0.6,4.6-0.6c1.1-1.4,2.2-2.5,4-2.7c0.9-0.1,1.7-0.1,2.3,0
		c1.4,0.3,0.6,2-0.6,2.7c-1,0.5-2,1.1-2.7,1.9c-1.2,1.1-1,3.2,0.5,3.8c0.3,0.1,0.2,0.5-0.1,0.5c-0.8,0-1.5-0.1-2.7-0.4
		c-0.2,0-0.3,0.1-0.2,0.3c0.6,0.7,1.8,0.8,1.8,1.2c0,0.2-0.5,0.2-1,0.2c-1.3,0-2.5-0.6-3.6-1.3c-1.1-0.8-2.4-1.3-3.7-1.4
		c-0.8-0.1-1.6-0.1-2.5,0c-1.2,0.1-2.6,0.3-3.6,1.1c-0.1,0.1-0.2,0.2-0.2,0.3c-0.2,0.2-0.1,0.6,0.1,0.8l0.7,0.8
		c0.2,0.2,0,0.6-0.3,0.6C18.6,29.5,17.4,28.8,16.8,27.6z"/>
</g>
</svg>
