<?xml version="1.0" encoding="utf-8"?>
<!-- Generator: Adobe Illustrator 26.4.1, SVG Export Plug-In . SVG Version: 6.00 Build 0)  -->
<svg version="1.1" id="Слой_1" xmlns="http://www.w3.org/2000/svg" xmlns:xlink="http://www.w3.org/1999/xlink" x="0px" y="0px"
	 viewBox="0 0 50 50" style="enable-background:new 0 0 50 50;" xml:space="preserve">
<style type="text/css">
	.st0{fill:#D8F3FE;}
	.st1{fill:url(#SVGID_1_);}
	.st2{fill:#FFFFFF;}
</style>
<g>
	<circle class="st0" cx="25" cy="25" r="25"/>
	
		<linearGradient id="SVGID_1_" gradientUnits="userSpaceOnUse" x1="45.0235" y1="556.9765" x2="5.0235" y2="596.9765" gradientTransform="matrix(1 0 0 1 0 -552)">
		<stop  offset="0" style="stop-color:#48F2FA"/>
		<stop  offset="1" style="stop-color:#604AF4"/>
	</linearGradient>
	<circle class="st1" cx="25" cy="25" r="20"/>
	<path class="st2" d="M30.7,31.7l-0.1,0.2l-0.1,0.2v0.1l-0.1,0.1v0.2l-0.1,0.2l-0.1,0.2l-0.4,1.4l-0.1,0.3l-0.1,0.3V35v0.1v0.1
		l-0.1,0.3l-0.1,0.3v0.3v0.2l-0.2,0.1L29,36.2l-0.3,0.4l-0.5,0.2L28,37l-0.3-0.1l-0.1-0.1h-0.2h-0.2l-0.1-0.1l0.1-0.2l0.3-0.1
		l0.5-0.2l0.4-0.3l0.3-0.4v-0.1l0.3-0.5v-0.2l0.2-0.5l0.2-0.7l0.1-0.5l0.1-0.5l0.1-0.2V32v-1.2l-0.1-0.6l-0.2-1.7l-0.2,0.1l-0.5,0.2
		L28.4,29l-0.8,0.2h-0.9h-0.5v0.3l-0.1,0.7v0.6l0.1,0.9v0.5l0.2,0.9v0.4l0.2,0.5l0.2,0.4l0.1,0.4l0.1,0.5l0.2,0.4l0.2,0.4l0.1,0.2
		l-0.1,0.2l-0.2-0.1l-0.1,0.2L27,36.7v0.1L26.9,37l-0.4,0.1h-0.2h-0.2L25.9,37h-0.2l-0.1-0.2l0.1-0.2l0.2-0.1l0.2-0.3l0.2-0.1
		l0.2-0.3v-0.5l-0.1-0.6l-0.1-0.5l-0.1-0.4l-0.1-0.5L26,33.1V33l-0.1-0.1v-0.1l-0.1-0.2L25.4,32l-0.1-0.8L25,29.9l-0.4-0.7l-0.4-0.8
		l-0.1-0.1h-0.2l-0.1,0.1v0.2v0.8l-0.1,0.7l-0.1,0.7l-0.2,0.6l-0.1,0.7l-0.2,0.6l-0.2,0.2l-0.1,0.3v0.1v0.5l-0.1,0.9v1.5v0.2
		l-0.1,0.1l-0.2-0.1h-0.1l-0.2,0.1v0.2H22v0.1l0,0h-0.1l-0.2,0.1h-0.2L21.2,37L21,36.9L20.9,37h-0.2l-0.1-0.1v-0.2l0.5-0.4l0.3-0.1
		l0.4-0.4l0.2-0.6l0.1-0.3l0.2-1.1V33l-0.1-0.7l0.1-0.7l-0.1-0.8L22,30.1l-0.2-0.7v-0.8l-0.1-0.3l-0.2-0.2l0,0l0,0L21.4,28l-0.1-0.2
		l-0.2-0.1L21,27.3l-0.2-0.1L20.7,27l-0.2-0.2l-0.1-0.1l-0.1-0.1l-0.2-0.5L20,25.6h-0.2l-0.1-0.1l-0.3-0.2l-0.1-0.2L19.2,25
		l-0.1-0.2v-0.2L19,24.5l-0.1-0.2v0.6l-0.1,0.6l-0.2,0.2l-0.1,0.1h-0.3L18,25.7l-0.1-0.2l-0.1-0.2l-0.1-0.2v-0.2l-0.1-0.4l-0.5-0.2
		L16.8,24l-0.1-0.2l-0.2-0.4l-0.1-0.2l-0.2-0.1H16l-0.4,0.2l-0.2,0.1l-0.2-0.1l-0.1-0.1h-0.3l-0.3-0.1L14.4,23l-0.2,0.1H14l-0.2-0.3
		l0.1-0.3l0.1-0.4l0.3-0.6l0.5-0.4l0.3-0.1l0.3-0.2l1.6-0.2l0.1-0.1h0.2l0.2-0.2l-0.8-0.1h-0.4L16,20.1L15.2,20l-0.4-0.1l-0.3-0.2
		l-0.4-0.5l-0.2-0.3v-0.4V18l0.1-0.3l0.1-0.4l0.1-0.1l0.1-0.2h0.1l-0.1,0.1v0.5V18v0.3l0.2,0.4l0.4,0.3l0.3,0.1L15.1,19l-0.2-0.2
		l-0.2-0.4v-0.5l0.1-0.5v-0.1l0.1-0.1H15v0.1v0.5l0.1,0.5l0.4,0.2l0.1-0.3l-0.1-0.3l-0.2-0.4L15.1,17v-0.6h0.1v0.1l0.1,0.3l0.2,0.5
		l0.1-0.4l0.1-0.1l0.1,0.1v0.8l0.2,0.1l0.2-0.1l0.1-0.4l-0.1-0.5l0.1-0.3v-0.1l0.1,0.1l0.1,0.5l0.2,0.3l0.2,0.2l0.2-0.1v-0.2
		L17,16.8v-0.4h0.2l0.1,0.4l0.1-0.4v-0.3l0.1-0.2l0.2-0.2v0.1V16v0.4v0.4l0.2,0.2l0.3-0.2l0.2-0.3h0.2v0.2l0.1,0.1l0.2-0.1l0.1-0.2
		h0.2l0.1,0.2l0.1,0.1l0.1-0.2h0.2l0.1,0.2l0.1,0.2l0.1-0.2l0.1-0.2l0.2-0.4l0.1-0.1l0.1,0.1l-0.1,0.5l-0.1,0.2h0.4v0.2l-0.1,0.1
		l-0.2,0.2l-0.1,0.1v0.2l0.2-0.1h0.2l0.1,0.5v0.5L20.7,19h0.1l0.1-0.1l0.2-0.5v-0.6l0.1-0.6l0.3-0.5l0.1-0.1l0.1-0.1l-0.1,0.4
		l-0.2,0.6l0.1,0.3l0.1,0.4l0.2-0.1l0.1-0.2l0.2-0.5v-0.6v-0.6v-0.6l0.1-0.6l0.2-0.4l0.2-0.1l0.2-0.1v0.1l-0.1,0.1l-0.2,0.3
		l-0.1,0.4v0.8l0.2,0.8l0.1,0.2l0.1,0.1H23l0.1-0.1l0.3-0.3l0.2-0.3l0.3-0.7l0.3-1.2l0.1-0.2l0.1-0.1l0.1,0.3v0.3l-0.1,0.3L24.2,16
		l-0.1,0.7h0.2l0.2-0.1l0.6-0.7l0.2-0.3v-0.3l0.1-0.4v-0.2l0.1-0.1v0.2l0.1,0.1l0.1,0.4v0.4L25.6,16l0.2-0.1L26,16l-0.1,0.2
		l-0.2,0.1l0.3-0.1h0.2l0.1,0.1l-0.2,0.2l-0.3,0.1l0,0l0.2,0.1h0.1v0.1l-0.2,0.1h-0.2l-0.1,0.2l-0.5,0.3l-0.7,0.4l-1.1,0.5l-0.4,0.2
		l-0.4,0.1l-0.4,0.1l-0.3,0.2l-0.3,0.3L21,19.5l-0.2,0.1l0.1,0.1l0.1,0.1h0.2l0.2,0.1v0.2l0.2,0.1h0.2l0.2-0.1l0.1,0.1h0.2h0.1
		l0.2-0.1h0.1h0.1H23h0.2h0.2v0.1h0.1l0.1,0.1h0.2l0.1,0.1h-0.1l0.5,0.1v0.1h0.1l0.1,0.1l0.1,0.1l-0.1,0.1h0.3l0.1,0.1l-0.1,0.1h0.3
		h0.2v0.1h-0.1h0.1l0,0l0.3,0.2l0.2,0.2l0.8,0.2l1.3,0.2h0.7H29l0.3-0.1H30l1.3,0.1l1.6,0.6l0.5,0.3l0.3,0.4l-0.1,0.2h-0.3l0.3,0.7
		l0.2,0.3l0.1,0.4l-0.2,0.8l-0.2,0.8v0.9l0.2,0.7l0.2,0.3l0.3,0.7l0.4,0.6v0.5l0.1,0.4l0.1,0.4l0.1,0.9l0.1,0.5l0.1,0.4l0.1,0.4
		l0.1,0.9v0.5l0.1,0.4l0.1,0.4l0.1,0.1v0.2l-0.1,0.1h-0.2l-0.2,0.4l-0.3,0.3l-0.4,0.2h-0.2l-0.1-0.1L34,36.4h-0.2l-0.2-0.1v-0.2
		l0.1-0.1l0.5-0.4l0.1-0.6l0.1-0.7l-0.1-0.7v-0.7v-0.3v-0.3L34,31.5l-0.1-0.2l-0.2-0.2l-0.2-0.5l-0.6-0.9l-0.4-0.4L32.2,29L32,28.6
		l-0.4-0.7l-0.2-0.2h-0.1L31,27.5l-0.4,0.7v0.3l0.1,1.3l-0.1,0.7l0.1,0.3v0.3l-0.1,0.2L30.7,31.7z"/>
</g>
</svg>
