<?xml version="1.0" encoding="utf-8"?>
<!-- Generator: Adobe Illustrator 26.4.1, SVG Export Plug-In . SVG Version: 6.00 Build 0)  -->
<svg version="1.1" id="Слой_1" xmlns="http://www.w3.org/2000/svg" xmlns:xlink="http://www.w3.org/1999/xlink" x="0px" y="0px"
	 viewBox="0 0 1254 523" style="enable-background:new 0 0 1254 523;" xml:space="preserve">
<style type="text/css">
	.st0{fill:#D8F3FE;}
	.st1{fill:url(#SVGID_1_);}
	
		.st2{fill:#FFFFFF;stroke:url(#SVGID_00000089533223218704461170000004392921790014111883_);stroke-width:0.3197;stroke-linecap:round;stroke-linejoin:round;}
</style>
<g>
	<circle class="st0" cx="760.8" cy="251.4" r="25"/>
	
		<linearGradient id="SVGID_1_" gradientUnits="userSpaceOnUse" x1="780.8235" y1="507.3765" x2="740.8235" y2="547.3765" gradientTransform="matrix(1 0 0 1 0 -276)">
		<stop  offset="0" style="stop-color:#48F2FA"/>
		<stop  offset="1" style="stop-color:#604AF4"/>
	</linearGradient>
	<circle class="st1" cx="760.8" cy="251.4" r="20"/>
	
		<linearGradient id="SVGID_00000121254029971967797880000010626759720784384137_" gradientUnits="userSpaceOnUse" x1="772.722" y1="517.3167" x2="749.744" y2="539.2947" gradientTransform="matrix(1 0 0 1 0 -276)">
		<stop  offset="0" style="stop-color:#48F2FA"/>
		<stop  offset="1" style="stop-color:#604AF4"/>
	</linearGradient>
	
		<path style="fill:#FFFFFF;stroke:url(#SVGID_00000121254029971967797880000010626759720784384137_);stroke-width:0.3197;stroke-linecap:round;stroke-linejoin:round;" d="
		M766.5,258.1l-0.1,0.2l-0.1,0.2v0.1l-0.1,0.1v0.2l-0.1,0.2l-0.1,0.2l-0.4,1.4l-0.1,0.3l-0.1,0.3v0.1v0.1v0.1l-0.1,0.3l-0.1,0.3v0.3
		v0.2l-0.2,0.1l-0.2-0.2l-0.3,0.4l-0.5,0.2l-0.2,0.2l-0.3-0.1l-0.1-0.1h-0.2H763l-0.1-0.1l0.1-0.2l0.3-0.1l0.5-0.2l0.4-0.3l0.3-0.4
		v-0.1l0.3-0.5v-0.2l0.2-0.5l0.2-0.7l0.1-0.5l0.1-0.5l0.1-0.2v-0.3v-1.2l-0.1-0.6l-0.2-1.7L765,255l-0.5,0.2l-0.3,0.2l-0.8,0.2h-0.9
		H762v0.3l-0.1,0.7v0.6l0.1,0.9v0.5l0.2,0.9v0.4l0.2,0.5l0.2,0.4l0.1,0.4l0.1,0.5l0.2,0.4l0.2,0.4l0.1,0.2l-0.1,0.2l-0.2-0.1
		l-0.1,0.2l-0.1,0.1v0.1l-0.1,0.2l-0.4,0.1h-0.2h-0.2l-0.2-0.1h-0.2l-0.1-0.2l0.1-0.2l0.2-0.1l0.2-0.3l0.2-0.1l0.2-0.3v-0.5
		l-0.1-0.6l-0.1-0.5l-0.1-0.4l-0.1-0.5l-0.1-0.2v-0.1l-0.1-0.1v-0.1l-0.1-0.2l-0.4-0.6l-0.1-0.8l-0.3-1.3l-0.4-0.7l-0.4-0.8
		l-0.1-0.1h-0.2l-0.1,0.1v0.2v0.8l-0.1,0.7l-0.1,0.7l-0.2,0.6l-0.1,0.7l-0.2,0.6l-0.2,0.2l-0.1,0.3v0.1v0.5l-0.1,0.9v1.5v0.2
		l-0.1,0.1l-0.2-0.1h-0.1l-0.2,0.1v0.2h-0.1v0.1l0,0h-0.1l-0.2,0.1h-0.2l-0.3,0.1l-0.2-0.1l-0.1,0.1h-0.2l-0.1-0.1v-0.2l0.5-0.4
		l0.3-0.1l0.4-0.4l0.2-0.6l0.1-0.3l0.2-1.1v-0.8l-0.1-0.7l0.1-0.7l-0.1-0.8l-0.2-0.7l-0.2-0.7V255l-0.1-0.3l-0.2-0.2l0,0l0,0
		l-0.1-0.1l-0.1-0.2l-0.2-0.1l-0.1-0.4l-0.2-0.1l-0.1-0.2l-0.2-0.2l-0.1-0.1l-0.1-0.1l-0.2-0.5l-0.1-0.5h-0.2l-0.1-0.1l-0.3-0.2
		l-0.1-0.2l-0.1-0.1l-0.1-0.2V251l-0.1-0.1l-0.1-0.2v0.6l-0.1,0.6l-0.2,0.2l-0.1,0.1H754l-0.2-0.1l-0.1-0.2l-0.1-0.2l-0.1-0.2v-0.2
		l-0.1-0.4l-0.5-0.2l-0.3-0.3l-0.1-0.2l-0.2-0.4l-0.1-0.2l-0.2-0.1h-0.2l-0.4,0.2l-0.2,0.1l-0.2-0.1l-0.1-0.1h-0.3l-0.3-0.1
		l-0.1-0.1l-0.2,0.1h-0.2l-0.2-0.3l0.1-0.3l0.1-0.4l0.3-0.6l0.5-0.4l0.3-0.1l0.3-0.2l1.6-0.2l0.1-0.1h0.2l0.2-0.2l-0.8-0.1h-0.4
		l-0.3-0.1l-0.8-0.1l-0.4-0.1l-0.3-0.2l-0.4-0.5l-0.2-0.3v-0.4v-0.5l0.1-0.3l0.1-0.4l0.1-0.1l0.1-0.2h0.1l-0.1,0.1v0.5v0.4v0.3
		l0.2,0.4l0.4,0.3l0.3,0.1l-0.1-0.1l-0.2-0.2l-0.2-0.4v-0.5l0.1-0.5v-0.1l0.1-0.1h0.1v0.1v0.5l0.1,0.5l0.4,0.2l0.1-0.3l-0.1-0.3
		l-0.2-0.4l-0.2-0.5v-0.6h0.1v0.1l0.1,0.3l0.2,0.5l0.1-0.4l0.1-0.1l0.1,0.1v0.8l0.2,0.1l0.2-0.1l0.1-0.4l-0.1-0.5l0.1-0.3v-0.1
		l0.1,0.1l0.1,0.5l0.2,0.3l0.2,0.2l0.2-0.1v-0.2l-0.1-0.4v-0.4h0.2l0.1,0.4l0.1-0.4v-0.3l0.1-0.2l0.2-0.2v0.1v0.2v0.4v0.4l0.2,0.2
		l0.3-0.2l0.2-0.3h0.2v0.2l0.1,0.1l0.2-0.1l0.1-0.2h0.2l0.1,0.2l0.1,0.1l0.1-0.2h0.2l0.1,0.2l0.1,0.2l0.1-0.2l0.1-0.2l0.2-0.4
		l0.1-0.1l0.1,0.1l-0.1,0.5l-0.1,0.2h0.4v0.2l-0.1,0.1l-0.2,0.2l-0.1,0.1v0.2l0.2-0.1h0.2l0.1,0.5v0.5l-0.1,0.4h0.1l0.1-0.1l0.2-0.5
		v-0.6l0.1-0.6l0.3-0.5l0.1-0.1l0.1-0.1l-0.1,0.4l-0.2,0.6l0.1,0.3l0.1,0.4l0.2-0.1l0.1-0.2l0.2-0.5v-0.6v-0.6V242l0.1-0.6l0.2-0.4
		l0.2-0.1l0.2-0.1v0.1l-0.1,0.1l-0.2,0.3l-0.1,0.4v0.8l0.2,0.8l0.1,0.2l0.1,0.1h0.2l0.1-0.1l0.3-0.3l0.2-0.3l0.3-0.7l0.3-1.2
		l0.1-0.2l0.1-0.1l0.1,0.3v0.3l-0.1,0.3l-0.2,0.8l-0.1,0.7h0.2l0.2-0.1l0.6-0.7l0.2-0.3v-0.3l0.1-0.4v-0.2l0.1-0.1v0.2l0.1,0.1
		l0.1,0.4v0.4l-0.1,0.3l0.2-0.1l0.2,0.1l-0.1,0.2l-0.2,0.1l0.3-0.1h0.2l0.1,0.1l-0.2,0.2l-0.3,0.1l0,0l0.2,0.1h0.1v0.1l-0.2,0.1
		h-0.2l-0.1,0.2l-0.5,0.3l-0.7,0.4l-1.1,0.5l-0.4,0.2l-0.4,0.1l-0.4,0.1l-0.3,0.2l-0.3,0.3l-0.5,0.3l-0.2,0.1l0.1,0.1l0.1,0.1h0.2
		l0.2,0.1v0.2l0.2,0.1h0.2l0.2-0.1l0.1,0.1h0.2h0.1l0.2-0.1h0.1h0.1h0.2h0.2h0.2v0.1h0.1l0.1,0.1h0.2l0.1,0.1h-0.1l0.5,0.1v0.1h0.1
		l0.1,0.1l0.1,0.1l-0.1,0.1h0.3l0.1,0.1l-0.1,0.1h0.3h0.2v0.1H761h0.1l0,0l0.3,0.2l0.2,0.2l0.8,0.2l1.3,0.2h0.7h0.4l0.3-0.1h0.7
		l1.3,0.1l1.6,0.6l0.5,0.3l0.3,0.4l-0.1,0.2h-0.3l0.3,0.7l0.2,0.3l0.1,0.4l-0.2,0.8l-0.2,0.8v0.9l0.2,0.7l0.2,0.3l0.3,0.7l0.4,0.6
		v0.5l0.1,0.4l0.1,0.4l0.1,0.9l0.1,0.5l0.1,0.4l0.1,0.4l0.1,0.9v0.5l0.1,0.4l0.1,0.4l0.1,0.1v0.2l-0.1,0.1h-0.2l-0.2,0.4l-0.3,0.3
		l-0.4,0.2H770l-0.1-0.1l-0.1-0.2h-0.2l-0.2-0.1v-0.2l0.1-0.1l0.5-0.4l0.1-0.6l0.1-0.7l-0.1-0.7v-0.7V259v-0.3l-0.3-0.8l-0.1-0.2
		l-0.2-0.2l-0.2-0.5l-0.6-0.9l-0.4-0.4l-0.3-0.3l-0.2-0.4l-0.4-0.7l-0.2-0.2h-0.1l-0.3-0.2l-0.4,0.7v0.3l0.1,1.3l-0.1,0.7l0.1,0.3
		v0.3l-0.1,0.2L766.5,258.1z"/>
</g>
</svg>
