<?xml version="1.0" encoding="utf-8"?>
<!-- Generator: Adobe Illustrator 26.4.1, SVG Export Plug-In . SVG Version: 6.00 Build 0)  -->
<svg version="1.1" id="Слой_1" xmlns="http://www.w3.org/2000/svg" xmlns:xlink="http://www.w3.org/1999/xlink" x="0px" y="0px"
	 viewBox="0 0 50 50" style="enable-background:new 0 0 50 50;" xml:space="preserve">
<style type="text/css">
	.st0{fill:#D8F3FE;}
	.st1{fill:url(#SVGID_1_);}
	.st2{fill:#FFFFFF;stroke:#FFFFFF;stroke-width:0.3197;stroke-linecap:round;stroke-linejoin:round;}
</style>
<g>
	<circle class="st0" cx="25" cy="25" r="25"/>
	
		<linearGradient id="SVGID_1_" gradientUnits="userSpaceOnUse" x1="45.0095" y1="-61.3905" x2="5.0095" y2="-101.3905" gradientTransform="matrix(1 0 0 -1 0 -56.4)">
		<stop  offset="0" style="stop-color:#48F2FA"/>
		<stop  offset="1" style="stop-color:#604AF4"/>
	</linearGradient>
	<circle class="st1" cx="25" cy="25" r="20"/>
	<path class="st2" d="M15.4,18.3l0.9-0.8l2.4-1h0.2v0.1v0.1h0.2l0.1-0.1l0,0h0.3h0.2l0.1,0.1l0.2,0.1l0.5,0.2h0.1h0.1h0.1h0.4
		l0.5-0.2l0.8-0.2l1.4,0.1l0.9,0.3l0.7,0.5l0.4,0.3l0.2,0.3l0.2,0.3l0.5,0.2l0.5,0.1h0.5l0.9-0.2l1.3-0.2h1l0.8,0.2l0.7,0.4l0.6,0.5
		l0.5,0.7l1.1,1.7l0.4,0.9l0.2,0.9l-0.1,0.8L34.7,26l-0.3,0.8l-0.1,0.8L34,28.4l-0.4,0.7l-0.3,0.3l-0.2,0.1l-0.2,0.2l-0.2,0.2
		l-0.3-0.5l-0.2,0.3L32,29.8l-0.2,0.1l-0.2,0.2l-0.2,0.5l-0.1,0.6l-0.2,0.6L30.9,32l-0.4,0.2l-0.6,0.2l-0.6-0.2l0.4-0.9l0.5-0.8
		l0.4-0.8l0.1-0.4l-0.1-0.5l-1.3,1.8L29,30.9l-0.4,0.2l-0.8,0.1l-0.4-0.1L27.2,31l0.1-0.3l0.4-0.5l0.5-0.4l0.5-0.4L29,29h-0.2
		l-0.1,0.1h-0.1l-0.1-0.4L28.4,29l-0.3,0.2L28,29.3v-0.1h-0.1l-0.3,0.1l-0.1-0.1l-0.1-0.3l-0.1,0.6l-0.2-0.3h-0.3l-0.3,0.2l-0.2-0.5
		l-0.2,0.2l-0.3,0.1l-0.1-0.3h-0.1h-0.1h-0.1L25.2,29l-0.3,0.1h-0.1L24.6,29l-0.1-0.3l-0.2,0.6l-0.5-0.1l-0.2,0.1l-0.4,0.1l-0.1-0.7
		l-0.2,0.7L22.6,29l-0.1,0.5l-0.1-0.1h-0.2l-0.4,1l-0.5,0.5L21,31h-0.4h-0.3l-0.2-0.1L20,30.6l-0.3,0.6l-0.4,0.3l-0.8,0.3h-0.4
		l-0.4-0.3l0.6-1l0.6-0.9l0.5-0.8l0.1-0.9l-0.3-0.3L19,28.3l-0.2,0.3l-0.2,0.2l-0.3,0.1L18,29l-0.2,0.3l-0.1-0.2v-0.4l-0.3,0.6
		l-0.2,0.2l-0.1,0.1l-0.2-0.3l-0.2-0.2l-0.2,0.1l-0.3,0.1l-0.4-0.2l-0.2-0.4v-0.6l-0.2,0.5L15,28.4v-0.2l-0.1-0.3l-0.3-0.3l-0.3-0.5
		l-0.2-0.7V26l0.2-1.1l-0.4-0.1l-0.5-0.3l-0.3-0.3L13,23.9v-0.4l0.2-0.8l0.3-1L13,21.3l-0.2-0.6v-0.3l0.2,0.2l0.2,0.3l0.2,0.2
		l0.3,0.1l-0.1-0.8V20l0.1-0.3l0.1-0.1l0.2-0.1L15.4,18.3z"/>
</g>
</svg>
