<?xml version="1.0" encoding="utf-8"?>
<!-- Generator: Adobe Illustrator 26.4.1, SVG Export Plug-In . SVG Version: 6.00 Build 0)  -->
<svg version="1.1" id="Слой_1" xmlns="http://www.w3.org/2000/svg" xmlns:xlink="http://www.w3.org/1999/xlink" x="0px" y="0px"
	 viewBox="0 0 1254 523" style="enable-background:new 0 0 1254 523;" xml:space="preserve">
<style type="text/css">
	.st0{fill:#D8F3FE;}
	.st1{fill:url(#SVGID_1_);}
	.st2{fill:#FFFFFF;stroke:#FFFFFF;stroke-width:0.3197;stroke-linecap:round;stroke-linejoin:round;}
</style>
<g>
	<circle class="st0" cx="857.4" cy="177.2" r="25"/>
	
		<linearGradient id="SVGID_1_" gradientUnits="userSpaceOnUse" x1="877.4095" y1="433.1905" x2="837.4095" y2="473.1905" gradientTransform="matrix(1 0 0 1 0 -276)">
		<stop  offset="0" style="stop-color:#48F2FA"/>
		<stop  offset="1" style="stop-color:#604AF4"/>
	</linearGradient>
	<circle class="st1" cx="857.4" cy="177.2" r="20"/>
	<path class="st2" d="M847.8,170.5l0.9-0.8l2.4-1h0.2v0.1v0.1h0.2l0.1-0.1l0,0h0.3h0.2l0.1,0.1l0.2,0.1l0.5,0.2h0.1h0.1h0.1h0.4
		l0.5-0.2l0.8-0.2l1.4,0.1l0.9,0.3l0.7,0.5l0.4,0.3l0.2,0.3l0.2,0.3l0.5,0.2l0.5,0.1h0.5l0.9-0.2l1.3-0.2h1l0.8,0.2l0.7,0.4l0.6,0.5
		l0.5,0.7l1.1,1.7l0.4,0.9l0.2,0.9l-0.1,0.8l-0.5,1.6l-0.3,0.8l-0.1,0.8l-0.3,0.8l-0.4,0.7l-0.3,0.3l-0.2,0.1l-0.2,0.2l-0.2,0.2
		l-0.3-0.5l-0.2,0.3l-0.2,0.1l-0.2,0.1l-0.2,0.2l-0.2,0.5l-0.1,0.6l-0.2,0.6l-0.2,0.2l-0.4,0.2l-0.6,0.2l-0.6-0.2l0.4-0.9l0.5-0.8
		l0.4-0.8l0.1-0.4L863,181l-1.3,1.8l-0.3,0.3l-0.4,0.2l-0.8,0.1l-0.4-0.1l-0.2-0.1l0.1-0.3l0.4-0.5l0.5-0.4l0.5-0.4l0.3-0.4h-0.2
		l-0.1,0.1H861l-0.1-0.4l-0.1,0.3l-0.3,0.2l-0.1,0.1v-0.1h-0.1l-0.3,0.1l-0.1-0.1l-0.1-0.3l-0.1,0.6l-0.2-0.3h-0.3l-0.3,0.2
		l-0.2-0.5l-0.2,0.2l-0.3,0.1l-0.1-0.3H858h-0.1h-0.1l-0.2,0.1l-0.3,0.1h-0.1l-0.2-0.1l-0.1-0.3l-0.2,0.6l-0.5-0.1l-0.2,0.1
		l-0.4,0.1l-0.1-0.7l-0.2,0.7l-0.3-0.4l-0.1,0.5l-0.1-0.1h-0.2l-0.4,1l-0.5,0.5l-0.3,0.1H853h-0.3l-0.2-0.1l-0.1-0.3l-0.3,0.6
		l-0.4,0.3l-0.8,0.3h-0.4l-0.4-0.3l0.6-1l0.6-0.9l0.5-0.8l0.1-0.9l-0.3-0.3l-0.2,0.7l-0.2,0.3L851,181l-0.3,0.1l-0.3,0.1l-0.2,0.3
		l-0.1-0.2v-0.4l-0.3,0.6l-0.2,0.2l-0.1,0.1l-0.2-0.3l-0.2-0.2l-0.2,0.1l-0.3,0.1l-0.4-0.2l-0.2-0.4v-0.6l-0.2,0.5l-0.4-0.2v-0.2
		l-0.1-0.3l-0.3-0.3l-0.3-0.5l-0.2-0.7v-0.4l0.2-1.1l-0.4-0.1l-0.5-0.3l-0.3-0.3l-0.1-0.3v-0.4l0.2-0.8l0.3-1l-0.5-0.4l-0.2-0.6
		v-0.3l0.2,0.2l0.2,0.3l0.2,0.2l0.3,0.1l-0.1-0.8v-0.4l0.1-0.3l0.1-0.1l0.2-0.1L847.8,170.5z"/>
</g>
</svg>
