<?xml version="1.0" encoding="utf-8"?>
<!-- Generator: Adobe Illustrator 26.4.1, SVG Export Plug-In . SVG Version: 6.00 Build 0)  -->
<svg version="1.1" id="Слой_1" xmlns="http://www.w3.org/2000/svg" xmlns:xlink="http://www.w3.org/1999/xlink" x="0px" y="0px"
	 viewBox="0 0 50 50" style="enable-background:new 0 0 50 50;" xml:space="preserve">
<style type="text/css">
	.st0{fill:#D8F3FE;}
	.st1{fill:url(#SVGID_1_);}
	.st2{fill:#FFFFFF;}
</style>
<g>
	<circle class="st0" cx="25" cy="25" r="25"/>
	
		<linearGradient id="SVGID_1_" gradientUnits="userSpaceOnUse" x1="44.993" y1="557.007" x2="4.993" y2="597.007" gradientTransform="matrix(1 0 0 1 0 -552)">
		<stop  offset="0" style="stop-color:#48F2FA"/>
		<stop  offset="1" style="stop-color:#604AF4"/>
	</linearGradient>
	<circle class="st1" cx="25" cy="25" r="20"/>
	<path class="st2" d="M24.7,20.8l0.6-0.3l0.7-0.2l0.7-0.2l0.8-0.1h0.7l0.8,0.1l0.7,0.2l0.7,0.3l1.3,0.7l0.6,0.4l0.4,0.5l0.4,0.5
		l0.4,0.5l0.2,0.5l0.3,0.5l0.4,0.5l0.8,0.9l0.6,1.1l0.2,0.8v0.6l-0.2,0.7l-0.3,0.5l-0.1,0.1l-0.2,0.2L35,29.8l0,0l-0.1,0.1L34.8,30
		h-0.1h-0.1l-0.1,0.1L34,30.4l-0.2,0.1l-0.5,0.1l-0.5,0.1l-1,0.1h-0.5h-0.7l-0.9-0.1l-0.8-0.1l-0.6-0.1l-0.5-0.1l-0.5-0.1l-0.5-0.1
		h-0.5l-0.5-0.1h-0.5h-0.8h-0.2l-0.8,0.1h-0.7v-0.1l0.5-0.3l0.6-0.2l0.7-0.2l0.7-0.1l0.5-0.1h0.5h0.1h0.8h0.5h0.5l0.5,0.1l0.6,0.1
		h0.2h0.9h0.9l0.4-0.1l0.5-0.1l0.4-0.2l0.3-0.2l0.3-0.3l0.1-0.2V28l-0.2-0.6L32.7,27l-0.6-0.2h-0.4l-0.3,0.1l-0.2,0.2l-0.6,0.3
		l-0.3,0.2l-0.2,0.2L29.9,28l-0.2,0.1l-0.1,0.1v-0.1V28l-0.3,0.1l-0.2,0.1L29,28.3l-0.1-0.4L28.7,28l-0.4,0.2l0.2-0.5l-0.4,0.2
		l0.1-0.4l0.2-0.3l0.1-0.2l0.1-0.2l-0.2-0.3l-0.2-0.2l-0.3-0.2L27.7,26h-0.2l-0.3-0.1h-0.5h-1l-0.8-0.1h-0.7L23.5,26l-0.7,0.1
		l-0.3,0.1l-0.2,0.2l-0.4,0.3l-0.5,0.2L21,27.2l-0.3,0.4l-0.2,0.2l-0.1-0.1l-0.1-0.2l-0.4,0.2v-0.2l0.1-0.2h-0.2l-0.2,0.1l0.1-0.3
		l0.1-0.2h-0.2l0.1-0.2l0.2-0.1l0.5-0.1h0.3l0.2-0.1l0.1-0.5l-0.3,0.2l-0.4,0.1l-0.4,0.1h-0.4V26l-0.3,0.1l-0.4,0.1l0.1-0.3h-0.3
		l0.1-0.2l0.1-0.2l-0.2-0.1l0.2-0.1H19l0.2-0.1l0.2-0.1l0.4-0.1h0.5l-0.5-0.4l-0.5-0.5l-0.5-0.5l-0.3-0.2l-0.3-0.1l0.4,0.4l0.2,0.2
		l0.1,0.2l-0.4-0.4l-0.4-0.3l0.3,0.4l0.3,0.4L18,23.6l0.3,0.3l0.4,0.5L18.3,24l-0.5-0.4l0.1,0.1l-0.1-0.1l-0.1-0.1l0.5,0.7L18,24
		l-0.3-0.4l0.2,0.4l-0.2-0.2l-0.2-0.2l0.1,0.3l-0.2-0.3h-0.3l-0.7,0.1H16l-0.3-0.2l-0.1-0.2h-0.2l-0.3,0.1l0.3-0.2l-0.8,0.2l0.5-0.2
		l0,0l0,0l-0.7,0.2l-0.6,0.3l0.3-0.2l1.1-0.4h-0.5l0.4-0.1h-0.3l-0.5,0.1l-0.7,0.3l0.3-0.2l0.4-0.1L15,23l-0.5-0.1l0.4-0.1h-0.2H15
		h0.3l0.1-0.2v-0.5l0.1-0.5l0.3-0.3l0.3-0.3l0.1-0.2l0.2-0.1l0,0l0.3-0.1h0.4l0.3-0.1l0.5-0.1h0.5l0.4,0.1l0.6,0.1l0.5,0.1l0.5,0.2
		l0.6,0.2l0.4,0.2l0.2,0.1h0.3h0.5l0.4,0.1l0.2,0.1h0.3l0.5-0.3L24.7,20.8z"/>
</g>
</svg>
