<?xml version="1.0" encoding="utf-8"?>
<!-- Generator: Adobe Illustrator 26.4.1, SVG Export Plug-In . SVG Version: 6.00 Build 0)  -->
<svg version="1.1" id="Слой_1" xmlns="http://www.w3.org/2000/svg" xmlns:xlink="http://www.w3.org/1999/xlink" x="0px" y="0px"
	 viewBox="0 0 1254 523" style="enable-background:new 0 0 1254 523;" xml:space="preserve">
<style type="text/css">
	.st0{fill:#D8F3FE;}
	.st1{fill:url(#SVGID_1_);}
	.st2{fill:#FFFFFF;}
	.st3{fill:url(#SVGID_00000069391793169923994090000005490595353146504118_);}
	.st4{fill:url(#SVGID_00000001634688921800003780000002075051511358762132_);}
</style>
<g>
	<circle class="st0" cx="844.3" cy="289.4" r="25"/>
	
		<linearGradient id="SVGID_1_" gradientUnits="userSpaceOnUse" x1="864.293" y1="545.407" x2="824.293" y2="585.407" gradientTransform="matrix(1 0 0 1 0 -276)">
		<stop  offset="0" style="stop-color:#48F2FA"/>
		<stop  offset="1" style="stop-color:#604AF4"/>
	</linearGradient>
	<circle class="st1" cx="844.3" cy="289.4" r="20"/>
	<path class="st2" d="M844,285.2l0.6-0.3l0.7-0.2l0.7-0.2l0.8-0.1h0.7l0.8,0.1l0.7,0.2l0.7,0.3l1.3,0.7l0.6,0.4l0.4,0.5l0.4,0.5
		l0.4,0.5l0.2,0.5l0.3,0.5l0.4,0.5l0.8,0.9l0.6,1.1l0.2,0.8v0.6l-0.2,0.7l-0.3,0.5l-0.1,0.1l-0.2,0.2l-0.2,0.2l0,0l-0.1,0.1
		l-0.1,0.1H854h-0.1l-0.1,0.1l-0.5,0.3l-0.2,0.1l-0.5,0.1l-0.5,0.1l-1,0.1h-0.5h-0.7l-0.9-0.1l-0.8-0.1l-0.6-0.1l-0.5-0.1l-0.5-0.1
		l-0.5-0.1h-0.5l-0.5-0.1h-0.5h-0.8h-0.2l-0.8,0.1h-0.7v-0.1l0.5-0.3l0.6-0.2l0.7-0.2l0.7-0.1l0.5-0.1h0.5h0.1h0.8h0.5h0.5l0.5,0.1
		l0.6,0.1h0.2h0.9h0.9l0.4-0.1l0.5-0.1l0.4-0.2l0.3-0.2l0.3-0.3l0.1-0.2v-0.3l-0.2-0.6l-0.4-0.4l-0.6-0.2H851l-0.3,0.1l-0.2,0.2
		l-0.6,0.3l-0.3,0.2l-0.2,0.2l-0.2,0.2l-0.2,0.1l-0.1,0.1v-0.1v-0.1l-0.3,0.1l-0.2,0.1l-0.1,0.1l-0.1-0.4l-0.2,0.1l-0.4,0.2l0.2-0.5
		l-0.4,0.2l0.1-0.4l0.2-0.3l0.1-0.2l0.1-0.2l-0.2-0.3l-0.2-0.2l-0.3-0.2l-0.2-0.1h-0.2l-0.3-0.1H846h-1l-0.8-0.1h-0.7l-0.7,0.2
		l-0.7,0.1l-0.3,0.1l-0.2,0.2l-0.4,0.3l-0.5,0.2l-0.4,0.3L840,292l-0.2,0.2l-0.1-0.1l-0.1-0.2l-0.4,0.2v-0.2l0.1-0.2h-0.2l-0.2,0.1
		l0.1-0.3l0.1-0.2h-0.2l0.1-0.2l0.2-0.1l0.5-0.1h0.3l0.2-0.1l0.1-0.5l-0.3,0.2l-0.4,0.1l-0.4,0.1h-0.4v-0.3l-0.3,0.1l-0.4,0.1
		l0.1-0.3h-0.3l0.1-0.2l0.1-0.2l-0.2-0.1l0.2-0.1h0.2l0.2-0.1l0.2-0.1l0.4-0.1h0.5l-0.5-0.4l-0.5-0.5l-0.5-0.5l-0.3-0.2l-0.3-0.1
		l0.4,0.4l0.2,0.2l0.1,0.2l-0.4-0.4l-0.4-0.3l0.3,0.4l0.3,0.4l-0.7-0.6l0.3,0.3l0.4,0.5l-0.4-0.4l-0.5-0.4l0.1,0.1l-0.1-0.1
		l-0.1-0.1l0.5,0.7l-0.2-0.2L837,288l0.2,0.4l-0.2-0.2l-0.2-0.2l0.1,0.3l-0.2-0.3h-0.3l-0.7,0.1h-0.4l-0.3-0.2l-0.1-0.2h-0.2
		l-0.3,0.1l0.3-0.2l-0.8,0.2l0.5-0.2l0,0l0,0l-0.7,0.2l-0.6,0.3l0.3-0.2l1.1-0.4H834l0.4-0.1h-0.3l-0.5,0.1l-0.7,0.3l0.3-0.2
		l0.4-0.1l0.7-0.1l-0.5-0.1l0.4-0.1H834h0.3h0.3l0.1-0.2v-0.5l0.1-0.5l0.3-0.3l0.3-0.3l0.1-0.2l0.2-0.1l0,0l0.3-0.1h0.4l0.3-0.1
		l0.5-0.1h0.5l0.4,0.1l0.6,0.1l0.5,0.1l0.5,0.2l0.6,0.2l0.4,0.2l0.2,0.1h0.3h0.5l0.4,0.1l0.2,0.1h0.3l0.5-0.3L844,285.2z"/>
	<circle class="st0" cx="844.3" cy="289.4" r="25"/>
	
		<linearGradient id="SVGID_00000097460027981674385440000001683587112741605543_" gradientUnits="userSpaceOnUse" x1="864.293" y1="545.407" x2="824.293" y2="585.407" gradientTransform="matrix(1 0 0 1 0 -276)">
		<stop  offset="0" style="stop-color:#48F2FA"/>
		<stop  offset="1" style="stop-color:#604AF4"/>
	</linearGradient>
	<circle style="fill:url(#SVGID_00000097460027981674385440000001683587112741605543_);" cx="844.3" cy="289.4" r="20"/>
	<path class="st2" d="M844,285.2l0.6-0.3l0.7-0.2l0.7-0.2l0.8-0.1h0.7l0.8,0.1l0.7,0.2l0.7,0.3l1.3,0.7l0.6,0.4l0.4,0.5l0.4,0.5
		l0.4,0.5l0.2,0.5l0.3,0.5l0.4,0.5l0.8,0.9l0.6,1.1l0.2,0.8v0.6l-0.2,0.7l-0.3,0.5l-0.1,0.1l-0.2,0.2l-0.2,0.2l0,0l-0.1,0.1
		l-0.1,0.1H854h-0.1l-0.1,0.1l-0.5,0.3l-0.2,0.1l-0.5,0.1l-0.5,0.1l-1,0.1h-0.5h-0.7l-0.9-0.1l-0.8-0.1l-0.6-0.1l-0.5-0.1l-0.5-0.1
		l-0.5-0.1h-0.5l-0.5-0.1h-0.5h-0.8h-0.2l-0.8,0.1h-0.7v-0.1l0.5-0.3l0.6-0.2l0.7-0.2l0.7-0.1l0.5-0.1h0.5h0.1h0.8h0.5h0.5l0.5,0.1
		l0.6,0.1h0.2h0.9h0.9l0.4-0.1l0.5-0.1l0.4-0.2l0.3-0.2l0.3-0.3l0.1-0.2v-0.3l-0.2-0.6l-0.4-0.4l-0.6-0.2H851l-0.3,0.1l-0.2,0.2
		l-0.6,0.3l-0.3,0.2l-0.2,0.2l-0.2,0.2l-0.2,0.1l-0.1,0.1v-0.1v-0.1l-0.3,0.1l-0.2,0.1l-0.1,0.1l-0.1-0.4l-0.2,0.1l-0.4,0.2l0.2-0.5
		l-0.4,0.2l0.1-0.4l0.2-0.3l0.1-0.2l0.1-0.2l-0.2-0.3l-0.2-0.2l-0.3-0.2l-0.2-0.1h-0.2l-0.3-0.1H846h-1l-0.8-0.1h-0.7l-0.7,0.2
		l-0.7,0.1l-0.3,0.1l-0.2,0.2l-0.4,0.3l-0.5,0.2l-0.4,0.3L840,292l-0.2,0.2l-0.1-0.1l-0.1-0.2l-0.4,0.2v-0.2l0.1-0.2h-0.2l-0.2,0.1
		l0.1-0.3l0.1-0.2h-0.2l0.1-0.2l0.2-0.1l0.5-0.1h0.3l0.2-0.1l0.1-0.5l-0.3,0.2l-0.4,0.1l-0.4,0.1h-0.4v-0.3l-0.3,0.1l-0.4,0.1
		l0.1-0.3h-0.3l0.1-0.2l0.1-0.2l-0.2-0.1l0.2-0.1h0.2l0.2-0.1l0.2-0.1l0.4-0.1h0.5l-0.5-0.4l-0.5-0.5l-0.5-0.5l-0.3-0.2l-0.3-0.1
		l0.4,0.4l0.2,0.2l0.1,0.2l-0.4-0.4l-0.4-0.3l0.3,0.4l0.3,0.4l-0.7-0.6l0.3,0.3l0.4,0.5l-0.4-0.4l-0.5-0.4l0.1,0.1l-0.1-0.1
		l-0.1-0.1l0.5,0.7l-0.2-0.2L837,288l0.2,0.4l-0.2-0.2l-0.2-0.2l0.1,0.3l-0.2-0.3h-0.3l-0.7,0.1h-0.4l-0.3-0.2l-0.1-0.2h-0.2
		l-0.3,0.1l0.3-0.2l-0.8,0.2l0.5-0.2l0,0l0,0l-0.7,0.2l-0.6,0.3l0.3-0.2l1.1-0.4H834l0.4-0.1h-0.3l-0.5,0.1l-0.7,0.3l0.3-0.2
		l0.4-0.1l0.7-0.1l-0.5-0.1l0.4-0.1H834h0.3h0.3l0.1-0.2v-0.5l0.1-0.5l0.3-0.3l0.3-0.3l0.1-0.2l0.2-0.1l0,0l0.3-0.1h0.4l0.3-0.1
		l0.5-0.1h0.5l0.4,0.1l0.6,0.1l0.5,0.1l0.5,0.2l0.6,0.2l0.4,0.2l0.2,0.1h0.3h0.5l0.4,0.1l0.2,0.1h0.3l0.5-0.3L844,285.2z"/>
	<circle class="st0" cx="844.3" cy="289.4" r="25"/>
	
		<linearGradient id="SVGID_00000173160222377186272810000005420751693941484434_" gradientUnits="userSpaceOnUse" x1="864.293" y1="545.407" x2="824.293" y2="585.407" gradientTransform="matrix(1 0 0 1 0 -276)">
		<stop  offset="0" style="stop-color:#48F2FA"/>
		<stop  offset="1" style="stop-color:#604AF4"/>
	</linearGradient>
	<circle style="fill:url(#SVGID_00000173160222377186272810000005420751693941484434_);" cx="844.3" cy="289.4" r="20"/>
	<path class="st2" d="M844,285.2l0.6-0.3l0.7-0.2l0.7-0.2l0.8-0.1h0.7l0.8,0.1l0.7,0.2l0.7,0.3l1.3,0.7l0.6,0.4l0.4,0.5l0.4,0.5
		l0.4,0.5l0.2,0.5l0.3,0.5l0.4,0.5l0.8,0.9l0.6,1.1l0.2,0.8v0.6l-0.2,0.7l-0.3,0.5l-0.1,0.1l-0.2,0.2l-0.2,0.2l0,0l-0.1,0.1
		l-0.1,0.1H854h-0.1l-0.1,0.1l-0.5,0.3l-0.2,0.1l-0.5,0.1l-0.5,0.1l-1,0.1h-0.5h-0.7l-0.9-0.1l-0.8-0.1l-0.6-0.1l-0.5-0.1l-0.5-0.1
		l-0.5-0.1h-0.5l-0.5-0.1h-0.5h-0.8h-0.2l-0.8,0.1h-0.7v-0.1l0.5-0.3l0.6-0.2l0.7-0.2l0.7-0.1l0.5-0.1h0.5h0.1h0.8h0.5h0.5l0.5,0.1
		l0.6,0.1h0.2h0.9h0.9l0.4-0.1l0.5-0.1l0.4-0.2l0.3-0.2l0.3-0.3l0.1-0.2v-0.3l-0.2-0.6l-0.4-0.4l-0.6-0.2H851l-0.3,0.1l-0.2,0.2
		l-0.6,0.3l-0.3,0.2l-0.2,0.2l-0.2,0.2l-0.2,0.1l-0.1,0.1v-0.1v-0.1l-0.3,0.1l-0.2,0.1l-0.1,0.1l-0.1-0.4l-0.2,0.1l-0.4,0.2l0.2-0.5
		l-0.4,0.2l0.1-0.4l0.2-0.3l0.1-0.2l0.1-0.2l-0.2-0.3l-0.2-0.2l-0.3-0.2l-0.2-0.1h-0.2l-0.3-0.1H846h-1l-0.8-0.1h-0.7l-0.7,0.2
		l-0.7,0.1l-0.3,0.1l-0.2,0.2l-0.4,0.3l-0.5,0.2l-0.4,0.3L840,292l-0.2,0.2l-0.1-0.1l-0.1-0.2l-0.4,0.2v-0.2l0.1-0.2h-0.2l-0.2,0.1
		l0.1-0.3l0.1-0.2h-0.2l0.1-0.2l0.2-0.1l0.5-0.1h0.3l0.2-0.1l0.1-0.5l-0.3,0.2l-0.4,0.1l-0.4,0.1h-0.4v-0.3l-0.3,0.1l-0.4,0.1
		l0.1-0.3h-0.3l0.1-0.2l0.1-0.2l-0.2-0.1l0.2-0.1h0.2l0.2-0.1l0.2-0.1l0.4-0.1h0.5l-0.5-0.4l-0.5-0.5l-0.5-0.5l-0.3-0.2l-0.3-0.1
		l0.4,0.4l0.2,0.2l0.1,0.2l-0.4-0.4l-0.4-0.3l0.3,0.4l0.3,0.4l-0.7-0.6l0.3,0.3l0.4,0.5l-0.4-0.4l-0.5-0.4l0.1,0.1l-0.1-0.1
		l-0.1-0.1l0.5,0.7l-0.2-0.2L837,288l0.2,0.4l-0.2-0.2l-0.2-0.2l0.1,0.3l-0.2-0.3h-0.3l-0.7,0.1h-0.4l-0.3-0.2l-0.1-0.2h-0.2
		l-0.3,0.1l0.3-0.2l-0.8,0.2l0.5-0.2l0,0l0,0l-0.7,0.2l-0.6,0.3l0.3-0.2l1.1-0.4H834l0.4-0.1h-0.3l-0.5,0.1l-0.7,0.3l0.3-0.2
		l0.4-0.1l0.7-0.1l-0.5-0.1l0.4-0.1H834h0.3h0.3l0.1-0.2v-0.5l0.1-0.5l0.3-0.3l0.3-0.3l0.1-0.2l0.2-0.1l0,0l0.3-0.1h0.4l0.3-0.1
		l0.5-0.1h0.5l0.4,0.1l0.6,0.1l0.5,0.1l0.5,0.2l0.6,0.2l0.4,0.2l0.2,0.1h0.3h0.5l0.4,0.1l0.2,0.1h0.3l0.5-0.3L844,285.2z"/>
</g>
</svg>
