<?xml version="1.0" encoding="utf-8"?>
<!-- Generator: Adobe Illustrator 26.4.1, SVG Export Plug-In . SVG Version: 6.00 Build 0)  -->
<svg version="1.1" id="Слой_1" xmlns="http://www.w3.org/2000/svg" xmlns:xlink="http://www.w3.org/1999/xlink" x="0px" y="0px"
	 viewBox="0 0 1254 523" style="enable-background:new 0 0 1254 523;" xml:space="preserve">
<style type="text/css">
	.st0{fill:#4DCDF8;stroke:#BFEDFF;stroke-width:8;}
	.st1{fill:#FFFFFF;}
</style>
<g>
	<path class="st0" d="M29,4h123c12.2,0,22,9.8,22,22v159c0,12.2-9.8,22-22,22H29c-12.2,0-22-9.8-22-22V26C7,13.8,16.8,4,29,4z"/>
	<path class="st1" d="M33.2,89.6V101h-2.1v-9.7h-4.8v9.7h-2.1V89.6H33.2z M37.4,98.1l3.1-5.5h2.1v8.5h-2.1v-5.5l-3.1,5.5h-2.1v-8.5
		h2.1V98.1z M48.5,92.5v8.5h-2.1v-8.5H48.5z M51.2,92.5v1.6h-7.5v-1.6H51.2z M51.8,96.9v-0.2c0-0.6,0.1-1.2,0.3-1.7s0.4-1,0.8-1.4
		c0.3-0.4,0.8-0.7,1.2-0.9c0.5-0.2,1-0.3,1.7-0.3c0.6,0,1.2,0.1,1.7,0.3c0.5,0.2,0.9,0.5,1.2,0.9s0.6,0.8,0.8,1.4
		c0.2,0.5,0.3,1.1,0.3,1.7v0.2c0,0.6-0.1,1.2-0.3,1.7s-0.4,1-0.8,1.4c-0.3,0.4-0.8,0.7-1.2,0.9c-0.5,0.2-1,0.3-1.7,0.3
		c-0.6,0-1.2-0.1-1.7-0.3c-0.5-0.2-0.9-0.5-1.2-0.9s-0.6-0.8-0.8-1.4C51.9,98,51.8,97.5,51.8,96.9z M53.9,96.7v0.2
		c0,0.4,0,0.7,0.1,1s0.2,0.6,0.3,0.9c0.2,0.2,0.3,0.4,0.6,0.6c0.2,0.1,0.5,0.2,0.9,0.2c0.3,0,0.6-0.1,0.9-0.2
		c0.2-0.1,0.4-0.3,0.6-0.6c0.2-0.2,0.3-0.5,0.3-0.9c0.1-0.3,0.1-0.7,0.1-1v-0.2c0-0.4,0-0.7-0.1-1s-0.2-0.6-0.3-0.9
		c-0.2-0.2-0.3-0.4-0.6-0.6c-0.2-0.1-0.5-0.2-0.9-0.2c-0.3,0-0.6,0.1-0.9,0.2c-0.2,0.1-0.4,0.3-0.6,0.6C54.1,95,54,95.3,54,95.7
		C53.9,96,53.9,96.3,53.9,96.7z M66.3,98.6l2.4-6h1.7L67,101h-1.4l-3.4-8.5h1.7L66.3,98.6z M63.4,92.5v8.5h-2.1v-8.5H63.4z
		 M69.2,101v-8.5h2.1v8.5H69.2z M79.1,96v1.6h-4.3V96H79.1z M75.4,92.5v8.5h-2.1v-8.5H75.4z M80.5,92.5v8.5h-2.1v-8.5H80.5z
		 M84.5,98.1l3.1-5.5h2.1v8.5h-2.1v-5.5l-3.1,5.5h-2.1v-8.5h2.1V98.1z M93.7,92.5v8.5h-2.1v-8.5H93.7z M99.2,92.5l-3.7,5.2h-2.2
		L93,95.8h1.5l2.1-3.3C96.6,92.5,99.2,92.5,99.2,92.5z M96.8,101l-2.3-3.6l1.7-1.1l3.3,4.7H96.8z M25.5,111.5l1.5,2.7l1.5-2.7h2.2
		l-2.5,4.1l2.6,4.3h-2.2l-1.6-2.8l-1.6,2.8h-2.2l2.6-4.3l-2.5-4.1H25.5z M34.1,117.1l3.1-5.5h2.1v8.5h-2.1v-5.5l-3.1,5.5H32v-8.5
		h2.1V117.1z M53.9,118.4l-0.1,4.1h-1.9V120h-1v-1.6H53.9z M41.1,111.5h2.1v6.8h2.5v-6.8h2.1v6.8h2.5v-6.8h2.1v8.5H41.1V111.5z
		 M61.1,115v1.6h-4.3V115H61.1z M57.4,111.5v8.5h-2.1v-8.5H57.4z M62.5,111.5v8.5h-2.1v-8.5H62.5z M65.9,114.1h2.5
		c0.8,0,1.4,0.1,1.9,0.4c0.5,0.2,0.9,0.6,1.2,1c0.3,0.4,0.4,0.9,0.4,1.5c0,0.4-0.1,0.8-0.2,1.2c-0.2,0.4-0.4,0.7-0.7,0.9
		c-0.3,0.3-0.7,0.5-1.1,0.6s-0.9,0.2-1.5,0.2h-3.8v-8.5h2.1v6.8h1.7c0.4,0,0.6-0.1,0.9-0.2c0.2-0.1,0.4-0.3,0.5-0.5s0.1-0.4,0.1-0.6
		s0-0.4-0.1-0.6s-0.2-0.4-0.5-0.5c-0.2-0.1-0.5-0.2-0.9-0.2h-2.5V114.1z M75.3,111.5v8.5h-2.1v-8.5H75.3z M79.1,111.5l1.5,2.7
		l1.5-2.7h2.2l-2.5,4.1l2.6,4.3h-2.2l-1.6-2.8L79,120h-2.2l2.6-4.3l-2.5-4.1L79.1,111.5L79.1,111.5z M95.2,111.5v1.6h-4.1v-1.6H95.2
		z M91.6,111.5v8.5h-2.1v-8.5H91.6z M96.8,111.5v8.5h-2.1v-8.5H96.8z M102.7,111.5v8.5h-2.1v-8.5H102.7z M105.5,111.5v1.6H98v-1.6
		H105.5z M108.8,117.1l3.1-5.5h2.1v8.5h-2.1v-5.5l-3.1,5.5h-2.1v-8.5h2.1V117.1z M115.8,120v-8.5h2.1v6.8h3.1v-6.8h2.1v8.5H115.8z
		 M124.2,118.4l-0.1,4.1h-1.9V120h-1v-1.6H124.2z"/>
</g>
</svg>
