<?xml version="1.0" encoding="utf-8"?>
<!-- Generator: Adobe Illustrator 26.4.1, SVG Export Plug-In . SVG Version: 6.00 Build 0)  -->
<svg version="1.1" id="Слой_1" xmlns="http://www.w3.org/2000/svg" xmlns:xlink="http://www.w3.org/1999/xlink" x="0px" y="0px"
	 viewBox="0 0 175.3 211" style="enable-background:new 0 0 175.3 211;" xml:space="preserve">
<style type="text/css">
	.st0{fill:#4DCDF8;stroke:#BFEDFF;stroke-width:8;}
	.st1{fill:#FFFFFF;}
</style>
<g>
	<path class="st0" d="M26.1,4h123c12.2,0,22,9.8,22,22v159c0,12.2-9.8,22-22,22h-123c-12.2,0-22-9.8-22-22V26
		C4.1,13.8,13.9,4,26.1,4z"/>
	<path class="st1" d="M30.3,89.6V101h-2.1v-9.7h-4.8v9.7h-2.1V89.6H30.3z M34.5,98.1l3.1-5.5h2.1v8.5h-2.1v-5.5l-3.1,5.5h-2.1v-8.5
		h2.1V98.1z M45.6,92.5v8.5h-2.1v-8.5H45.6z M48.3,92.5v1.6h-7.5v-1.6H48.3z M48.9,96.9v-0.2c0-0.6,0.1-1.2,0.3-1.7s0.4-1,0.8-1.4
		c0.3-0.4,0.8-0.7,1.2-0.9c0.5-0.2,1-0.3,1.7-0.3c0.6,0,1.2,0.1,1.7,0.3c0.5,0.2,0.9,0.5,1.2,0.9s0.6,0.8,0.8,1.4
		c0.2,0.5,0.3,1.1,0.3,1.7v0.2c0,0.6-0.1,1.2-0.3,1.7s-0.4,1-0.8,1.4c-0.3,0.4-0.8,0.7-1.2,0.9c-0.5,0.2-1,0.3-1.7,0.3
		c-0.6,0-1.2-0.1-1.7-0.3c-0.5-0.2-0.9-0.5-1.2-0.9s-0.6-0.8-0.8-1.4C49,98,48.9,97.5,48.9,96.9z M51,96.7v0.2c0,0.4,0,0.7,0.1,1
		s0.2,0.6,0.3,0.9c0.2,0.2,0.3,0.4,0.6,0.6c0.2,0.1,0.5,0.2,0.9,0.2c0.3,0,0.6-0.1,0.9-0.2c0.2-0.1,0.4-0.3,0.6-0.6
		c0.2-0.2,0.3-0.5,0.3-0.9c0.1-0.3,0.1-0.7,0.1-1v-0.2c0-0.4,0-0.7-0.1-1s-0.2-0.6-0.3-0.9c-0.2-0.2-0.3-0.4-0.6-0.6
		c-0.2-0.1-0.5-0.2-0.9-0.2c-0.3,0-0.6,0.1-0.9,0.2c-0.2,0.1-0.4,0.3-0.6,0.6c-0.2,0.2-0.3,0.5-0.3,0.9C51,96,51,96.3,51,96.7z
		 M63.4,98.6l2.4-6h1.7l-3.4,8.4h-1.4l-3.4-8.5H61L63.4,98.6z M60.5,92.5v8.5h-2.1v-8.5H60.5z M66.3,101v-8.5h2.1v8.5H66.3z
		 M76.2,96v1.6h-4.3V96H76.2z M72.5,92.5v8.5h-2.1v-8.5H72.5z M77.6,92.5v8.5h-2.1v-8.5H77.6z M81.6,98.1l3.1-5.5h2.1v8.5h-2.1v-5.5
		l-3.1,5.5h-2.1v-8.5h2.1V98.1z M90.8,92.5v8.5h-2.1v-8.5H90.8z M96.3,92.5l-3.7,5.2h-2.2l-0.3-1.9h1.5l2.1-3.3H96.3z M93.9,101
		l-2.3-3.6l1.7-1.1l3.3,4.7H93.9z M22.6,111.5l1.5,2.7l1.5-2.7h2.2l-2.5,4.1l2.6,4.3h-2.2l-1.6-2.8l-1.6,2.8h-2.2l2.6-4.3l-2.5-4.1
		H22.6z M31.2,117.1l3.1-5.5h2.1v8.5h-2.1v-5.5l-3.1,5.5h-2.1v-8.5h2.1V117.1z M51,118.4l-0.1,4.1H49V120h-1v-1.6H51z M38.2,111.5
		h2.1v6.8h2.5v-6.8h2.1v6.8h2.5v-6.8h2.1v8.5H38.2V111.5z M58.2,115v1.6h-4.3V115H58.2z M54.5,111.5v8.5h-2.1v-8.5H54.5z
		 M59.6,111.5v8.5h-2.1v-8.5H59.6z M63,114.1h2.5c0.8,0,1.4,0.1,1.9,0.4c0.5,0.2,0.9,0.6,1.2,1c0.3,0.4,0.4,0.9,0.4,1.5
		c0,0.4-0.1,0.8-0.2,1.2c-0.2,0.4-0.4,0.7-0.7,0.9c-0.3,0.3-0.7,0.5-1.1,0.6s-0.9,0.2-1.5,0.2h-3.8v-8.5h2.1v6.8h1.7
		c0.4,0,0.6-0.1,0.9-0.2c0.2-0.1,0.4-0.3,0.5-0.5s0.1-0.4,0.1-0.6s0-0.4-0.1-0.6s-0.2-0.4-0.5-0.5c-0.2-0.1-0.5-0.2-0.9-0.2H63
		V114.1z M72.4,111.5v8.5h-2.1v-8.5H72.4z M76.2,111.5l1.5,2.7l1.5-2.7h2.2l-2.5,4.1l2.6,4.3h-2.2l-1.6-2.8l-1.6,2.9h-2.2l2.6-4.3
		l-2.5-4.1L76.2,111.5L76.2,111.5z M92.3,111.5v1.6h-4.1v-1.6H92.3z M88.7,111.5v8.5h-2.1v-8.5H88.7z M93.9,111.5v8.5h-2.1v-8.5
		H93.9z M99.8,111.5v8.5h-2.1v-8.5H99.8z M102.6,111.5v1.6h-7.5v-1.6H102.6z M105.9,117.1l3.1-5.5h2.1v8.5H109v-5.5l-3.1,5.5h-2.1
		v-8.5h2.1V117.1z M112.9,120v-8.5h2.1v6.8h3.1v-6.8h2.1v8.5H112.9z M121.3,118.4l-0.1,4.1h-1.9V120h-1v-1.6H121.3z"/>
</g>
</svg>
