<?xml version="1.0" encoding="utf-8"?>
<!-- Generator: Adobe Illustrator 26.4.1, SVG Export Plug-In . SVG Version: 6.00 Build 0)  -->
<svg version="1.1" id="Слой_1" xmlns="http://www.w3.org/2000/svg" xmlns:xlink="http://www.w3.org/1999/xlink" x="0px" y="0px"
	 viewBox="0 0 50 50" style="enable-background:new 0 0 50 50;" xml:space="preserve">
<style type="text/css">
	.st0{fill:#D8F3FE;}
	.st1{fill:url(#SVGID_1_);}
	.st2{fill:#FFFFFF;}
</style>
<g>
	<circle class="st0" cx="25" cy="25" r="25"/>
	
		<linearGradient id="SVGID_1_" gradientUnits="userSpaceOnUse" x1="45" y1="91" x2="5" y2="51" gradientTransform="matrix(1 0 0 -1 0 96)">
		<stop  offset="0" style="stop-color:#48F2FA"/>
		<stop  offset="1" style="stop-color:#604AF4"/>
	</linearGradient>
	<circle class="st1" cx="25" cy="25" r="20"/>
	<path class="st2" d="M20.7,21.1l1.6,0.1h1.5H24h0.1L25,21l1.8-0.5L26.5,20l-0.1-0.1l-0.2-0.7L26,19.1L25.5,19l-0.3-0.1L25,18.7
		v-0.2h0.1l0.3,0.1h0.4l0.3-0.1l0.1-0.5l0.2-0.4l0.3-0.5l0.2-0.3l0,0l0,0v-0.1l0.1-0.1l0.3-0.2l0.5-0.4l0.2-0.1l0.4-0.1l0.3-0.2h0.7
		h0.4l0.5,0.1l0.4,0.1h0.1L31,16l0.3,0.1l0.3,0.2h0.2l0.2,0.1l0.2,0.2l0.1-0.2l0.3-0.3l0.2-0.2l0.4-0.1l0.4-0.1H34l0.7,0.3l0.1,0.1
		l0.1,0.1l0.3,0.9l-0.1,1v0.1L35,18.3l-0.2,0.6l-0.1,0.3l0.2,0.3h0.4l0.3-0.2l0.6-0.3H37l0,0l0.3,0.1h0.3l0.2-0.1h0.3v0.2L38,19.3
		l-0.1,0.1l-0.2,0.1l-1-0.1l-0.6,0.2L35.6,20l-0.4,0.3l-0.3,0.1l-0.5-0.1l0.1,0.2l-0.1,0.4l-0.2,0.3L34,21.3h-0.5l-0.4-0.1h-0.3v0.6
		l0.1,0.7V23l-0.1,0.4l-0.5,0.7l-0.4,0.3l-0.5,0.3l-0.3,0.4L31,25.4l0,0l-0.1,0.2l-0.1,0.2l-0.3,0.4l-0.4,0.3l-0.4,0.2l-0.1,0.5V28
		l0.1,0.3v0.5l-0.1,0.7l-0.1,0.7l0.2,0.8l0.3,0.6l0.3,0.3l0.3,0.2l0.2,0.3l0.1,0.3v0.2L30.7,33h-0.4l-0.6-0.1l-0.2-0.1l-0.1-0.2
		l-0.2-0.4h-0.3L28.8,32v-0.3v-0.3v-0.3v-0.6L28.7,30v-0.1l-0.2-0.4l-0.1-0.1l-0.2,0.5l-0.1,0.5v0.5l0.1,0.4l0.1,0.3l0.6,0.6
		l0.2,0.1l0.1,0.2l0.1,0.5l-0.1,0.1h-0.5L28.2,33h-0.1l-0.2-0.2l-0.1-0.3v-0.2l-0.1-0.1l-0.2-0.1h-0.2l-0.1-0.4v-0.5l0.1-1l0.1-0.3
		v-0.5l-0.2-0.6l-0.3-0.5l-0.2-0.4l-0.1-0.5L26.5,27l-0.6-0.2l-0.4-0.1l-0.1-0.1h-0.2h-0.5l-0.4,0.1h-0.7h-0.8l-0.7,0.1l-0.5-0.1
		l-0.4-0.1l-0.1-0.1l-0.3,0.2L20.6,27l-0.1,0.1l-0.1,0.1l-0.3,0.3l-0.5,0.4l-0.2,0.3l-0.1,0.3l-0.1,0.2l0.1,0.9l0.2,0.5l0.3,0.5
		l0.2,0.2l0.7,0.7h0.1l0.4,0.4l0.2,0.6l-0.2,0.1h-0.4l-0.4-0.1l-0.6-0.3v-0.1l-0.2-0.4h-0.4l-0.3-0.5l-0.3-1l-0.3-0.7l-0.4-0.6
		l-0.3-0.4l-0.2,0.1l-0.5,0.7l-0.1,0.5v0.7l0.1,0.7l0.3,0.6l0.4,0.4l0.2,0.6h-0.1l-0.4,0.1l-0.5-0.1l-0.4-0.2l-0.2-0.4L16.1,32
		L16,31.9l-0.1-0.2l-0.1-0.4l0.1-1.2l0.1-0.2l0.1-0.3l0.1-0.5V29v-0.3l-0.1-0.5l0.1-0.5l0.1-0.1l0.1-0.1l0.6-0.4l0.2-0.3l0.2-0.4V26
		l-0.1-0.4L17,24.8L16.8,24l-0.3-1l0.1-0.5l0.6-0.5l0.7-0.4l0.3-0.2l0.7-0.3l0.7-0.1L20.7,21.1z"/>
</g>
</svg>
