<svg width="39" height="33" viewBox="0 0 39 33" fill="none" xmlns="http://www.w3.org/2000/svg">
<path d="M1.83579 20.6012C1.09263 19.3623 0.700073 17.9447 0.700073 16.5C0.700073 15.0552 1.09263 13.6377 1.83579 12.3987C2.06431 12.0173 2.3701 11.688 2.73351 11.4318C3.09692 11.1756 3.5099 10.9983 3.94591 10.9112L7.54354 10.1908C7.75809 10.1484 7.9516 10.0336 8.09179 9.86572L12.4863 4.58935C14.998 1.57185 16.256 0.0652207 17.3759 0.471096C18.5 0.876971 18.5 2.84047 18.5 6.76747V26.2367C18.5 30.1616 18.5 32.123 17.378 32.531C16.2582 32.9347 15.0002 31.4281 12.4884 28.4127L8.08754 23.1342C7.94789 22.9667 7.7552 22.852 7.54141 22.8091L3.94379 22.0887C3.50777 22.0017 3.09479 21.8243 2.73138 21.5682C2.36798 21.312 2.06431 20.9826 1.83579 20.6012Z" fill="white"/>
<path d="M23.889 8.98588C25.8717 10.9685 26.9904 13.6544 27.0011 16.4583C27.0118 19.2622 25.9138 21.9566 23.9464 23.9544M32.6462 4.47876C35.8184 7.65067 37.6084 11.9479 37.6259 16.4339C37.6434 20.9199 35.8871 25.2309 32.7397 28.4275" stroke="white" stroke-width="2" stroke-linecap="round"/>
</svg>
