<?xml version="1.0" encoding="utf-8"?>
<!-- Generator: Adobe Illustrator 26.4.1, SVG Export Plug-In . SVG Version: 6.00 Build 0)  -->
<svg version="1.1" id="Слой_1" xmlns="http://www.w3.org/2000/svg" xmlns:xlink="http://www.w3.org/1999/xlink" x="0px" y="0px"
	 viewBox="0 0 1254 523" style="enable-background:new 0 0 1254 523;" xml:space="preserve">
<style type="text/css">
	.st0{fill:#D8F3FE;}
	.st1{fill:url(#SVGID_1_);}
	.st2{fill:#FFFFFF;}
</style>
<g>
	<circle class="st0" cx="263.5" cy="229.4" r="21"/>
	
		<linearGradient id="SVGID_1_" gradientUnits="userSpaceOnUse" x1="279.492" y1="489.408" x2="247.492" y2="521.408" gradientTransform="matrix(1 0 0 1 0 -276)">
		<stop  offset="0" style="stop-color:#48F2FA"/>
		<stop  offset="1" style="stop-color:#604AF4"/>
	</linearGradient>
	<circle class="st1" cx="263.5" cy="229.4" r="16"/>
	<path class="st2" d="M266.3,224v-0.3l-0.1-0.3l-0.4-0.5l-0.4-0.6l-0.2-0.3l-0.1-0.4v-0.4l0.1-0.3l0.2-0.3l0.3-0.2l0.3-0.1h0.3
		l0.3,0.1l0.3,0.2l0.3,0.6l0.3,0.6l1.4,1.5l0.7,0.8l0.3,0.6l-0.8-0.5l-0.9-0.7l-0.8-0.7l-0.6-0.4l0.6,0.7l0.3,0.4l0.2,0.4v0.6
		l-0.1,0.5l-0.5,0.9l-1,1.7l-0.5,0.8L265,229l-0.7,0.6L264,230l-0.2,0.5l-0.2,1.5l-0.1,0.9l-0.3,2.5v1.4l0.2,1.1l0.6,0.1h0.7
		l-0.2,0.1h-0.2l0.2,0.2l-0.4-0.1h-0.3l0,0l-0.2,0.1l-0.2-0.1l-0.6-0.2l-0.2-0.1l-0.3,0.1l0.3-0.3l0.1-0.1l0.1-0.3v-1l-0.1-2.1
		l-0.1-1v-0.4l0.1-0.6l0.1-1l-0.1-0.4l-0.2-0.4l-1.3,0.5l-0.4,0.1l-0.3,0.1l-2.4,1.4l-0.4,0.2l-0.3-0.1l0.1-0.5v-0.5l-0.1-0.4
		l0.1-0.5l0.7-1.5l0.5-0.6l0.5-0.9l0.6-0.8l0.7-0.6l0.9-0.5l0.7-0.4l0.7-0.4l1.5-0.6L266.3,224z"/>
</g>
</svg>
