<?xml version="1.0" encoding="utf-8"?>
<!-- Generator: Adobe Illustrator 26.4.1, SVG Export Plug-In . SVG Version: 6.00 Build 0)  -->
<svg version="1.1" id="Слой_1" xmlns="http://www.w3.org/2000/svg" xmlns:xlink="http://www.w3.org/1999/xlink" x="0px" y="0px"
	 viewBox="0 0 1254 523" style="enable-background:new 0 0 1254 523;" xml:space="preserve">
<style type="text/css">
	.st0{fill:#D8F3FE;}
	.st1{fill:url(#SVGID_1_);}
	.st2{fill:#FFFFFF;}
</style>
<g>
	<circle class="st0" cx="820.1" cy="444.6" r="25"/>
	
		<linearGradient id="SVGID_1_" gradientUnits="userSpaceOnUse" x1="840.0765" y1="700.6235" x2="800.0765" y2="740.6235" gradientTransform="matrix(1 0 0 1 0 -276)">
		<stop  offset="0" style="stop-color:#48F2FA"/>
		<stop  offset="1" style="stop-color:#604AF4"/>
	</linearGradient>
	<circle class="st1" cx="820.1" cy="444.6" r="20"/>
	<path class="st2" d="M815.4,444.7l0.4-0.1l0.7-0.1l0.6-0.2l0.5-0.2l0.5-0.1l1-0.1l0.3-0.1l0.3-0.1l0.3-0.1l0.3-0.2l0.4-0.1l0.3-0.2
		l0.3-0.3l0.3-0.1l0.3-0.3l0.2-0.3l0.3-0.6l0.4-0.5l0.1-0.1l0.1-0.2v-0.2l0.1-0.1l0.4-0.6l0.3-0.2l0.2-0.1l0.1-0.1l0.3-0.2l0.3-0.2
		l0.3-0.2l0.4-0.3l0.7-0.5l0.8-0.2h0.2l0.2,0.1h0.5h0.4h0.2l0.2-0.1l0.4-0.1h0.6l0.3,0.1h0.2h0.2l0.2,0.2l0.1,0.3v0.7l-0.1,0.3
		l0.1,0.3l0.5,1.3l0.2,0.8v0.8l-0.1,0.6v0.1l-0.1,0.1l-0.1-0.1v-0.3l-0.1-0.3l-0.1-0.6l-0.4-1.1l-0.3-0.4l-0.3-0.4l-0.3,0.1v0.3
		l0.2,0.3l0.2,0.7l0.2,0.8l0.1,0.9v0.6v0.4l0,0l-0.2-0.4l-0.1-0.5l-0.2-1l-0.3-0.9l-0.2-0.4l-0.3-0.3l-0.1,0.2l-0.1,0.3v0.7l0.1,1.4
		l0.1,0.7l0.1,2.1l0.3,1.1l0.4,1.1l0.2,0.6l0.3,0.8v0.4l-0.2,0.4l-0.1,0.1l0,0l-0.3,0.1l-0.6,0.1l-0.6-0.1l-0.7,0.1l-0.5,0.1l-1,0.1
		l-0.1-0.2v-0.2l0.5-0.4l0.5-0.2l0.5-0.2l-0.1-0.2l-0.2-0.1l-0.4-0.3l-0.2,0.2l-0.3,0.4l-0.4,0.3l-0.4,0.2l-0.3,0.1l-0.4,0.1
		l-0.2,0.1l-0.1,0.2l-0.4,0.5l-0.7,0.3l-0.8,0.2h-0.9h-0.6l-0.7,0.1L820,452h-0.2l-0.1-0.1v-0.1l0.1-0.2l0.2-0.1l0.5-0.2l0.6-0.1
		l0.5-0.2H821h-0.4l-1.1-0.1l-1,0.1l-0.7,0.2h-0.6h-0.6l0.2,0.4l-0.3,0.2l-0.4,0.1h-0.9l-0.9-0.1h-0.8h-1.2h0.1h0.1l2.5,0.3l1-0.1
		v0.1l-0.6,0.4l-0.7,0.3l-0.5,0.1l-2,0.1l-0.5-0.1l-0.2-0.1l-0.6-0.3l-0.5-0.3l-0.4-0.3l-0.4-0.3l-0.2-0.2l-0.5-0.6v-0.3l-0.1-0.2
		v-0.2l0.1-0.3l0.1-0.3l0.1-0.4l0.2-0.2l0.1-0.3l0.2-0.3l0.1-0.2l0.4-0.4l0.4-0.4l0.2-0.1l0.2-0.2l0.5-0.3l0.2-0.2l0.3-0.2l0.5-0.3
		h0.3h0.3l0.6-0.3l0.2-0.1l0.3-0.2l0.4-0.2h0.2L815.4,444.7z"/>
</g>
</svg>
