<?xml version="1.0" encoding="utf-8"?>
<!-- Generator: Adobe Illustrator 26.4.1, SVG Export Plug-In . SVG Version: 6.00 Build 0)  -->
<svg version="1.1" id="Слой_1" xmlns="http://www.w3.org/2000/svg" xmlns:xlink="http://www.w3.org/1999/xlink" x="0px" y="0px"
	 viewBox="0 0 50 50" style="enable-background:new 0 0 50 50;" xml:space="preserve">
<style type="text/css">
	.st0{fill:#D8F3FE;}
	.st1{fill:url(#SVGID_1_);}
	.st2{fill:#FFFFFF;}
</style>
<g>
	<circle class="st0" cx="25" cy="25" r="25"/>
	
		<linearGradient id="SVGID_1_" gradientUnits="userSpaceOnUse" x1="44.9765" y1="-596.2235" x2="4.9765" y2="-636.2235" gradientTransform="matrix(1 0 0 -1 0 -591.2)">
		<stop  offset="0" style="stop-color:#48F2FA"/>
		<stop  offset="1" style="stop-color:#604AF4"/>
	</linearGradient>
	<circle class="st1" cx="25" cy="25" r="20"/>
	<path class="st2" d="M20.3,25.1l0.4-0.1l0.7-0.1l0.6-0.2l0.5-0.2l0.5-0.1l1-0.1l0.3-0.1l0.3-0.1l0.3-0.1l0.3-0.2l0.4-0.1l0.3-0.2
		l0.3-0.3l0.3-0.1l0.3-0.3l0.2-0.3l0.3-0.6l0.4-0.5l0.1-0.1l0.1-0.2v-0.2l0.1-0.1l0.4-0.6l0.3-0.2l0.2-0.1l0.1-0.1l0.3-0.2l0.3-0.2
		l0.3-0.2l0.4-0.3l0.7-0.5l0.8-0.2H32l0.2,0.1h0.5h0.4h0.2l0.2-0.1l0.4-0.1h0.6l0.3,0.1H35h0.2l0.2,0.2l0.1,0.3v0.7l-0.1,0.3
		l0.1,0.3l0.5,1.3l0.2,0.8v0.8l-0.1,0.6v0.1L36,23.7l-0.1-0.1v-0.3L35.8,23l-0.1-0.6l-0.4-1.1L35,20.9l-0.3-0.4l-0.3,0.1v0.3
		l0.2,0.3l0.2,0.7l0.2,0.8l0.1,0.9v0.6v0.4l0,0l-0.2-0.4l-0.1-0.5l-0.2-1l-0.3-0.9l-0.2-0.4l-0.3-0.3l-0.1,0.2l-0.1,0.3v0.7l0.1,1.4
		l0.1,0.7l0.1,2.1l0.3,1.1l0.4,1.1l0.2,0.6l0.3,0.8v0.4l-0.2,0.4L34.8,31l0,0l-0.3,0.1l-0.6,0.1l-0.6-0.1l-0.7,0.1l-0.5,0.1l-1,0.1
		L31,31.2V31l0.5-0.4l0.5-0.2l0.5-0.2L32.4,30l-0.2-0.1l-0.4-0.3l-0.2,0.2l-0.3,0.4l-0.4,0.3l-0.4,0.2l-0.3,0.1l-0.4,0.1L29.6,31
		l-0.1,0.2l-0.4,0.5L28.4,32l-0.8,0.2h-0.9h-0.6l-0.7,0.1l-0.5,0.1h-0.2l-0.1-0.1v-0.1l0.1-0.2l0.2-0.1l0.5-0.2l0.6-0.1l0.5-0.2
		h-0.6h-0.4l-1.1-0.1l-1,0.1l-0.7,0.2h-0.6h-0.6l0.2,0.4l-0.3,0.2L21,32.3h-0.9l-0.9-0.1h-0.8h-1.2h0.1h0.1l2.5,0.3l1-0.1v0.1
		l-0.6,0.4l-0.7,0.3l-0.5,0.1l-2,0.1l-0.5-0.1l-0.2-0.1l-0.6-0.3l-0.5-0.3l-0.4-0.3L14.5,32l-0.2-0.2l-0.5-0.6v-0.3l-0.1-0.2v-0.2
		l0.1-0.3l0.1-0.3l0.1-0.4l0.2-0.2l0.1-0.3l0.2-0.3l0.1-0.2l0.4-0.4l0.4-0.4l0.2-0.1l0.2-0.2l0.5-0.3l0.2-0.2l0.3-0.2l0.5-0.3h0.3
		h0.3l0.6-0.3l0.2-0.1l0.3-0.2l0.4-0.2h0.2L20.3,25.1z"/>
</g>
</svg>
