<?xml version="1.0" encoding="utf-8"?>
<!-- Generator: Adobe Illustrator 26.4.1, SVG Export Plug-In . SVG Version: 6.00 Build 0)  -->
<svg version="1.1" id="Слой_1" xmlns="http://www.w3.org/2000/svg" xmlns:xlink="http://www.w3.org/1999/xlink" x="0px" y="0px"
	 viewBox="0 0 1254 523" style="enable-background:new 0 0 1254 523;" xml:space="preserve">
<style type="text/css">
	.st0{fill:#4DCDF8;stroke:#BFEDFF;stroke-width:8;}
	.st1{fill:#BFEDFF;fill-opacity:0.5;stroke:#BFEDFF;stroke-width:8;}
	.st2{fill:#FFFFFF;}
	.st3{fill:#86DDFB;stroke:#BFEDFF;stroke-width:8;}
</style>
<g>
	<path class="st0" d="M913,257h124c2,0,4,0.8,5.4,2.1l190,176.5c1.6,1.5,2.6,3.6,2.6,5.9V509c0,4.4-3.6,8-8,8h-141.1
		c-2.1,0-4.1-0.8-5.6-2.3l-172.9-168c-1.5-1.5-2.4-3.6-2.4-5.7v-76C905,260.6,908.6,257,913,257z"/>
	<path class="st1" d="M951.5,300.1l-8.7,21.8c-2.5,6.4-4.4,13.2-3.4,20c1,7.3,3.8,12.6,9.1,17.6c7.6,7.2,18,10.3,28.2,12.8
		c23.5,5.6,66.3,16.6,71.4,22.7c6.5,7.8,10.5,7.6,16.9,1.8c1.3-1.2,2.2-2.6,2.8-4.3c5.9-16.7,6.4-26.1,21.6-26.4
		c2.2,0,4.1-1.6,4.3-3.8c0.2-1.8-0.9-3.5-2.7-4.1l-3.8-1.3c-3-1.1-5.3-3.6-5.9-6.8c-5.7-27.9-9.5-44.8-55.4-49.9
		c-13.6-1.9-20-4.8-30.6-11.4C972.5,277.2,961.9,276.8,951.5,300.1z"/>
	<path class="st2" d="M969.9,338.9H967v-1.5h2.5c0.4,0,0.8-0.1,1.1-0.2s0.5-0.3,0.6-0.5c0.2-0.2,0.2-0.5,0.2-0.8
		c0-0.4-0.1-0.7-0.2-0.9c-0.1-0.2-0.3-0.4-0.6-0.5s-0.7-0.2-1.1-0.2h-1.8v9.7h-2.1v-11.4h3.9c0.6,0,1.2,0.1,1.7,0.2s0.9,0.3,1.3,0.6
		s0.6,0.6,0.8,1s0.3,0.8,0.3,1.4c0,0.5-0.1,0.9-0.3,1.3s-0.5,0.7-1,1c-0.4,0.2-1,0.4-1.7,0.4L969.9,338.9z M969.8,344h-3.4l0.9-1.7
		h2.5c0.4,0,0.8-0.1,1.1-0.2s0.5-0.3,0.6-0.6c0.1-0.2,0.2-0.5,0.2-0.9s-0.1-0.7-0.2-0.9c-0.1-0.3-0.3-0.5-0.6-0.6s-0.6-0.2-1-0.2
		h-2.2v-1.5h2.8l0.5,0.6c0.7,0,1.2,0.1,1.6,0.4c0.4,0.3,0.7,0.6,0.9,1s0.3,0.8,0.3,1.3c0,0.7-0.2,1.3-0.5,1.8s-0.8,0.9-1.4,1.1
		C971.4,343.9,970.7,344,969.8,344z M975.2,339.9v-0.2c0-0.6,0.1-1.2,0.3-1.7s0.4-1,0.8-1.4c0.3-0.4,0.8-0.7,1.2-0.9
		c0.5-0.2,1-0.3,1.7-0.3c0.6,0,1.2,0.1,1.7,0.3c0.5,0.2,0.9,0.5,1.2,0.9s0.6,0.8,0.8,1.4c0.2,0.5,0.3,1.1,0.3,1.7v0.2
		c0,0.6-0.1,1.2-0.3,1.7s-0.4,1-0.8,1.4c-0.3,0.4-0.8,0.7-1.2,0.9c-0.5,0.2-1,0.3-1.7,0.3c-0.6,0-1.2-0.1-1.7-0.3
		c-0.5-0.2-0.9-0.5-1.2-0.9s-0.6-0.8-0.8-1.4S975.2,340.5,975.2,339.9z M977.3,339.7v0.2c0,0.4,0,0.7,0.1,1s0.2,0.6,0.3,0.9
		s0.3,0.4,0.6,0.6c0.2,0.1,0.5,0.2,0.9,0.2c0.3,0,0.6-0.1,0.9-0.2c0.2-0.1,0.4-0.3,0.6-0.6c0.2-0.2,0.3-0.5,0.3-0.9
		c0.1-0.3,0.1-0.7,0.1-1v-0.2c0-0.4,0-0.7-0.1-1s-0.2-0.6-0.3-0.9c-0.2-0.2-0.3-0.4-0.6-0.6c-0.2-0.1-0.5-0.2-0.9-0.2
		c-0.3,0-0.6,0.1-0.9,0.2c-0.2,0.1-0.4,0.3-0.6,0.6c-0.2,0.2-0.3,0.5-0.3,0.9C977.3,339,977.3,339.3,977.3,339.7z M985.6,335.5h2.1
		l-0.1,2.9c0,0.9-0.1,1.6-0.3,2.3c-0.2,0.6-0.4,1.2-0.7,1.6s-0.6,0.8-1,1c-0.4,0.3-0.8,0.5-1.2,0.6h-0.5v-1.6h0.2
		c0.2-0.3,0.5-0.5,0.6-0.8c0.2-0.3,0.3-0.5,0.4-0.8s0.2-0.6,0.2-1c0.1-0.4,0.1-0.8,0.1-1.3L985.6,335.5z M986.1,335.5h5.5v8.5h-2.1
		v-6.8h-3.4V335.5z M983.4,342.4h9.4v4.2h-2.1V344h-5.2v2.5h-2.1L983.4,342.4z M999.8,339v1.6h-4.3V339H999.8z M996.1,335.5v8.5H994
		v-8.5H996.1z M1001.2,335.5v8.5h-2.1v-8.5H1001.2z M1004.5,338.1h2.5c0.8,0,1.4,0.1,1.9,0.4c0.5,0.2,0.9,0.6,1.2,1s0.4,0.9,0.4,1.5
		c0,0.4-0.1,0.8-0.2,1.2c-0.2,0.4-0.4,0.7-0.7,0.9c-0.3,0.3-0.7,0.5-1.1,0.6c-0.4,0.1-0.9,0.2-1.5,0.2h-3.8v-8.5h2.1v6.8h1.7
		c0.4,0,0.6-0.1,0.9-0.2c0.2-0.1,0.4-0.3,0.5-0.5s0.2-0.4,0.2-0.6s0-0.4-0.2-0.6c-0.1-0.2-0.2-0.4-0.5-0.5c-0.2-0.1-0.5-0.2-0.9-0.2
		h-2.5L1004.5,338.1L1004.5,338.1z M1014,335.5v8.5h-2.1v-8.5H1014z M1018.2,341.1l3.1-5.5h2.1v8.5h-2.1v-5.5l-3.1,5.5h-2.1v-8.5
		h2.1V341.1z M1020.9,332.2h1.5c0,0.4-0.1,0.8-0.3,1.2c-0.2,0.3-0.5,0.6-0.9,0.8c-0.4,0.2-0.9,0.3-1.4,0.3c-0.8,0-1.4-0.2-1.9-0.6
		s-0.7-1-0.7-1.6h1.5c0,0.3,0.1,0.5,0.3,0.7s0.5,0.3,0.9,0.3s0.7-0.1,0.9-0.3C1020.8,332.8,1020.9,332.5,1020.9,332.2z
		 M1034.3,341.6l2.4-6h1.7l-3.4,8.5h-1.4l-3.4-8.5h1.7L1034.3,341.6z M1031.4,335.5v8.5h-2.1v-8.5H1031.4z M1037.2,344v-8.5h2.1v8.5
		H1037.2z M1043.4,341.1l3.1-5.5h2.1v8.5h-2.1v-5.5l-3.1,5.5h-2.1v-8.5h2.1V341.1z M1052.5,337.2v10.1h-2.1v-11.7h1.9L1052.5,337.2z
		 M1057.9,339.7v0.2c0,0.6-0.1,1.2-0.2,1.7s-0.3,1-0.6,1.4c-0.3,0.4-0.6,0.7-1,0.9c-0.4,0.2-0.9,0.3-1.4,0.3s-1-0.1-1.4-0.3
		c-0.4-0.2-0.7-0.5-1-0.9s-0.5-0.8-0.6-1.3c-0.2-0.5-0.3-1-0.4-1.6v-0.5c0.1-0.6,0.2-1.2,0.4-1.7c0.2-0.5,0.4-1,0.6-1.3
		c0.3-0.4,0.6-0.7,1-0.9s0.8-0.3,1.3-0.3s1,0.1,1.4,0.3c0.4,0.2,0.8,0.5,1,0.9c0.3,0.4,0.5,0.8,0.6,1.4S1057.9,339,1057.9,339.7z
		 M1055.9,339.9v-0.2c0-0.4,0-0.7-0.1-1s-0.2-0.6-0.3-0.8c-0.1-0.2-0.3-0.4-0.5-0.6c-0.2-0.1-0.5-0.2-0.8-0.2s-0.6,0.1-0.8,0.2
		c-0.2,0.1-0.4,0.3-0.6,0.4c-0.1,0.2-0.3,0.4-0.3,0.7c-0.1,0.3-0.1,0.5-0.2,0.9v1.3c0.1,0.4,0.1,0.7,0.3,1c0.1,0.3,0.3,0.6,0.6,0.7
		s0.6,0.3,1,0.3c0.3,0,0.6-0.1,0.8-0.2c0.2-0.1,0.4-0.3,0.5-0.6c0.1-0.2,0.2-0.5,0.3-0.9C1055.8,340.6,1055.9,340.2,1055.9,339.9z"
		/>
	<path class="st3" d="M1084.7,412.1l-3.1,13.8c-0.3,1.5,0.5,3,1.9,3.5l15.2,5.4c0.7,0.2,1.3,0.7,1.6,1.3l7.4,13.1
		c0.9,1.6,0.2,3.6-1.5,4.3l-13.1,5.4c-1.7,0.7-2.3,2.6-1.5,4.2l6.8,12.4c0.8,1.4,2.5,2,3.9,1.3l54.6-25.3c1.5-0.7,2.2-2.6,1.4-4.1
		l-6.9-13.4c-0.8-1.5-2.5-2-4-1.3l-16.2,7.9c-1.4,0.7-3,0.2-3.8-1.1l-13.6-21.4c-0.4-0.6-1-1.1-1.7-1.3l-23.7-7
		C1086.8,409.4,1085.1,410.4,1084.7,412.1z"/>
	<path class="st2" d="M1165.4,475.9h-2.9v-1.5h2.5c0.4,0,0.8-0.1,1.1-0.2c0.3-0.1,0.5-0.3,0.6-0.5c0.2-0.2,0.2-0.5,0.2-0.8
		c0-0.4-0.1-0.7-0.2-0.9c-0.1-0.2-0.3-0.4-0.6-0.5c-0.3-0.1-0.7-0.2-1.1-0.2h-1.8v9.7h-2.1v-11.4h3.9c0.7,0,1.2,0.1,1.7,0.2
		s0.9,0.3,1.3,0.6c0.4,0.3,0.6,0.6,0.8,1c0.2,0.4,0.3,0.8,0.3,1.4c0,0.5-0.1,0.9-0.3,1.3c-0.2,0.4-0.5,0.7-1,1
		c-0.4,0.2-1,0.4-1.7,0.4L1165.4,475.9z M1165.3,481h-3.4l0.9-1.7h2.5c0.4,0,0.8-0.1,1.1-0.2c0.3-0.1,0.5-0.3,0.6-0.6
		c0.1-0.2,0.2-0.5,0.2-0.9s-0.1-0.7-0.2-0.9c-0.1-0.3-0.3-0.5-0.6-0.6c-0.3-0.1-0.6-0.2-1-0.2h-2.2v-1.5h2.8l0.5,0.6
		c0.7,0,1.2,0.1,1.6,0.4s0.7,0.6,0.9,1c0.2,0.4,0.3,0.8,0.3,1.3c0,0.7-0.2,1.3-0.5,1.8s-0.8,0.9-1.4,1.1
		C1166.9,480.9,1166.2,481,1165.3,481z M1172.7,472.5l1.5,2.7l1.5-2.7h2.2l-2.5,4.1l2.6,4.3h-2.2l-1.6-2.8l-1.6,2.8h-2.2l2.6-4.3
		l-2.5-4.1H1172.7z M1178.6,476.9v-0.2c0-0.6,0.1-1.2,0.3-1.7c0.2-0.5,0.4-1,0.8-1.4c0.3-0.4,0.8-0.7,1.2-0.9
		c0.5-0.2,1.1-0.3,1.7-0.3s1.2,0.1,1.7,0.3c0.5,0.2,0.9,0.5,1.2,0.9c0.3,0.4,0.6,0.8,0.8,1.4c0.2,0.5,0.3,1.1,0.3,1.7v0.2
		c0,0.6-0.1,1.2-0.3,1.7c-0.2,0.5-0.4,1-0.8,1.4c-0.3,0.4-0.8,0.7-1.2,0.9c-0.5,0.2-1,0.3-1.7,0.3s-1.2-0.1-1.7-0.3
		c-0.5-0.2-0.9-0.5-1.2-0.9c-0.3-0.4-0.6-0.8-0.8-1.4S1178.6,477.5,1178.6,476.9z M1180.6,476.7v0.2c0,0.4,0,0.7,0.1,1
		s0.2,0.6,0.3,0.9c0.2,0.2,0.3,0.4,0.6,0.6c0.2,0.1,0.5,0.2,0.9,0.2c0.3,0,0.6-0.1,0.9-0.2c0.2-0.1,0.4-0.3,0.6-0.6
		c0.2-0.2,0.3-0.5,0.3-0.9c0.1-0.3,0.1-0.7,0.1-1v-0.2c0-0.4,0-0.7-0.1-1s-0.2-0.6-0.3-0.9c-0.2-0.2-0.3-0.4-0.6-0.6
		c-0.2-0.1-0.5-0.2-0.9-0.2c-0.3,0-0.6,0.1-0.9,0.2c-0.2,0.1-0.4,0.3-0.6,0.6c-0.2,0.2-0.3,0.5-0.3,0.9
		C1180.7,476,1180.6,476.3,1180.6,476.7z M1189,472.5h2.1l-0.1,2.9c0,0.9-0.1,1.6-0.3,2.3c-0.2,0.6-0.4,1.2-0.7,1.6
		c-0.3,0.4-0.6,0.8-1,1c-0.4,0.3-0.8,0.5-1.2,0.6h-0.5v-1.6h0.2c0.2-0.3,0.4-0.5,0.6-0.8s0.3-0.5,0.4-0.8s0.2-0.6,0.2-1
		c0.1-0.4,0.1-0.8,0.1-1.3L1189,472.5z M1189.5,472.5h5.5v8.5h-2.1v-6.8h-3.4V472.5z M1186.8,479.4h9.4v4.2h-2.1V481h-5.2v2.5h-2.1
		L1186.8,479.4L1186.8,479.4z M1203.1,476v1.6h-4.3V476H1203.1z M1199.4,472.5v8.5h-2.1v-8.5H1199.4z M1204.6,472.5v8.5h-2.1v-8.5
		H1204.6z M1211.1,479.2v-3.9c0-0.3-0.1-0.5-0.2-0.7s-0.2-0.4-0.4-0.5c-0.2-0.1-0.5-0.2-0.8-0.2s-0.5,0-0.7,0.1s-0.4,0.2-0.5,0.4
		c-0.1,0.2-0.2,0.4-0.2,0.6h-2.1c0-0.3,0.1-0.7,0.2-1c0.2-0.3,0.4-0.6,0.7-0.8c0.3-0.2,0.7-0.4,1.1-0.6c0.4-0.1,0.9-0.2,1.5-0.2
		s1.2,0.1,1.7,0.3c0.5,0.2,0.9,0.5,1.2,1c0.3,0.4,0.4,1,0.4,1.6v3.7c0,0.4,0,0.8,0.1,1.1c0.1,0.3,0.1,0.6,0.2,0.8v0.1h-2.1
		c-0.1-0.2-0.2-0.5-0.2-0.8C1211.1,479.9,1211.1,479.5,1211.1,479.2z M1211.4,475.9v1.2h-1.3c-0.3,0-0.6,0-0.8,0.1
		c-0.2,0.1-0.5,0.2-0.6,0.3c-0.2,0.1-0.3,0.3-0.3,0.4c-0.1,0.2-0.1,0.4-0.1,0.6s0,0.4,0.1,0.6s0.2,0.3,0.4,0.4
		c0.2,0.1,0.4,0.1,0.7,0.1c0.4,0,0.7-0.1,1-0.2c0.3-0.2,0.5-0.3,0.6-0.5c0.2-0.2,0.2-0.4,0.2-0.6l0.6,0.9c-0.1,0.2-0.2,0.4-0.3,0.7
		c-0.2,0.2-0.3,0.5-0.6,0.7c-0.2,0.2-0.5,0.4-0.8,0.5s-0.7,0.2-1.1,0.2c-0.5,0-1-0.1-1.5-0.3c-0.4-0.2-0.8-0.5-1-0.9
		s-0.4-0.8-0.4-1.3c0-0.4,0.1-0.8,0.3-1.2c0.2-0.3,0.4-0.6,0.7-0.9c0.3-0.2,0.7-0.4,1.2-0.5s1.1-0.2,1.7-0.2h1.3V475.9z
		 M1216.8,476.8h2.1l-2.4,4.2h-2.1L1216.8,476.8z M1218.3,472.5h3.7v8.5h-2.1v-6.8h-1.6c-0.3,0-0.6,0.1-0.8,0.2
		c-0.2,0.1-0.4,0.3-0.5,0.5s-0.2,0.4-0.2,0.6s0.1,0.4,0.1,0.5c0.1,0.2,0.2,0.3,0.5,0.4c0.2,0.1,0.5,0.2,0.8,0.2h2.4v1.5h-2.4
		c-0.5,0-1-0.1-1.4-0.2s-0.8-0.3-1.1-0.6c-0.3-0.2-0.5-0.5-0.7-0.8s-0.2-0.7-0.2-1.1s0.1-0.8,0.2-1.1s0.4-0.6,0.7-0.9
		c0.3-0.2,0.7-0.4,1.1-0.6C1217.2,472.6,1217.7,472.5,1218.3,472.5z M1166.6,491.5v1.6h-3.6v6.8h-2.1v-8.5h5.7V491.5z M1169.7,493.2
		v10.1h-2.1v-11.7h1.9L1169.7,493.2z M1175.1,495.7v0.2c0,0.6-0.1,1.2-0.2,1.7s-0.4,1-0.6,1.4c-0.3,0.4-0.6,0.7-1,0.9
		c-0.4,0.2-0.9,0.3-1.4,0.3s-1-0.1-1.4-0.3c-0.4-0.2-0.7-0.5-1-0.9s-0.5-0.8-0.6-1.3c-0.2-0.5-0.3-1-0.3-1.6v-0.5
		c0.1-0.6,0.2-1.2,0.3-1.7c0.2-0.5,0.4-1,0.6-1.3c0.3-0.4,0.6-0.7,1-0.9c0.4-0.2,0.8-0.3,1.3-0.3s1,0.1,1.4,0.3s0.8,0.5,1,0.9
		c0.3,0.4,0.5,0.8,0.6,1.4C1175.1,494.5,1175.1,495,1175.1,495.7z M1173.1,495.9v-0.2c0-0.4,0-0.7-0.1-1s-0.2-0.6-0.3-0.8
		c-0.1-0.2-0.3-0.4-0.6-0.6c-0.2-0.1-0.5-0.2-0.8-0.2s-0.6,0.1-0.8,0.2c-0.2,0.1-0.4,0.3-0.6,0.4c-0.1,0.2-0.3,0.4-0.3,0.7
		c-0.1,0.3-0.1,0.5-0.2,0.9v1.3c0,0.4,0.1,0.7,0.3,1c0.1,0.3,0.3,0.6,0.6,0.7c0.3,0.2,0.6,0.3,1,0.3c0.3,0,0.6-0.1,0.8-0.2
		c0.2-0.1,0.4-0.3,0.6-0.6c0.1-0.2,0.2-0.5,0.3-0.9C1173,496.6,1173.1,496.2,1173.1,495.9z M1179,499.1l2.3-7.5h2.2l-3.4,9.7
		c-0.1,0.2-0.2,0.4-0.3,0.7c-0.1,0.2-0.3,0.5-0.5,0.7s-0.5,0.4-0.8,0.5s-0.7,0.2-1.1,0.2c-0.2,0-0.3,0-0.5,0c-0.1,0-0.3-0.1-0.5-0.1
		v-1.5c0.1,0,0.1,0,0.2,0s0.1,0,0.2,0c0.3,0,0.6,0,0.8-0.1c0.2-0.1,0.3-0.2,0.5-0.3c0.1-0.2,0.2-0.3,0.3-0.6L1179,499.1z
		 M1177.9,491.5l1.9,6.2l0.3,2.2l-1.4,0.3l-3.1-8.7H1177.9z M1190.2,491.5v1.6h-4.1v-1.6H1190.2z M1186.6,491.5v8.5h-2.1v-8.5
		H1186.6z M1191.7,491.5v8.5h-2.1v-8.5H1191.7z M1199.3,491.5v1.6h-4.1v-1.6H1199.3z M1195.7,491.5v8.5h-2.1v-8.5H1195.7z
		 M1200.8,491.5v8.5h-2.1v-8.5H1200.8z M1207.4,498.2v-3.9c0-0.3-0.1-0.5-0.2-0.7s-0.2-0.4-0.4-0.5c-0.2-0.1-0.5-0.2-0.8-0.2
		s-0.5,0-0.7,0.1s-0.4,0.2-0.5,0.4c-0.1,0.2-0.2,0.4-0.2,0.6h-2.1c0-0.3,0.1-0.7,0.2-1c0.2-0.3,0.4-0.6,0.7-0.8
		c0.3-0.2,0.7-0.4,1.1-0.6c0.4-0.1,0.9-0.2,1.5-0.2c0.7,0,1.2,0.1,1.7,0.3c0.5,0.2,0.9,0.5,1.2,1c0.3,0.4,0.4,1,0.4,1.6v3.7
		c0,0.4,0,0.8,0.1,1.1c0.1,0.3,0.1,0.6,0.2,0.8v0.1h-2.1c-0.1-0.2-0.2-0.5-0.2-0.8C1207.4,498.9,1207.4,498.5,1207.4,498.2z
		 M1207.7,494.9v1.2h-1.3c-0.3,0-0.6,0-0.8,0.1c-0.2,0.1-0.4,0.2-0.6,0.3c-0.2,0.1-0.3,0.3-0.4,0.4c-0.1,0.2-0.1,0.4-0.1,0.6
		s0.1,0.4,0.1,0.6c0.1,0.2,0.2,0.3,0.4,0.4c0.2,0.1,0.4,0.1,0.7,0.1c0.4,0,0.7-0.1,0.9-0.2c0.3-0.2,0.5-0.3,0.6-0.5
		c0.2-0.2,0.2-0.4,0.2-0.6l0.6,0.9c-0.1,0.2-0.2,0.4-0.3,0.7c-0.1,0.2-0.3,0.5-0.6,0.7c-0.2,0.2-0.5,0.4-0.8,0.5s-0.7,0.2-1.1,0.2
		c-0.6,0-1-0.1-1.5-0.3c-0.4-0.2-0.8-0.5-1-0.9s-0.4-0.8-0.4-1.3c0-0.4,0.1-0.8,0.2-1.2c0.2-0.3,0.4-0.6,0.7-0.9
		c0.3-0.2,0.7-0.4,1.2-0.5s1.1-0.2,1.7-0.2h1.6V494.9z"/>
</g>
</svg>
