<?xml version="1.0" encoding="utf-8"?>
<!-- Generator: Adobe Illustrator 26.4.1, SVG Export Plug-In . SVG Version: 6.00 Build 0)  -->
<svg version="1.1" id="Слой_1" xmlns="http://www.w3.org/2000/svg" xmlns:xlink="http://www.w3.org/1999/xlink" x="0px" y="0px"
	 viewBox="0 0 338.3 268.2" style="enable-background:new 0 0 338.3 268.2;" xml:space="preserve">
<style type="text/css">
	.st0{fill:#4DCDF8;stroke:#BFEDFF;stroke-width:8;}
	.st1{fill:#BFEDFF;fill-opacity:0.5;stroke:#BFEDFF;stroke-width:8;}
	.st2{fill:#FFFFFF;}
	.st3{fill:#86DDFB;stroke:#BFEDFF;stroke-width:8;}
</style>
<g>
	<path class="st0" d="M12.1,4.1h124c2,0,4,0.8,5.4,2.1l190,176.5c1.6,1.5,2.6,3.6,2.6,5.9v67.5c0,4.4-3.6,8-8,8H185
		c-2.1,0-4.1-0.8-5.6-2.3L6.5,93.8c-1.5-1.5-2.4-3.6-2.4-5.7v-76C4.1,7.7,7.7,4.1,12.1,4.1z"/>
	<path class="st1" d="M50.6,47.2L41.9,69c-2.5,6.4-4.4,13.2-3.4,20c1,7.3,3.8,12.6,9.1,17.6c7.6,7.2,18,10.3,28.2,12.8
		c23.5,5.6,66.3,16.6,71.4,22.7c6.5,7.8,10.5,7.6,16.9,1.8c1.3-1.2,2.2-2.6,2.8-4.3c5.9-16.7,6.4-26.1,21.6-26.4
		c2.2,0,4.1-1.6,4.3-3.8c0.2-1.8-0.9-3.5-2.7-4.1l-3.8-1.3c-3-1.1-5.3-3.6-5.9-6.8c-5.7-27.9-9.5-44.8-55.4-49.9
		c-13.6-1.9-20-4.8-30.6-11.4C71.6,24.3,61,23.9,50.6,47.2z"/>
	<path class="st2" d="M69,86h-2.9v-1.5h2.5c0.4,0,0.8-0.1,1.1-0.2s0.5-0.3,0.6-0.5c0.2-0.2,0.2-0.5,0.2-0.8c0-0.4-0.1-0.7-0.2-0.9
		c-0.1-0.2-0.3-0.4-0.6-0.5s-0.7-0.2-1.1-0.2h-1.8v9.7h-2.1V79.7h3.9c0.6,0,1.2,0.1,1.7,0.2s0.9,0.3,1.3,0.6s0.6,0.6,0.8,1
		s0.3,0.8,0.3,1.4c0,0.5-0.1,0.9-0.3,1.3s-0.5,0.7-1,1c-0.4,0.2-1,0.4-1.7,0.4L69,86z M68.9,91.1h-3.4l0.9-1.7h2.5
		c0.4,0,0.8-0.1,1.1-0.2s0.5-0.3,0.6-0.6c0.1-0.2,0.2-0.5,0.2-0.9s-0.1-0.7-0.2-0.9c-0.1-0.3-0.3-0.5-0.6-0.6S69.4,86,69,86h-2.2
		v-1.5h2.8l0.5,0.6c0.7,0,1.2,0.1,1.6,0.4c0.4,0.3,0.7,0.6,0.9,1s0.3,0.8,0.3,1.3c0,0.7-0.2,1.3-0.5,1.8s-0.8,0.9-1.4,1.1
		C70.5,91,69.8,91.1,68.9,91.1z M74.3,87v-0.2c0-0.6,0.1-1.2,0.3-1.7s0.4-1,0.8-1.4c0.3-0.4,0.8-0.7,1.2-0.9c0.5-0.2,1-0.3,1.7-0.3
		c0.6,0,1.2,0.1,1.7,0.3c0.5,0.2,0.9,0.5,1.2,0.9s0.6,0.8,0.8,1.4c0.2,0.5,0.3,1.1,0.3,1.7V87c0,0.6-0.1,1.2-0.3,1.7s-0.4,1-0.8,1.4
		c-0.3,0.4-0.8,0.7-1.2,0.9c-0.5,0.2-1,0.3-1.7,0.3c-0.6,0-1.2-0.1-1.7-0.3c-0.5-0.2-0.9-0.5-1.2-0.9s-0.6-0.8-0.8-1.4
		S74.3,87.6,74.3,87z M76.4,86.8V87c0,0.4,0,0.7,0.1,1s0.2,0.6,0.3,0.9s0.3,0.4,0.6,0.6c0.2,0.1,0.5,0.2,0.9,0.2
		c0.3,0,0.6-0.1,0.9-0.2c0.2-0.1,0.4-0.3,0.6-0.6c0.2-0.2,0.3-0.5,0.3-0.9c0.1-0.3,0.1-0.7,0.1-1v-0.2c0-0.4,0-0.7-0.1-1
		s-0.2-0.6-0.3-0.9c-0.2-0.2-0.3-0.4-0.6-0.6c-0.2-0.1-0.5-0.2-0.9-0.2c-0.3,0-0.6,0.1-0.9,0.2c-0.2,0.1-0.4,0.3-0.6,0.6
		c-0.2,0.2-0.3,0.5-0.3,0.9C76.4,86.1,76.4,86.4,76.4,86.8z M84.7,82.6h2.1l-0.1,2.9c0,0.9-0.1,1.6-0.3,2.3
		c-0.2,0.6-0.4,1.2-0.7,1.6s-0.6,0.8-1,1c-0.4,0.3-0.8,0.5-1.2,0.6H83v-1.6h0.2c0.2-0.3,0.5-0.5,0.6-0.8c0.2-0.3,0.3-0.5,0.4-0.8
		s0.2-0.6,0.2-1c0.1-0.4,0.1-0.8,0.1-1.3L84.7,82.6z M85.2,82.6h5.5v8.5h-2.1v-6.8h-3.4V82.6z M82.5,89.5h9.4v4.2h-2.1v-2.6h-5.2
		v2.5h-2.1L82.5,89.5z M98.9,86.1v1.6h-4.3v-1.6H98.9z M95.2,82.6v8.5h-2.1v-8.5H95.2z M100.3,82.6v8.5h-2.1v-8.5H100.3z
		 M103.6,85.2h2.5c0.8,0,1.4,0.1,1.9,0.4c0.5,0.2,0.9,0.6,1.2,1s0.4,0.9,0.4,1.5c0,0.4-0.1,0.8-0.2,1.2c-0.2,0.4-0.4,0.7-0.7,0.9
		c-0.3,0.3-0.7,0.5-1.1,0.6c-0.4,0.1-0.9,0.2-1.5,0.2h-3.8v-8.5h2.1v6.8h1.7c0.4,0,0.6-0.1,0.9-0.2c0.2-0.1,0.4-0.3,0.5-0.5
		s0.2-0.4,0.2-0.6s0-0.4-0.2-0.6c-0.1-0.2-0.2-0.4-0.5-0.5c-0.2-0.1-0.5-0.2-0.9-0.2h-2.5L103.6,85.2L103.6,85.2z M113.1,82.6v8.5
		H111v-8.5H113.1z M117.3,88.2l3.1-5.5h2.1v8.5h-2.1v-5.5l-3.1,5.5h-2.1v-8.5h2.1V88.2z M120,79.3h1.5c0,0.4-0.1,0.8-0.3,1.2
		c-0.2,0.3-0.5,0.6-0.9,0.8c-0.4,0.2-0.9,0.3-1.4,0.3c-0.8,0-1.4-0.2-1.9-0.6s-0.7-1-0.7-1.6h1.5c0,0.3,0.1,0.5,0.3,0.7
		s0.5,0.3,0.9,0.3s0.7-0.1,0.9-0.3C119.9,79.9,120,79.6,120,79.3z M133.4,88.7l2.4-6h1.7l-3.4,8.5h-1.4l-3.4-8.5h1.7L133.4,88.7z
		 M130.5,82.6v8.5h-2.1v-8.5H130.5z M136.3,91.1v-8.5h2.1v8.5H136.3z M142.5,88.2l3.1-5.5h2.1v8.5h-2.1v-5.5l-3.1,5.5h-2.1v-8.5h2.1
		V88.2z M151.6,84.3v10.1h-2.1V82.7h1.9L151.6,84.3z M157,86.8V87c0,0.6-0.1,1.2-0.2,1.7s-0.3,1-0.6,1.4c-0.3,0.4-0.6,0.7-1,0.9
		c-0.4,0.2-0.9,0.3-1.4,0.3s-1-0.1-1.4-0.3c-0.4-0.2-0.7-0.5-1-0.9s-0.5-0.8-0.6-1.3c-0.2-0.5-0.3-1-0.4-1.6v-0.5
		c0.1-0.6,0.2-1.2,0.4-1.7c0.2-0.5,0.4-1,0.6-1.3c0.3-0.4,0.6-0.7,1-0.9s0.8-0.3,1.3-0.3s1,0.1,1.4,0.3c0.4,0.2,0.8,0.5,1,0.9
		c0.3,0.4,0.5,0.8,0.6,1.4S157,86.1,157,86.8z M155,87v-0.2c0-0.4,0-0.7-0.1-1s-0.2-0.6-0.3-0.8c-0.1-0.2-0.3-0.4-0.5-0.6
		c-0.2-0.1-0.5-0.2-0.8-0.2s-0.6,0.1-0.8,0.2c-0.2,0.1-0.4,0.3-0.6,0.4c-0.1,0.2-0.3,0.4-0.3,0.7c-0.1,0.3-0.1,0.5-0.2,0.9v1.3
		c0.1,0.4,0.1,0.7,0.3,1c0.1,0.3,0.3,0.6,0.6,0.7s0.6,0.3,1,0.3c0.3,0,0.6-0.1,0.8-0.2c0.2-0.1,0.4-0.3,0.5-0.6
		c0.1-0.2,0.2-0.5,0.3-0.9C154.9,87.7,155,87.3,155,87z"/>
	<path class="st3" d="M183.8,159.2l-3.1,13.8c-0.3,1.5,0.5,3,1.9,3.5l15.2,5.4c0.7,0.2,1.3,0.7,1.6,1.3l7.4,13.1
		c0.9,1.6,0.2,3.6-1.5,4.3l-13.1,5.4c-1.7,0.7-2.3,2.6-1.5,4.2l6.8,12.4c0.8,1.4,2.5,2,3.9,1.3l54.6-25.3c1.5-0.7,2.2-2.6,1.4-4.1
		l-6.9-13.4c-0.8-1.5-2.5-2-4-1.3l-16.2,7.9c-1.4,0.7-3,0.2-3.8-1.1l-13.6-21.4c-0.4-0.6-1-1.1-1.7-1.3l-23.7-7
		C185.9,156.5,184.2,157.5,183.8,159.2z"/>
	<path class="st2" d="M264.5,223h-2.9v-1.5h2.5c0.4,0,0.8-0.1,1.1-0.2c0.3-0.1,0.5-0.3,0.6-0.5c0.2-0.2,0.2-0.5,0.2-0.8
		c0-0.4-0.1-0.7-0.2-0.9c-0.1-0.2-0.3-0.4-0.6-0.5c-0.3-0.1-0.7-0.2-1.1-0.2h-1.8v9.7h-2.1v-11.4h3.9c0.7,0,1.2,0.1,1.7,0.2
		s0.9,0.3,1.3,0.6c0.4,0.3,0.6,0.6,0.8,1c0.2,0.4,0.3,0.8,0.3,1.4c0,0.5-0.1,0.9-0.3,1.3c-0.2,0.4-0.5,0.7-1,1
		c-0.4,0.2-1,0.4-1.7,0.4L264.5,223z M264.4,228.1H261l0.9-1.7h2.5c0.4,0,0.8-0.1,1.1-0.2c0.3-0.1,0.5-0.3,0.6-0.6
		c0.1-0.2,0.2-0.5,0.2-0.9s-0.1-0.7-0.2-0.9c-0.1-0.3-0.3-0.5-0.6-0.6c-0.3-0.1-0.6-0.2-1-0.2h-2.2v-1.5h2.8l0.5,0.6
		c0.7,0,1.2,0.1,1.6,0.4s0.7,0.6,0.9,1c0.2,0.4,0.3,0.8,0.3,1.3c0,0.7-0.2,1.3-0.5,1.8s-0.8,0.9-1.4,1.1
		C266,228,265.3,228.1,264.4,228.1z M271.8,219.6l1.5,2.7l1.5-2.7h2.2l-2.5,4.1l2.6,4.3h-2.2l-1.6-2.8l-1.6,2.8h-2.2l2.6-4.3
		l-2.5-4.1H271.8z M277.7,224v-0.2c0-0.6,0.1-1.2,0.3-1.7c0.2-0.5,0.4-1,0.8-1.4c0.3-0.4,0.8-0.7,1.2-0.9c0.5-0.2,1.1-0.3,1.7-0.3
		s1.2,0.1,1.7,0.3c0.5,0.2,0.9,0.5,1.2,0.9c0.3,0.4,0.6,0.8,0.8,1.4c0.2,0.5,0.3,1.1,0.3,1.7v0.2c0,0.6-0.1,1.2-0.3,1.7
		c-0.2,0.5-0.4,1-0.8,1.4c-0.3,0.4-0.8,0.7-1.2,0.9c-0.5,0.2-1,0.3-1.7,0.3s-1.2-0.1-1.7-0.3c-0.5-0.2-0.9-0.5-1.2-0.9
		c-0.3-0.4-0.6-0.8-0.8-1.4S277.7,224.6,277.7,224z M279.7,223.8v0.2c0,0.4,0,0.7,0.1,1s0.2,0.6,0.3,0.9c0.2,0.2,0.3,0.4,0.6,0.6
		c0.2,0.1,0.5,0.2,0.9,0.2c0.3,0,0.6-0.1,0.9-0.2c0.2-0.1,0.4-0.3,0.6-0.6c0.2-0.2,0.3-0.5,0.3-0.9c0.1-0.3,0.1-0.7,0.1-1v-0.2
		c0-0.4,0-0.7-0.1-1s-0.2-0.6-0.3-0.9c-0.2-0.2-0.3-0.4-0.6-0.6c-0.2-0.1-0.5-0.2-0.9-0.2c-0.3,0-0.6,0.1-0.9,0.2
		c-0.2,0.1-0.4,0.3-0.6,0.6c-0.2,0.2-0.3,0.5-0.3,0.9C279.8,223.1,279.7,223.4,279.7,223.8z M288.1,219.6h2.1l-0.1,2.9
		c0,0.9-0.1,1.6-0.3,2.3c-0.2,0.6-0.4,1.2-0.7,1.6c-0.3,0.4-0.6,0.8-1,1c-0.4,0.3-0.8,0.5-1.2,0.6h-0.5v-1.6h0.2
		c0.2-0.3,0.4-0.5,0.6-0.8s0.3-0.5,0.4-0.8s0.2-0.6,0.2-1c0.1-0.4,0.1-0.8,0.1-1.3L288.1,219.6z M288.6,219.6h5.5v8.5H292v-6.8h-3.4
		V219.6z M285.9,226.5h9.4v4.2h-2.1v-2.6H288v2.5h-2.1L285.9,226.5L285.9,226.5z M302.2,223.1v1.6h-4.3v-1.6H302.2z M298.5,219.6
		v8.5h-2.1v-8.5H298.5z M303.7,219.6v8.5h-2.1v-8.5H303.7z M310.2,226.3v-3.9c0-0.3-0.1-0.5-0.2-0.7s-0.2-0.4-0.4-0.5
		c-0.2-0.1-0.5-0.2-0.8-0.2s-0.5,0-0.7,0.1s-0.4,0.2-0.5,0.4c-0.1,0.2-0.2,0.4-0.2,0.6h-2.1c0-0.3,0.1-0.7,0.2-1
		c0.2-0.3,0.4-0.6,0.7-0.8c0.3-0.2,0.7-0.4,1.1-0.6c0.4-0.1,0.9-0.2,1.5-0.2s1.2,0.1,1.7,0.3c0.5,0.2,0.9,0.5,1.2,1
		c0.3,0.4,0.4,1,0.4,1.6v3.7c0,0.4,0,0.8,0.1,1.1c0.1,0.3,0.1,0.6,0.2,0.8v0.1h-2.1c-0.1-0.2-0.2-0.5-0.2-0.8
		C310.2,227,310.2,226.6,310.2,226.3z M310.5,223v1.2h-1.3c-0.3,0-0.6,0-0.8,0.1c-0.2,0.1-0.5,0.2-0.6,0.3c-0.2,0.1-0.3,0.3-0.3,0.4
		c-0.1,0.2-0.1,0.4-0.1,0.6s0,0.4,0.1,0.6s0.2,0.3,0.4,0.4c0.2,0.1,0.4,0.1,0.7,0.1c0.4,0,0.7-0.1,1-0.2c0.3-0.2,0.5-0.3,0.6-0.5
		c0.2-0.2,0.2-0.4,0.2-0.6l0.6,0.9c-0.1,0.2-0.2,0.4-0.3,0.7c-0.2,0.2-0.3,0.5-0.6,0.7c-0.2,0.2-0.5,0.4-0.8,0.5s-0.7,0.2-1.1,0.2
		c-0.5,0-1-0.1-1.5-0.3c-0.4-0.2-0.8-0.5-1-0.9s-0.4-0.8-0.4-1.3c0-0.4,0.1-0.8,0.3-1.2c0.2-0.3,0.4-0.6,0.7-0.9
		c0.3-0.2,0.7-0.4,1.2-0.5s1.1-0.2,1.7-0.2h1.3L310.5,223L310.5,223z M315.9,223.9h2.1l-2.4,4.2h-2.1L315.9,223.9z M317.4,219.6h3.7
		v8.5H319v-6.8h-1.6c-0.3,0-0.6,0.1-0.8,0.2c-0.2,0.1-0.4,0.3-0.5,0.5s-0.2,0.4-0.2,0.6s0.1,0.4,0.1,0.5c0.1,0.2,0.2,0.3,0.5,0.4
		c0.2,0.1,0.5,0.2,0.8,0.2h2.4v1.5h-2.4c-0.5,0-1-0.1-1.4-0.2s-0.8-0.3-1.1-0.6c-0.3-0.2-0.5-0.5-0.7-0.8s-0.2-0.7-0.2-1.1
		s0.1-0.8,0.2-1.1s0.4-0.6,0.7-0.9c0.3-0.2,0.7-0.4,1.1-0.6C316.3,219.7,316.8,219.6,317.4,219.6z M265.7,238.6v1.6h-3.6v6.8H260
		v-8.5h5.7V238.6z M268.8,240.3v10.1h-2.1v-11.7h1.9L268.8,240.3z M274.2,242.8v0.2c0,0.6-0.1,1.2-0.2,1.7s-0.4,1-0.6,1.4
		c-0.3,0.4-0.6,0.7-1,0.9c-0.4,0.2-0.9,0.3-1.4,0.3s-1-0.1-1.4-0.3c-0.4-0.2-0.7-0.5-1-0.9s-0.5-0.8-0.6-1.3c-0.2-0.5-0.3-1-0.3-1.6
		v-0.5c0.1-0.6,0.2-1.2,0.3-1.7c0.2-0.5,0.4-1,0.6-1.3c0.3-0.4,0.6-0.7,1-0.9c0.4-0.2,0.8-0.3,1.3-0.3s1,0.1,1.4,0.3s0.8,0.5,1,0.9
		c0.3,0.4,0.5,0.8,0.6,1.4C274.2,241.6,274.2,242.1,274.2,242.8z M272.2,243v-0.2c0-0.4,0-0.7-0.1-1s-0.2-0.6-0.3-0.8
		c-0.1-0.2-0.3-0.4-0.6-0.6c-0.2-0.1-0.5-0.2-0.8-0.2s-0.6,0.1-0.8,0.2c-0.2,0.1-0.4,0.3-0.6,0.4c-0.1,0.2-0.3,0.4-0.3,0.7
		c-0.1,0.3-0.1,0.5-0.2,0.9v1.3c0,0.4,0.1,0.7,0.3,1c0.1,0.3,0.3,0.6,0.6,0.7c0.3,0.2,0.6,0.3,1,0.3c0.3,0,0.6-0.1,0.8-0.2
		c0.2-0.1,0.4-0.3,0.6-0.6c0.1-0.2,0.2-0.5,0.3-0.9C272.1,243.7,272.2,243.3,272.2,243z M278.1,246.2l2.3-7.5h2.2l-3.4,9.7
		c-0.1,0.2-0.2,0.4-0.3,0.7c-0.1,0.2-0.3,0.5-0.5,0.7s-0.5,0.4-0.8,0.5s-0.7,0.2-1.1,0.2c-0.2,0-0.3,0-0.5,0c-0.1,0-0.3-0.1-0.5-0.1
		v-1.5c0.1,0,0.1,0,0.2,0s0.1,0,0.2,0c0.3,0,0.6,0,0.8-0.1c0.2-0.1,0.3-0.2,0.5-0.3c0.1-0.2,0.2-0.3,0.3-0.6L278.1,246.2z
		 M277,238.6l1.9,6.2l0.3,2.2l-1.4,0.3l-3.1-8.7H277z M289.3,238.6v1.6h-4.1v-1.6H289.3z M285.7,238.6v8.5h-2.1v-8.5H285.7z
		 M290.8,238.6v8.5h-2.1v-8.5H290.8z M298.4,238.6v1.6h-4.1v-1.6H298.4z M294.8,238.6v8.5h-2.1v-8.5H294.8z M299.9,238.6v8.5h-2.1
		v-8.5H299.9z M306.5,245.3v-3.9c0-0.3-0.1-0.5-0.2-0.7s-0.2-0.4-0.4-0.5c-0.2-0.1-0.5-0.2-0.8-0.2s-0.5,0-0.7,0.1s-0.4,0.2-0.5,0.4
		c-0.1,0.2-0.2,0.4-0.2,0.6h-2.1c0-0.3,0.1-0.7,0.2-1c0.2-0.3,0.4-0.6,0.7-0.8c0.3-0.2,0.7-0.4,1.1-0.6c0.4-0.1,0.9-0.2,1.5-0.2
		c0.7,0,1.2,0.1,1.7,0.3c0.5,0.2,0.9,0.5,1.2,1c0.3,0.4,0.4,1,0.4,1.6v3.7c0,0.4,0,0.8,0.1,1.1c0.1,0.3,0.1,0.6,0.2,0.8v0.1h-2.1
		c-0.1-0.2-0.2-0.5-0.2-0.8C306.5,246,306.5,245.6,306.5,245.3z M306.8,242v1.2h-1.3c-0.3,0-0.6,0-0.8,0.1c-0.2,0.1-0.4,0.2-0.6,0.3
		c-0.2,0.1-0.3,0.3-0.4,0.4c-0.1,0.2-0.1,0.4-0.1,0.6s0.1,0.4,0.1,0.6c0.1,0.2,0.2,0.3,0.4,0.4c0.2,0.1,0.4,0.1,0.7,0.1
		c0.4,0,0.7-0.1,0.9-0.2c0.3-0.2,0.5-0.3,0.6-0.5c0.2-0.2,0.2-0.4,0.2-0.6l0.6,0.9c-0.1,0.2-0.2,0.4-0.3,0.7
		c-0.1,0.2-0.3,0.5-0.6,0.7c-0.2,0.2-0.5,0.4-0.8,0.5s-0.7,0.2-1.1,0.2c-0.6,0-1-0.1-1.5-0.3c-0.4-0.2-0.8-0.5-1-0.9
		s-0.4-0.8-0.4-1.3c0-0.4,0.1-0.8,0.2-1.2c0.2-0.3,0.4-0.6,0.7-0.9c0.3-0.2,0.7-0.4,1.2-0.5s1.1-0.2,1.7-0.2h1.6L306.8,242
		L306.8,242z"/>
</g>
</svg>
