<?xml version="1.0" encoding="utf-8"?>
<!-- Generator: Adobe Illustrator 26.4.1, SVG Export Plug-In . SVG Version: 6.00 Build 0)  -->
<svg version="1.1" id="Слой_1" xmlns="http://www.w3.org/2000/svg" xmlns:xlink="http://www.w3.org/1999/xlink" x="0px" y="0px"
	 viewBox="0 0 1254 523" style="enable-background:new 0 0 1254 523;" xml:space="preserve">
<style type="text/css">
	.st0{fill:#D8F3FE;}
	.st1{fill:url(#SVGID_1_);}
	.st2{fill:#FFFFFF;}
</style>
<g>
	<circle class="st0" cx="362" cy="304" r="22"/>
	
		<linearGradient id="SVGID_1_" gradientUnits="userSpaceOnUse" x1="379" y1="563" x2="345" y2="597" gradientTransform="matrix(1 0 0 1 0 -276)">
		<stop  offset="0" style="stop-color:#48F2FA"/>
		<stop  offset="1" style="stop-color:#604AF4"/>
	</linearGradient>
	<circle class="st1" cx="362" cy="304" r="17"/>
	<path class="st2" d="M358.5,298.8L358.5,298.8h0.4l1.1-0.1h0.6h0.6l0.5-0.1l0.9-0.2v-0.1l0.4-0.1V298h0.6l0.2-0.1h0.3l0.1-0.1h0.1
		l0.3,0.1v-0.1l0.1-0.1h0.2l-0.1-0.2h0.2l0.2-0.1h0.4h0.1l0.2-0.2l0.2-0.1h0.1l0,0h0.5h0.3l1.1-0.2l0.2-0.1l0.2-0.1h0.3l0.2,0.1
		l0.6-0.3l0.5-0.4l0.4-0.2l0,0v0.5l-0.1,0.5l-0.1,0.3l-0.2,0.3l0.1,0.1l0.2,0.2l0.1,0.4l0.1,0.5l0.2,0.5l0.5,0.5l0.6,0.4l0.2,0.1
		l0.2,0.1l0.2,0.1l0.3,0.3v0.2l-0.3,0.2l-0.4,0.2l-0.9,0.2H371h-0.3h-0.3l-0.9-0.2l-0.1,0.2v0.3l-0.1,0.3l-0.1-0.1l0,0l-0.3,0.5
		l-0.1-0.2l-0.2,0.2l-0.1,0.2h-0.1l-0.2-0.1l-0.1,0.3l-0.2-0.1v0.1v0.1h-0.1l0,0l-0.1-0.1l-0.1,0.1l-0.2,0.1l-0.1,0.1l-0.1,0.2
		l-0.1,0.3L367,304l-0.1,0.2l-0.1,0.2l-0.5,0.6l-0.2,0.7l-0.1,1.4l0.1,1.4l0.1,0.8l0.1,0.4l0.1,0.4v0.1v0.1l0.2,0.6l0.2,0.1l0.2-0.1
		h0.2l0.2,0.1l0.2,0.2l0.2,0.3l0.2,0.2v0.1l-0.2,0.1h-0.2l-0.1,0.1l-0.2,0.1h-0.2L367,312l0,0h-0.5l-0.4-0.1l-0.2-0.2l-0.1-0.2v-0.4
		l-0.2-0.4l-0.1-0.9v-0.1l-0.1-0.4v-0.4l-0.1-0.1v-0.6h-0.2v-1.1l-0.3-1.1l-0.1-0.3l-0.1-0.3l-0.4,0.2l-0.1,0.2v0.2l0.2,1.9l0.4,2.2
		l0.1,0.4l0.2,0.3l0.5,0.3l0.4,0.4l0.1,0.4h-0.5h-0.2l-0.2-0.1l-0.2,0.1H364l-0.1-0.1l-0.4-0.3l-0.2-0.2l-0.1-0.3l-0.1-0.3l-0.1-0.6
		V310v-0.2v-0.1v-0.2l-0.1-0.1v-0.5l-0.1-0.5v-0.2V308h-0.2v-0.2v-0.4l-0.1-0.2V307v-0.2v-0.2l-0.1-0.7l-0.2-0.6l-0.3-0.5l0,0
		l-0.5,0.3l-0.2-0.2l-0.1-0.2v-0.1l-0.3,0.2h-0.3v-0.3h-0.4v-0.2h-0.3l-0.1-0.1V304l-0.2,0.1h-0.3L359,305l-0.1,0.3l-0.1,0.2
		l-0.4,0.5l-0.6,0.5l-0.1,0.1l-0.9,0.9l-0.3,0.4l-0.1,0.1l-0.1,0.6l0.1,0.6l0.1,0.4l0.4,0.6l0.4,0.2l0.8,0.1l0.3,0.2v0.4h-0.2
		l-0.4,0.1v0.2l-0.5-0.1l-0.4-0.1l-0.1-0.1h-0.2h-0.3l-0.1-0.1l-0.2-0.6l-0.6-1l-0.3-0.5l-0.2-0.6l0.3-0.5l0.4-0.6l0.1-0.1l0.2-0.3
		l0.3-0.6l0.1-0.5l-0.2,0.2l-0.5,0.5l-0.1,0.1l-0.2,0.2v0.2l-0.2,0.3v0.3l-0.1,0.2l-0.2,0.1v0.6h-0.1v0.3l-0.1,0.3l-0.2,0.1
		l-0.2,0.5l-0.2-0.1l-0.1,0.2l-0.1,0.2l-0.3-0.2l0.2,0.8l0.1,0.2l0.3,0.1l0.2,0.1l0.2,0.2l0.1,0.1l0.1,0.1l-0.1,0.2h-0.3v0.1H354
		h-0.1h-0.1h-0.1l-0.1-0.1l-0.2,0.1h-0.3l-0.4-0.2l-0.2-0.3l-0.1-0.5v-0.5v-0.5v-0.5l-0.1-0.5v-0.3l0.2-0.3l0.1-0.1l0.2-0.2
		l-0.1-0.4V307v-0.3l0.1-0.3l0.2-0.9v-1v-0.7l0.1-0.8l0.1-0.4l0.1-0.2l0.2-0.6l0.2-0.3l0.1-0.3l0.1-0.3l0.2-0.3l0.2-0.3l0.1-0.2
		l0.5-0.5l0.6-0.4l0.5-0.2l0.5-0.1h0.6h0.6h0.3h0.4L358.5,298.8L358.5,298.8L358.5,298.8L358.5,298.8z"/>
</g>
</svg>
