<?xml version="1.0" encoding="utf-8"?>
<!-- Generator: Adobe Illustrator 26.4.1, SVG Export Plug-In . SVG Version: 6.00 Build 0)  -->
<svg version="1.1" id="Слой_1" xmlns="http://www.w3.org/2000/svg" xmlns:xlink="http://www.w3.org/1999/xlink" x="0px" y="0px"
	 viewBox="0 0 44 44" style="enable-background:new 0 0 44 44;" xml:space="preserve">
<style type="text/css">
	.st0{fill:#D8F3FE;}
	.st1{fill:url(#SVGID_1_);}
	.st2{fill:#FFFFFF;}
</style>
<g>
	<circle class="st0" cx="22" cy="22" r="22"/>
	
		<linearGradient id="SVGID_1_" gradientUnits="userSpaceOnUse" x1="39" y1="-321" x2="5" y2="-355" gradientTransform="matrix(1 0 0 -1 0 -316)">
		<stop  offset="0" style="stop-color:#48F2FA"/>
		<stop  offset="1" style="stop-color:#604AF4"/>
	</linearGradient>
	<circle class="st1" cx="22" cy="22" r="17"/>
	<path class="st2" d="M18.5,16.8L18.5,16.8h0.4l1.1-0.1h0.6h0.6l0.5-0.1l0.9-0.2v-0.1l0.4-0.1V16h0.6l0.2-0.1h0.3l0.1-0.1h0.1
		l0.3,0.1v-0.1l0.1-0.1h0.2l-0.1-0.2H25l0.2-0.1h0.4h0.1l0.2-0.2l0.2-0.1h0.1l0,0h0.5H27l1.1-0.2l0.2-0.1l0.2-0.1h0.3l0.2,0.1
		l0.6-0.3l0.5-0.4l0.4-0.2l0,0v0.5l-0.1,0.5l-0.1,0.3l-0.2,0.3l0.1,0.1l0.2,0.2l0.1,0.4l0.1,0.5l0.2,0.5l0.5,0.5l0.6,0.4l0.2,0.1
		l0.2,0.1l0.2,0.1l0.3,0.3v0.2l-0.3,0.2l-0.4,0.2l-0.9,0.2H31h-0.3h-0.3l-0.9-0.2l-0.1,0.2v0.3l-0.1,0.3L29.2,20l0,0l-0.3,0.5
		l-0.1-0.2l-0.2,0.2l-0.1,0.2h-0.1l-0.2-0.1l-0.1,0.3l-0.2-0.1v0.1V21h-0.1l0,0l-0.1-0.1L27.6,21l-0.2,0.1l-0.1,0.1l-0.1,0.2
		l-0.1,0.3L27,22l-0.1,0.2l-0.1,0.2L26.3,23l-0.2,0.7L26,25.1l0.1,1.4l0.1,0.8l0.1,0.4l0.1,0.4v0.1v0.1l0.2,0.6l0.2,0.1l0.2-0.1h0.2
		l0.2,0.1l0.2,0.2l0.2,0.3l0.2,0.2v0.1l-0.2,0.1h-0.2L27.5,30l-0.2,0.1h-0.2L27,30l0,0h-0.5l-0.4-0.1l-0.2-0.2l-0.1-0.2v-0.4
		l-0.2-0.4l-0.1-0.9v-0.1l-0.1-0.4v-0.4l-0.1-0.1v-0.6h-0.2v-1.1L24.8,24l-0.1-0.3l-0.1-0.3l-0.4,0.2l-0.1,0.2V24l0.2,1.9l0.4,2.2
		l0.1,0.4l0.2,0.3l0.5,0.3l0.4,0.4l0.1,0.4h-0.5h-0.2l-0.2-0.1l-0.2,0.1H24l-0.1-0.1l-0.4-0.3l-0.2-0.2L23.2,29l-0.1-0.3L23,28.1V28
		v-0.2v-0.1v-0.2l-0.1-0.1v-0.5l-0.1-0.5v-0.2V26h-0.2v-0.2v-0.4l-0.1-0.2V25v-0.2v-0.2l-0.1-0.7l-0.2-0.6l-0.3-0.5l0,0l-0.5,0.3
		l-0.2-0.2l-0.1-0.2v-0.1l-0.3,0.2h-0.3v-0.3h-0.4v-0.2h-0.3l-0.1-0.1V22l-0.2,0.1h-0.3L19,23l-0.1,0.3l-0.1,0.2L18.4,24l-0.6,0.5
		l-0.1,0.1l-0.9,0.9l-0.3,0.4L16.4,26l-0.1,0.6l0.1,0.6l0.1,0.4l0.4,0.6l0.4,0.2l0.8,0.1l0.3,0.2v0.4h-0.2l-0.4,0.1v0.2l-0.5-0.1
		l-0.4-0.1l-0.1-0.1h-0.2h-0.3L16.2,29L16,28.4l-0.6-1l-0.3-0.5l-0.2-0.6l0.3-0.5l0.4-0.6l0.1-0.1l0.2-0.3l0.3-0.6l0.1-0.5l-0.2,0.2
		l-0.5,0.5l-0.1,0.1l-0.2,0.2v0.2l-0.2,0.3v0.3L15,25.7l-0.2,0.1v0.6h-0.1v0.3L14.6,27l-0.2,0.1l-0.2,0.5L14,27.5l-0.1,0.2l-0.1,0.2
		l-0.3-0.2l0.2,0.8l0.1,0.2l0.3,0.1l0.2,0.1l0.2,0.2l0.1,0.1l0.1,0.1l-0.1,0.2h-0.3v0.1H14h-0.1h-0.1h-0.1l-0.1-0.1l-0.2,0.1h-0.3
		l-0.4-0.2l-0.2-0.3l-0.1-0.5v-0.5v-0.5v-0.5l-0.1-0.5v-0.3l0.2-0.3l0.1-0.1l0.2-0.2l-0.1-0.4V25v-0.3l0.1-0.3l0.2-0.9v-1v-0.7
		l0.1-0.8l0.1-0.4l0.1-0.2l0.2-0.6l0.2-0.3l0.1-0.3l0.1-0.3l0.2-0.3l0.2-0.3l0.1-0.2l0.5-0.5l0.6-0.4L16,17l0.5-0.1h0.6h0.6H18h0.4
		L18.5,16.8L18.5,16.8L18.5,16.8L18.5,16.8z"/>
</g>
</svg>
