<?xml version="1.0" encoding="utf-8"?>
<!-- Generator: Adobe Illustrator 26.4.1, SVG Export Plug-In . SVG Version: 6.00 Build 0)  -->
<svg version="1.1" id="Слой_1" xmlns="http://www.w3.org/2000/svg" xmlns:xlink="http://www.w3.org/1999/xlink" x="0px" y="0px"
	 viewBox="0 0 1254 523" style="enable-background:new 0 0 1254 523;" xml:space="preserve">
<style type="text/css">
	.st0{fill:#FFFFFF;stroke:#E3F7FF;stroke-width:3;}
	.st1{fill:none;stroke:#BFEDFF;stroke-width:3;}
	.st2{fill:none;stroke:#E3F7FF;stroke-width:3;}
	.st3{fill:#E3F7FF;}
	.st4{fill:#BFEDFF;stroke:#E3F7FF;}
	.st5{fill:#E3F7FF;stroke:#E3F7FF;}
	.st6{fill:none;stroke:#3BC4FB;stroke-width:4;}
	.st7{fill:#4DCDF8;}
	.st8{fill:none;stroke:#4DCDF8;stroke-width:4;}
	.st9{fill:none;stroke:#4DCDF8;stroke-width:4;stroke-linecap:round;}
	.st10{opacity:0.98;fill:none;stroke:#4DCDF8;stroke-width:4;enable-background:new    ;}
	.st11{fill:#E3F7FF;stroke:#BFEDFF;stroke-width:8;}
</style>
<path class="st0" d="M69.3,324.4l44.3,9.9c1,0.2,1.9,0.9,2.5,1.7l40.8,63.7c0.5,0.9,1.4,1.5,2.4,1.7l64.2,16.3
	c1.5,0.4,2.6,1.5,2.9,3l5,22.8c0.1,0.4,0.1,0.9,0.1,1.4l-5.3,41.1c-0.2,1.4,0.4,2.7,1.4,3.6l20.3,17c0.5,0.4,1,0.7,1.6,0.8l25.8,6.5
	c0.5,0.1,1,0.2,1.5,0.1l107.9-14.4c0.7-0.1,1.4,0,2.1,0.3l49.6,20.6c0.9,0.4,1.9,0.4,2.9,0.1l129.5-45.9c0.3-0.1,0.6-0.2,1-0.2
	l179.6-16c2.3-0.2,4.4,1.6,4.4,4v27.2c0,2.1,1.7,3.9,3.8,4l106.1,5.7c1.6,0.1,3.1-0.8,3.8-2.3l12.6-26.1c0.3-0.5,0.4-1.1,0.4-1.7
	v-23.5c0-0.9,0.3-1.8,0.9-2.5l22.3-27.4c0.9-1,1.1-2.4,0.7-3.7L891,369.7c-0.1-0.2-0.1-0.4-0.1-0.6l-18.5-120.6
	c-0.2-1.5,0.4-3,1.7-3.9l29.4-20.7c1.1-0.8,2.4-0.9,3.7-0.5l16.5,6c0.3,0.1,0.6,0.2,0.9,0.2l212.6,23.2c0.4,0,0.9,0.2,1.3,0.4
	l45.7,22c2.1,1,4.5,0.1,5.4-2l42.6-99.9c0.2-0.4,0.3-0.8,0.3-1.3l6.3-83.6c0.2-2.1-1.4-4-3.5-4.3l-68.6-8.9c-0.3,0-0.6-0.1-0.9-0.2
	l-54.7-21.2c-0.4-0.2-0.8-0.2-1.3-0.3l-89.2-4.1c-2.1-0.1-3.9,1.5-4.2,3.6l-3.9,34.7c-0.2,2.1-2.1,3.7-4.3,3.5l-83.7-6.6
	c-0.3,0-0.5,0-0.8,0l-57.3,6.9h-55.5c-0.2,0-0.4,0-0.6,0l-44.6-6.8c-0.3-0.1-0.7-0.1-1-0.3l-44.9-19.6l-53.3-15.3
	c-0.4-0.1-0.9-0.2-1.3-0.2l-160,7.7c-0.7,0-1.3,0.2-1.9,0.6L310,175l-67.8,33.5c-0.2,0.1-0.4,0.2-0.7,0.3l-73.1,21.4
	c-0.2,0.1-0.4,0.1-0.6,0.1l-52.7,6.9H5.9c-2.3,0-4.1,1.9-4,4.2l4.3,73.3c0.1,1.6,1.2,3,2.7,3.5l16.7,5.8c0.4,0.1,0.9,0.2,1.3,0.2
	h41.4C68.7,324.3,69,324.3,69.3,324.4z"/>
<g>
	<path class="st1" d="M522.8,57.2v31.5c0,2.8-0.9,5.4-2.7,7.6l-15.3,18.8c-1.6,1.9-2.5,4.3-2.7,6.7l-2.6,36.8v24.2v58.8
		c0,1-0.1,2.1-0.4,3.1l-3.9,14.4"/>
	<path class="st2" d="M244,280.5c-6.7-26.6-9.9-40.1-11.5-69.5"/>
	<path class="st2" d="M314.5,247.5c-3.5-24.5-8-42-24.5-62"/>
	<path class="st2" d="M192.7,410.2l274.4-105.7c4.7-1.8,8.6-5.3,10.8-9.9l17.8-36.4"/>
	<path class="st3" d="M325,410.1c0.8-0.2,1.3-1,1.2-1.8s-1-1.3-1.8-1.2L325,410.1z M228.7,486.7l1.5,0.2L228.7,486.7z M229.3,487.7
		l0.7-1.3L229.3,487.7z M234.2,447.2l-1.2-1L234.2,447.2z M233.8,448.2l-1.5-0.2L233.8,448.2z M244.4,434.6l-1.5-0.3L244.4,434.6z
		 M249.4,415.9l-0.1,1.5L249.4,415.9z M247.3,417.6l-1.5-0.3L247.3,417.6z M278.6,418.5l0.3,1.5L278.6,418.5z M278,418.5l0.1-1.5
		L278,418.5z M324.3,407.2l-46,9.9l0.6,2.9l46-9.9L324.3,407.2z M278.1,417l-28.6-2.6l-0.3,3l28.6,2.6L278.1,417z M245.8,417.3
		l-2.9,17.1l3,0.5l2.9-17.1L245.8,417.3z M242.8,434.6l-9.7,11.7l2.3,1.9l9.7-11.7L242.8,434.6z M232.3,448l-5,38.4l3,0.4l5-38.4
		L232.3,448z M228.5,489l28.2,15.6l1.5-2.6L230,486.4L228.5,489z M227.3,486.5c-0.1,1,0.4,2,1.3,2.5l1.5-2.6
		c0.2,0.1,0.3,0.3,0.3,0.5L227.3,486.5z M233.1,446.3c-0.4,0.5-0.7,1.1-0.8,1.8l3,0.4c0-0.1,0.1-0.2,0.1-0.3L233.1,446.3z
		 M242.9,434.4c0,0.1-0.1,0.2-0.1,0.2l2.3,1.9c0.4-0.5,0.7-1,0.8-1.7L242.9,434.4z M249.6,414.4c-1.8-0.2-3.5,1.1-3.8,2.9l3,0.5
		c0-0.3,0.3-0.4,0.5-0.4L249.6,414.4z M278.3,417h-0.1l-0.3,3c0.4,0,0.7,0,1.1-0.1L278.3,417z"/>
	<path class="st4" d="M1163.4,229.7l-14.1,27.8l34.8,16.7c2.1,1,4.5,0.1,5.4-2l42.9-99.9c0.2-0.4,0.3-0.8,0.3-1.3l6.3-82.7
		c0.2-2.1-1.4-4-3.5-4.3l-23.8-3l-0.8,6.1c-0.3,2.3,1.4,4.4,3.7,4.5l9.9,0.8c1.4,0.1,2.7-0.9,3-2.3c0.3-1.5,1.7-2.5,3.2-2.3l0.7,0.1
		c1.9,0.2,3.2,1.9,3.1,3.8l-0.9,13.1c-0.2,2.1-1.9,3.7-4,3.7h-0.6c-2.1,0-3.8,1.6-4,3.7l-3.9,54.9c-0.1,1.2,0.4,2.4,1.3,3.3l0.7,0.6
		c1.3,1.2,1.7,3,1,4.6l-21.1,48.6c-0.6,1.5-2.1,2.4-3.7,2.4l0,0c-1.6,0-3,0.9-3.6,2.3l-10.2,22.2c-0.9,1.9-3.1,2.8-5.1,2.1l-6.9-2.7
		c-2.1-0.8-3.1-3.2-2.2-5.3l4.4-10.4c0.9-2.1-0.2-4.5-2.3-5.3l-4.6-1.7C1166.4,227,1164.3,227.9,1163.4,229.7z"/>
	<path class="st2" d="M526.6,320.1h-41.8c-2.2,0-4,1.8-4,4.1l0.6,33.7 M526.6,320.1v-38.5c0-2.2,1.8-4,4-4h24.1
		c0.5,0,0.9,0.1,1.4,0.2l36.2,13c1.6,0.6,2.6,2.1,2.6,3.8v25.5 M526.6,320.1h68.3 M526.6,320.1v37.3 M526.6,357.5l-45.2,0.4
		 M526.6,357.5h69.1 M594.9,320.1l0.8,37.3 M481.4,357.9l0.7,37.8l113.6-1.3v-36.9"/>
	<path class="st2" d="M341.6,425.4l10.8,6.1c0.3,0.2,0.7,0.3,1.1,0.3l17.5-1.2c0.8-0.1,1.4-0.5,1.7-1.2l6-14.7
		c0.1-0.3,0.3-0.5,0.5-0.7l18.3-17c0.2-0.2,0.4-0.3,0.7-0.4l30.6-10.8c0.4-0.1,0.9-0.2,1.3,0l34.5,10.8c0.2,0.1,0.4,0.1,0.6,0.1
		l130.1-1.7v74c0,1.2,1,2.1,2.2,2l146.7-12.5c1-0.1,1.8-0.9,1.8-1.9l1.3-20.1l5.8-34.7c1.2-7,4.2-13.6,8.8-19.1l13.8-16.5"/>
	<path class="st2" d="M869.4,394.6l7.5,3.2c8.4,3.6,15.7,9.4,21,16.8l2.7,3.8"/>
	<path class="st2" d="M833.5,257c15.6,2.5,27.8-7.8,31-15"/>
	<path class="st2" d="M862.3,281.8l-1.1-7.9c-0.8-5.9-1.1-11.9-0.7-17.9l0.1-1.4c0.2-3.1,0.9-6.2,2.1-9l2-4.6
		c2.9-6.7,9.3-11.2,16.5-11.6l0,0c10.6-0.6,18.7-9.7,18.1-20.3l-0.4-6.6c-0.5-7.4,2.4-14.6,7.8-19.6l0,0c5.4-5,12.7-7.4,20-6.5
		l16.2,2.1c1.9,0.2,3.8,0.7,5.6,1.5l0,0c3.8,1.6,7.3,3.8,10.3,6.6l11.5,10.8l1.5,1.2c7.1,5.5,15.3,9.2,24,10.9l0,0
		c4.3,0.8,8.7,1.2,13.1,1l22.1-0.8l19.3-0.7c6.2-0.2,12.3-1.9,17.8-4.9l7.1-3.9c10.5-5.8,23.1-6.6,34.2-2.1l8.8,3.6
		c3.8,1.5,7.7,2.4,11.7,2.8l11.5,0.9c12.4,1,24-4.3,31-14.5c0.7-1,1.3-1.9,2.1-2.9c2-2.6,3.9-5.3,5.5-8.2
		c13.6-25.8,19.5-40.9-6.1-47.7c-3.7-1-7.6-2-10.6-4.5c-10.3-8.5-8-22.4,3-51.6"/>
	<circle class="st2" cx="83.2" cy="262.5" r="19"/>
	<circle class="st2" cx="348.5" cy="216.5" r="11.5"/>
	<path class="st3" d="M347.1,198.4l-5,8c5.5-2.8,7.9-2.6,11.8-0.4l-1.7-4.7c-0.4-1.1-0.1-2.2,0.6-3.1l10.6-11.4c1-1.1,1.1-2.8,0.1-4
		l-20.2-24.4c-1-1.2-2.6-1.4-3.9-0.6l-5.3,3.3c-1.5,0.9-1.9,3-0.8,4.4l14.1,18.4c1,1.3,2.7,1.5,4.1,0.6c2.9-2,6.3,1.8,3.9,4.5l-8,9
		C347.3,198.2,347.2,198.3,347.1,198.4z"/>
	<path class="st2" d="M96.7,274.3c13.9,13,23.2,19.9,40.8,28.7c3.1,1.5,6.3,2.6,9.7,3.3l11.3,2.3c2,0.4,4,0.7,6.1,0.7
		c13,0.4,20.5-0.5,29.8-2.6c3.9-0.9,7.6-2.4,11-4.5l44.1-26.3c1.8-1.1,3.7-2,5.7-2.8l56.2-22.3c4.6-1.8,8.8-4.6,12.6-7.9
		c11.4-10,20.2-14.8,35.2-16.6c2.4-0.3,4.9-0.2,7.3,0.1c20.4,2.6,31.2,7.9,50.2,16l28.8,13.5c5.3,2.5,11.1,3.8,17,3.8h31.8h23.1
		c4.7,0,9.4,0.8,13.8,2.4l36.8,13.5l44.4,16l61,18.1l49.8,20.3c2.7,1.1,5.3,2.5,7.7,4.2l43.7,30.3l14.5,10.3
		c3.2,2.3,6.8,4.1,10.5,5.4l28,9.4c3.4,1.1,6.9,1.8,10.4,2l9.8,0.6"/>
	<circle class="st2" cx="858.7" cy="392" r="9.5"/>
	<path class="st2" d="M860.9,385l1.9-60.5l2.1-27.8c0.2-2.1,0-4.1-0.5-6.2l-1-4.3c-1-4.2-3.4-8-6.8-10.8l-48.3-39.7L781.5,212
		c-6.4-5.7-13.5-10.5-21.1-14.3L735.2,185"/>
	<path class="st5" d="M313.1,451.3l-35.9,60.5c-0.4,0.8-1.3,1.1-2.2,0.9l-19.9-4.9c-1.5-0.4-2-2.1-1-3.3l15.6-17.5
		c0.4-0.5,1-0.7,1.6-0.7l12.1,0.7c0.7,0,1.4-0.3,1.8-0.9l9.7-14.6c0.3-0.5,0.9-0.8,1.5-0.8s1.1-0.3,1.5-0.8l2.4-3.7
		c0.2-0.4,0.1-0.9-0.3-1.1s-0.5-0.8-0.2-1.1l9-13.5c0.5-0.8,0.4-1.9-0.2-2.5l-1.9-1.9c-0.9-0.9-0.7-2.4,0.3-3.1l26.5-17.7
		c0.9-0.6,1.2-1.9,0.5-2.8L324,409c-0.4-0.6-0.2-1.4,0.4-1.6c0.4-0.2,0.9-0.1,1.2,0.2l19.4,18.1c0.9,0.9,0.8,2.3-0.2,3.1l-12,8.9
		c-0.7,0.5-0.9,1.4-0.5,2.2c0.4,0.7,0.2,1.7-0.5,2.2l-11.8,8.6c-0.4,0.3-1,0.4-1.5,0.4l-3.5-0.5
		C314.3,450.3,313.5,450.6,313.1,451.3z"/>
	<path class="st2" d="M285,261.5l11.3,8.7c22.8,17.6,54.9-3.8,47.3-31.6l-2.1-7.6"/>
	<path class="st1" d="M596.1,395l93.4-4.9c3.4-0.2,6.7,0.5,9.8,2l7.3,3.5c2.7,1.3,5.7,2,8.7,2h38.8"/>
	<path class="st6" d="M331.6,315.4l-5.9-11.2c-1.1-2-1.5-4.2-1.4-6.5l1.4-20c0.2-2.4-0.4-4.9-1.7-7l-3.2-5.3
		c-0.7-1.2-1.6-2.3-2.7-3.1l-10.7-8.8c-1.5-1.3-2.7-2.9-3.5-4.7l-0.9-2.2c-0.5-1.3-0.8-2.6-0.9-3.9l-0.7-13.8c-0.1-1.5-0.4-3-1-4.3
		l-0.4-0.9c-1.3-2.8-3.6-5-6.5-6.2l-3.8-1.5c-2.3-0.9-4.8-1.1-7.1-0.6l-9.8,2.2c-1.1,0.2-2.1,0.6-3.1,1.2l-23.1,12.6l-10.5,4.6
		c-1.5,0.7-2.8,1.6-3.9,2.8l-20.9,22.3c-1.6,1.7-2.6,3.8-3,6l-4.4,23.9c-0.1,0.7-0.2,1.4-0.2,2.2V304c0,2.4,0.7,4.7,2,6.7l12.8,18.9
		c1.1,1.7,2.7,3.1,4.5,4l29.1,14.9c1.7,0.9,3.6,1.3,5.5,1.3h24c2.2,0,4.3-0.6,6.1-1.7l42-25 M578.6,178.9l-10.7,9.1
		c-1.3,1.1-2.4,2.5-3.1,4.1l-2.6,5.7c-0.9,2-2.5,3.8-4.3,5l-2.8,1.8c-2.7,1.8-6,2.4-9.2,1.6l-7.7-1.8c-2.7-0.6-5.6,0.1-7.6,2l0,0
		c-1.5,1.4-2.5,3.3-2.7,5.4l-0.1,1.1c-0.6,5.1-4.4,9.2-9.4,10.1l-44.9,8.1c-4.1,0.7-7.5,3.5-9,7.4L442,295.1
		c-1.2,3.1-3.7,5.5-6.7,6.7l-72,28.5c-3.1,1.2-6.7,1.1-9.7-0.4l-14.6-7.1"/>
	<circle class="st7" cx="580.8" cy="178.4" r="6"/>
	<circle class="st7" cx="334" cy="320.8" r="6"/>
	<circle class="st7" cx="661.2" cy="295.7" r="6"/>
	<circle class="st7" cx="737.8" cy="207.7" r="6"/>
	<circle class="st7" cx="773.7" cy="131.8" r="6"/>
	<circle class="st7" cx="879.6" cy="137.8" r="6"/>
	<circle class="st7" cx="958.1" cy="140.4" r="6"/>
	<circle class="st7" cx="1040.4" cy="154.2" r="6"/>
	<path class="st8" d="M1041.3,155.6l-4,4.5c-2,2.3-3.1,5.3-3,8.4l1.1,26.9c0.3,7.1-5.5,12.8-12.6,12.5l-20.6-1"/>
	<path class="st8" d="M962.1,141.3l16.7,4.6c1.4,0.4,2.8,0.5,4.3,0.4l39.6-3.7c2.7-0.3,5.5,0.4,7.8,2l8.7,5.8"/>
	<path class="st8" d="M881.2,136.7l38.5-6.1c1.7-0.3,3.4-0.2,5.1,0.3l30.4,8.3"/>
	<path class="st8" d="M738,203.1l-4.6-21.3c-0.7-3.3,0-6.7,1.9-9.4l13.3-19.1c0.6-0.8,1.2-1.6,2-2.2l20.8-18"/>
	<path class="st8" d="M776.7,131.4l20.1-3.5c3.2-0.6,6.5,0.2,9.1,2.2l20.5,15.1c1.4,1,3.3,1.1,4.7,0.1l0,0c1.6-1.1,2.3-3.2,1.6-5
		l-2.3-5.7c-1.2-3.1,0-6.7,2.9-8.3l0,0c1.6-0.9,3.5-1.1,5.2-0.6l36.1,10.8"/>
	<path class="st8" d="M582.4,182.7l2.3,12.5c0.6,3.3,2.6,6.2,5.4,8l10.2,6.4c1.2,0.7,2.2,1.7,3.1,2.8l11.8,15.2c2,2.5,2,6,0.1,8.6
		l-2.5,3.3c-0.8,1-0.6,2.5,0.3,3.4l0,0c0.7,0.6,1.7,0.8,2.6,0.5l7.9-3c0.6-0.2,1.2,0,1.6,0.4l0,0c0.4,0.5,0.4,1.3-0.1,1.8l-7.5,8
		c-0.6,0.6-0.5,1.5,0.1,2.1l0,0c0.5,0.4,1.2,0.5,1.7,0.2l8.6-4.7c1.3-0.7,2.9-0.5,3.9,0.6l0,0c1.1,1.2,1.2,3,0.2,4.3l-3.2,4
		c-2.6,3.2-2.7,7.7-0.3,11l11.1,15.4c1.1,1.5,2.5,2.7,4.1,3.6l13.9,7.3"/>
	<path class="st9" d="M661.3,300.5l1.3,23c0.1,1.6-0.1,3.2-0.7,4.7l-9.1,25.6c-0.6,1.8-0.5,3.7,0.4,5.4l0,0c0.6,1.1,0.9,2.4,0.8,3.7
		l-2.2,28.2"/>
	<path class="st8" d="M665.6,292.5l14.9-9.1c1.9-1.1,4-1.8,6.2-1.8h28.5c2.4,0,4.4-1.7,4.7-4.1l0,0c0.2-1.7-0.5-3.5-2-4.5l-3.6-2.5
		c-1.2-0.8-1.6-2.4-1.1-3.8l0,0c0.5-1.2,0.2-2.6-0.7-3.5l-3.9-3.6c-1.4-1.3-1.7-3.5-0.8-5.1l0,0c0.7-1.2,1.9-1.9,3.3-2l3.8-0.2
		c4.6-0.3,8.5-3.3,10-7.7l11.6-35.1"/>
	<path class="st7" d="M791,264.7l1.6-1.2l-0.1-0.1l-0.1-0.1L791,264.7z M855.4,389.7c0.3,1.1,1.4,1.7,2.5,1.4
		c1.1-0.3,1.7-1.4,1.4-2.5L855.4,389.7z M846.4,350.2l-1.9,0.5L846.4,350.2z M840.9,348.2l-1.1-1.7L840.9,348.2z M830,355.4l1.1,1.7
		L830,355.4z M826.7,353.7l2-0.1L826.7,353.7z M826,341.4l-2,0.1L826,341.4z M816.4,328.6l-2-0.2L816.4,328.6z M816.1,299.4l1.6-1.2
		L816.1,299.4z M818.4,307.5l-2-0.2L818.4,307.5z M738.8,209.5l50.7,56.5l3-2.7l-50.7-56.5L738.8,209.5z M789.4,265.8l25.1,34.7
		l3.2-2.3l-25.1-34.7L789.4,265.8z M816.4,307.3l-1.9,21.1l4,0.4l1.9-21.1L816.4,307.3z M824.1,341.5l0.6,12.4l4-0.2l-0.6-12.4
		L824.1,341.5z M831.1,357.1l10.9-7.3l-2.2-3.3l-10.9,7.3L831.1,357.1z M844.5,350.7l10.9,39l3.9-1.1l-10.9-39L844.5,350.7z
		 M843.7,349.7c0.4,0.2,0.7,0.6,0.8,1l3.9-1.1c-0.4-1.5-1.4-2.8-2.8-3.5L843.7,349.7z M842,349.8c0.5-0.3,1.1-0.4,1.7-0.1l1.9-3.5
		c-1.8-1-4-0.8-5.7,0.3L842,349.8z M827.4,357.5c1.2,0.5,2.6,0.3,3.7-0.4l-2.2-3.3h-0.1L827.4,357.5z M824.7,353.8
		c0.1,1.7,1.2,3.1,2.7,3.7l1.4-3.8c-0.1,0-0.1-0.1-0.1-0.1L824.7,353.8z M820.7,337.4c1.9,0.5,3.2,2.1,3.3,4.1l4-0.2
		c-0.2-3.7-2.7-6.8-6.3-7.8L820.7,337.4z M814.4,328.4c-0.4,4.1,2.3,7.9,6.3,9l1-3.9c-2.1-0.6-3.5-2.5-3.3-4.7L814.4,328.4z
		 M814.5,300.5c1.4,2,2.1,4.4,1.9,6.8l4,0.4c0.3-3.4-0.6-6.7-2.6-9.5L814.5,300.5z"/>
	<path class="st10" d="M734.4,207l-13.8,2.5c-3.2,0.6-6.5-0.2-9.2-2.1l-18-12.9c-3-2.2-4.8-5.6-5-9.2l-0.5-11.9
		c-0.1-3-1.4-5.9-3.5-8l-8-8c-2.2-2.1-2.4-5.5-0.7-8l0,0c1.8-2.5,1.5-5.9-0.7-8l-11.8-11.7 M663.3,129.6l-21.4,3.8
		c-3.4,0.6-6.4,2.7-8.2,5.7l-16.4,27.5c-1.8,3-4.9,5.1-8.4,5.7l-23.7,3.8 M663.3,129.6l84.3-16c3.8-0.7,7.8,0.4,10.6,3.2l12,11.6"/>
	<path class="st8" d="M665.6,297.1l11.3,4.6c0.9,0.4,2,0.4,2.9,0l7.4-2.8c1-0.4,2.1-0.3,3,0.1l16.4,7.3c0.4,0.2,0.7,0.4,1,0.6
		l18.7,16c1.7,1.5,4.3,1.2,5.7-0.5l5.2-6.2c0.8-0.9,1.9-1.5,3.1-1.4c33.4,0.5,49.6,5.7,76.4,17.3"/>
	<circle class="st7" cx="651.6" cy="392.1" r="4"/>
	<circle class="st7" cx="858.7" cy="392" r="4"/>
	<path class="st3" d="M375.5,351.3l18.3-8.1c10.1-4.5,22.5-0.2,27.7,9.5l0,0c5.2,9.7,1.2,21.3-8.8,25.8l-18.3,8.1
		c-10.1,4.5-22.5,0.2-27.7-9.5l0,0C361.5,367.3,365.5,355.8,375.5,351.3z"/>
	<path class="st3" d="M452.6,405.8l-49.7,20c-2.7,1.1-3.9,4.2-2.7,6.8l27.3,58c0.5,1.1,1.5,2,2.7,2.5l5.3,2.1c1.2,0.5,2.5,0.5,3.7,0
		L467,484c1.1-0.4,2.3-0.5,3.4-0.1l9.1,3c1.1,0.4,2.2,0.3,3.3-0.1l72.7-27.1c2.5-0.9,3.8-3.6,3-6.1l-9.3-31c-0.8-2.6-3.4-4.1-6-3.4
		l-23,5.7c-0.6,0.1-1.1,0.2-1.7,0.1l-51.2-5.1c-1.7-0.2-3.2-1.2-3.9-2.7l-4.6-8.9C457.7,405.9,455,404.9,452.6,405.8z"/>
	<circle class="st3" cx="442" cy="209" r="15"/>
	<path class="st2" d="M438.1,221.1c-4.4,11.4-4.2,16.1-5.7,27.6"/>
	<circle class="st7" cx="1002.5" cy="207.5" r="4"/>
	<path class="st2" d="M783.1,196.8l4.3-4.1c1.8-1.7,4.8-1.8,6.6-0.1l46.7,40.8c1.9,1.6,1.9,4.4,0.1,6.1l-4.3,4.1
		c-1.8,1.7-4.8,1.8-6.6,0.1l-46.7-40.8C781.4,201.2,781.3,198.5,783.1,196.8z"/>
	<path class="st2" d="M372.5,227.5l-5.2,34.7c-3.1,20.8,23.8,31.7,36,14.6l22.2-30.9"/>
	<g>
		<path class="st11" d="M6,489V354c0-1.1,0.9-2,2-2h95c1.1,0,2,0.9,2,2v19c0,3.1,1.5,6.1,4,8l67.6,51.1c1.1,0.8,2.3,1.4,3.7,1.7
			l31.2,7.6c0.9,0.2,1.5,1,1.5,1.9V515c0,1.1-0.9,2-2,2H85.8c-0.6,0-1.2-0.3-1.5-0.7l-9.4-11.2c-1.9-2.3-4.7-3.6-7.7-3.6H16.8
			c-0.6,0-1.2-0.3-1.5-0.7l-8.8-10.5C6.2,489.9,6,489.5,6,489z"/>
		<path class="st7" d="M27.5,455.9h-2.9v-1.7h2.9c0.5,0,0.9-0.1,1.2-0.2c0.3-0.2,0.5-0.4,0.7-0.7c0.1-0.3,0.2-0.6,0.2-1
			c0-0.3-0.1-0.7-0.2-1s-0.4-0.5-0.7-0.7c-0.3-0.2-0.7-0.3-1.2-0.3h-2.2v9.7h-2.1v-11.4h4.4c0.9,0,1.6,0.2,2.3,0.5
			c0.6,0.3,1.1,0.7,1.4,1.3c0.3,0.6,0.5,1.2,0.5,1.9c0,0.7-0.2,1.4-0.5,1.9s-0.8,0.9-1.4,1.2C29.1,455.7,28.3,455.9,27.5,455.9z
			 M36.9,460.2c-0.6,0-1.2-0.1-1.7-0.3c-0.5-0.2-0.9-0.5-1.3-0.9c-0.4-0.4-0.6-0.8-0.8-1.3s-0.3-1-0.3-1.6v-0.3
			c0-0.7,0.1-1.2,0.3-1.8c0.2-0.5,0.5-1,0.8-1.4s0.8-0.7,1.2-0.9s1-0.3,1.6-0.3s1.1,0.1,1.6,0.3c0.5,0.2,0.8,0.5,1.1,0.8
			s0.5,0.8,0.7,1.3s0.2,1.1,0.2,1.7v0.9h-6.6V455h4.6v-0.2c0-0.3-0.1-0.6-0.2-0.9c-0.1-0.3-0.3-0.5-0.5-0.7s-0.5-0.2-0.9-0.2
			c-0.3,0-0.6,0.1-0.8,0.2s-0.4,0.3-0.6,0.6c-0.1,0.2-0.3,0.5-0.3,0.9c-0.1,0.3-0.1,0.7-0.1,1.1v0.3c0,0.4,0,0.7,0.1,1
			s0.2,0.6,0.4,0.8c0.2,0.2,0.4,0.4,0.7,0.5s0.6,0.2,0.9,0.2c0.4,0,0.8-0.1,1.2-0.2c0.4-0.2,0.7-0.4,0.9-0.8l1,1.1
			c-0.2,0.3-0.4,0.5-0.7,0.8c-0.3,0.2-0.7,0.4-1.1,0.6C37.9,460.1,37.4,460.2,36.9,460.2z M46.4,458.2v-3.9c0-0.3,0-0.5-0.1-0.7
			s-0.2-0.4-0.5-0.5c-0.2-0.1-0.5-0.2-0.8-0.2s-0.5,0-0.7,0.1s-0.4,0.2-0.5,0.4c-0.1,0.2-0.2,0.4-0.2,0.6h-2.1c0-0.3,0.1-0.7,0.2-1
			c0.2-0.3,0.4-0.6,0.7-0.8c0.3-0.2,0.7-0.4,1.1-0.6c0.4-0.1,0.9-0.2,1.5-0.2s1.2,0.1,1.7,0.3c0.5,0.2,0.9,0.5,1.2,1
			c0.3,0.4,0.4,1,0.4,1.6v3.7c0,0.4,0,0.8,0.1,1.1c0.1,0.3,0.1,0.6,0.2,0.8v0.1h-2.1c-0.1-0.2-0.2-0.5-0.2-0.8
			C46.4,458.9,46.4,458.5,46.4,458.2z M46.6,454.9v1.2h-1.3c-0.3,0-0.6,0-0.9,0.1c-0.2,0.1-0.4,0.2-0.6,0.3
			c-0.2,0.1-0.3,0.3-0.4,0.4c-0.1,0.2-0.1,0.4-0.1,0.6s0,0.4,0.1,0.6s0.2,0.3,0.4,0.4s0.4,0.1,0.7,0.1c0.4,0,0.7-0.1,1-0.2
			c0.3-0.2,0.5-0.3,0.6-0.5c0.2-0.2,0.2-0.4,0.2-0.6l0.6,0.9c-0.1,0.2-0.2,0.4-0.3,0.7c-0.1,0.2-0.3,0.5-0.6,0.7
			c-0.2,0.2-0.5,0.4-0.8,0.5s-0.7,0.2-1.1,0.2c-0.5,0-1-0.1-1.5-0.3s-0.8-0.5-1-0.9s-0.4-0.8-0.4-1.3c0-0.4,0.1-0.8,0.2-1.2
			c0.2-0.3,0.4-0.6,0.7-0.9c0.3-0.2,0.7-0.4,1.2-0.5s1-0.2,1.7-0.2h1.6C46.6,455,46.6,454.9,46.6,454.9z M55.5,447.8h1.7
			c0,0.4-0.1,0.8-0.2,1.1c-0.1,0.3-0.3,0.5-0.5,0.8c-0.2,0.2-0.5,0.4-0.9,0.5s-0.8,0.2-1.3,0.3c-0.4,0.1-0.8,0.2-1.2,0.4
			c-0.3,0.2-0.6,0.5-0.8,0.8c-0.2,0.4-0.4,0.8-0.5,1.4c-0.1,0.5-0.1,1.2-0.1,2v0.5l-1.6,0.2v-0.5c0-1,0.1-1.9,0.3-2.6
			c0.2-0.8,0.4-1.4,0.8-1.9c0.3-0.5,0.7-0.9,1.2-1.2c0.5-0.3,1-0.5,1.6-0.6c0.4-0.1,0.7-0.2,0.9-0.2c0.2-0.1,0.4-0.2,0.5-0.3
			C55.5,448.2,55.5,448.1,55.5,447.8z M54.4,452c0.6,0,1.1,0.1,1.5,0.3c0.4,0.2,0.8,0.5,1.1,0.8s0.5,0.8,0.7,1.2
			c0.2,0.5,0.2,1,0.2,1.6v0.2c0,0.6-0.1,1.1-0.3,1.6s-0.4,0.9-0.8,1.3c-0.3,0.4-0.7,0.6-1.2,0.9c-0.5,0.2-1,0.3-1.7,0.3
			c-0.6,0-1.2-0.1-1.7-0.3c-0.5-0.2-0.9-0.5-1.2-0.9s-0.6-0.8-0.8-1.4c-0.2-0.5-0.3-1.1-0.3-1.7v-0.2c0-0.1,0-0.2,0.1-0.3
			c0.1-0.1,0.2-0.2,0.3-0.3c0.1-0.1,0.2-0.3,0.3-0.4c0.3-0.6,0.6-1,1-1.4s0.8-0.7,1.2-0.9C53.3,452.1,53.8,452,54.4,452z M54,453.6
			c-0.4,0-0.8,0.1-1.1,0.3c-0.3,0.2-0.5,0.5-0.6,0.8s-0.2,0.7-0.2,1.1v0.2c0,0.3,0,0.6,0.1,0.9s0.2,0.5,0.3,0.8
			c0.1,0.2,0.3,0.4,0.6,0.5c0.2,0.1,0.5,0.2,0.9,0.2c0.3,0,0.6-0.1,0.9-0.2c0.2-0.1,0.4-0.3,0.6-0.5c0.1-0.2,0.3-0.5,0.3-0.8
			c0.1-0.3,0.1-0.6,0.1-0.9v-0.2c0-0.3,0-0.6-0.1-0.9s-0.2-0.5-0.3-0.7s-0.3-0.4-0.6-0.5C54.6,453.7,54.3,453.6,54,453.6z
			 M61.3,457.1l3.1-5.5h2.1v8.5h-2.1v-5.5l-3.1,5.5h-2.1v-8.5h2.1C61.3,451.6,61.3,457.1,61.3,457.1z M74,451.5v1.6h-4.1v-1.6H74z
			 M75.6,451.5v8.5h-2.1v-8.5H75.6z M69.3,451.5h2l-0.2,4.2c0,0.6-0.1,1.2-0.2,1.6c-0.1,0.5-0.2,0.9-0.4,1.2
			c-0.2,0.3-0.3,0.6-0.6,0.8c-0.2,0.2-0.5,0.4-0.8,0.5s-0.6,0.1-1,0.1h-0.6v-1.7h0.3c0.2,0,0.3-0.1,0.5-0.1c0.1-0.1,0.2-0.2,0.3-0.4
			c0.1-0.2,0.2-0.4,0.2-0.6c0.1-0.2,0.1-0.5,0.2-0.9c0-0.3,0.1-0.7,0.1-1.2L69.3,451.5z M79.5,457.1l3.1-5.5h2.1v8.5h-2.1v-5.5
			l-3.1,5.5h-2.1v-8.5h2.1V457.1z M90.7,451.5v8.5h-2.1v-8.5H90.7z M93.4,451.5v1.6h-7.5v-1.6H93.4z M99.1,458.2v-3.9
			c0-0.3,0-0.5-0.1-0.7s-0.2-0.4-0.5-0.5c-0.2-0.1-0.5-0.2-0.8-0.2s-0.5,0-0.7,0.1s-0.4,0.2-0.5,0.4c-0.1,0.2-0.2,0.4-0.2,0.6h-2.1
			c0-0.3,0.1-0.7,0.2-1c0.2-0.3,0.4-0.6,0.7-0.8c0.3-0.2,0.7-0.4,1.1-0.6c0.4-0.1,0.9-0.2,1.5-0.2s1.2,0.1,1.7,0.3
			c0.5,0.2,0.9,0.5,1.2,1c0.3,0.4,0.4,1,0.4,1.6v3.7c0,0.4,0,0.8,0.1,1.1c0.1,0.3,0.1,0.6,0.2,0.8v0.1h-2.1
			c-0.1-0.2-0.2-0.5-0.2-0.8C99.2,458.9,99.1,458.5,99.1,458.2z M99.4,454.9v1.2h-1.3c-0.3,0-0.6,0-0.9,0.1
			c-0.2,0.1-0.4,0.2-0.6,0.3c-0.2,0.1-0.3,0.3-0.4,0.4c-0.1,0.2-0.1,0.4-0.1,0.6s0,0.4,0.1,0.6s0.2,0.3,0.4,0.4
			c0.2,0.1,0.4,0.1,0.7,0.1c0.4,0,0.7-0.1,1-0.2c0.3-0.2,0.5-0.3,0.6-0.5c0.2-0.2,0.2-0.4,0.2-0.6l0.6,0.9c-0.1,0.2-0.2,0.4-0.3,0.7
			c-0.1,0.2-0.3,0.5-0.6,0.7c-0.2,0.2-0.5,0.4-0.8,0.5s-0.7,0.2-1.1,0.2c-0.5,0-1-0.1-1.5-0.3c-0.4-0.2-0.8-0.5-1-0.9
			s-0.4-0.8-0.4-1.3c0-0.4,0.1-0.8,0.2-1.2c0.2-0.3,0.4-0.6,0.7-0.9c0.3-0.2,0.7-0.4,1.2-0.5s1-0.2,1.7-0.2h1.6L99.4,454.9
			L99.4,454.9z M103.1,460v-8.5h2.1v6.8h3.1v-6.8h2.1v8.5H103.1z M111.5,458.4l-0.1,4.1h-1.9V460h-1v-1.6H111.5z M114.9,457.1
			l3.1-5.5h2.1v8.5H118v-5.5l-3.1,5.5h-2.1v-8.5h2.1V457.1z M121.5,455.9v-0.2c0-0.6,0.1-1.2,0.3-1.7c0.2-0.5,0.4-1,0.8-1.4
			c0.3-0.4,0.8-0.7,1.2-0.9c0.5-0.2,1-0.3,1.7-0.3c0.6,0,1.2,0.1,1.7,0.3c0.5,0.2,0.9,0.5,1.3,0.9c0.3,0.4,0.6,0.8,0.8,1.4
			c0.2,0.5,0.3,1.1,0.3,1.7v0.2c0,0.6-0.1,1.2-0.3,1.7s-0.4,1-0.8,1.4c-0.3,0.4-0.8,0.7-1.2,0.9c-0.5,0.2-1,0.3-1.7,0.3
			c-0.6,0-1.2-0.1-1.7-0.3c-0.5-0.2-0.9-0.5-1.2-0.9c-0.3-0.4-0.6-0.8-0.8-1.4C121.6,457,121.5,456.5,121.5,455.9z M123.6,455.7v0.2
			c0,0.4,0,0.7,0.1,1s0.2,0.6,0.3,0.9s0.3,0.4,0.6,0.6c0.2,0.1,0.5,0.2,0.9,0.2c0.3,0,0.6-0.1,0.9-0.2c0.2-0.1,0.4-0.3,0.6-0.6
			c0.2-0.2,0.3-0.5,0.3-0.9c0.1-0.3,0.1-0.7,0.1-1v-0.2c0-0.4,0-0.7-0.1-1s-0.2-0.6-0.3-0.9c-0.2-0.2-0.3-0.4-0.6-0.6
			c-0.2-0.1-0.5-0.2-0.9-0.2c-0.3,0-0.6,0.1-0.9,0.2c-0.2,0.1-0.4,0.3-0.6,0.6c-0.2,0.2-0.3,0.5-0.3,0.9
			C123.6,455,123.6,455.3,123.6,455.7z M136.7,455v1.6h-4.3V455H136.7z M133,451.5v8.5h-2v-8.5H133z M138.2,451.5v8.5h-2.1v-8.5
			H138.2z M145.8,455v1.6h-4.3V455H145.8z M142.1,451.5v8.5H140v-8.5H142.1z M147.3,451.5v8.5h-2.1v-8.5H147.3z M150.6,454.1h2.5
			c0.8,0,1.4,0.1,1.9,0.4c0.5,0.2,0.9,0.6,1.2,1s0.4,0.9,0.4,1.5c0,0.4-0.1,0.8-0.2,1.2c-0.2,0.4-0.4,0.7-0.7,0.9
			c-0.3,0.3-0.7,0.5-1.1,0.6c-0.4,0.1-0.9,0.2-1.5,0.2h-3.8v-8.5h2.1v6.8h1.7c0.4,0,0.6-0.1,0.9-0.2c0.2-0.1,0.4-0.3,0.5-0.5
			s0.1-0.4,0.1-0.6s-0.1-0.4-0.1-0.6c-0.1-0.2-0.2-0.4-0.5-0.5c-0.2-0.1-0.5-0.2-0.9-0.2h-2.5L150.6,454.1L150.6,454.1z
			 M160.1,451.5v8.5H158v-8.5H160.1z M164.3,457.1l3.1-5.5h2.1v8.5h-2.1v-5.5l-3.1,5.5h-2.1v-8.5h2.1V457.1z M167,448.2h1.5
			c0,0.4-0.1,0.8-0.3,1.2c-0.2,0.3-0.5,0.6-0.9,0.8c-0.4,0.2-0.9,0.3-1.4,0.3c-0.8,0-1.4-0.2-1.9-0.6s-0.7-1-0.7-1.6h1.5
			c0,0.3,0.1,0.5,0.3,0.7s0.5,0.3,0.9,0.3s0.7-0.1,0.9-0.3C166.9,448.8,167,448.5,167,448.2z M22.9,479v-8.5H25v6.8h3.1v-6.8h2.1
			v8.5H22.9z M31.4,477.4l-0.1,4.1h-1.9V479h-1v-1.6H31.4z M36.4,479.2c-0.6,0-1.2-0.1-1.7-0.3c-0.5-0.2-0.9-0.5-1.3-0.9
			c-0.4-0.4-0.6-0.8-0.8-1.3s-0.3-1-0.3-1.6v-0.3c0-0.7,0.1-1.2,0.3-1.8c0.2-0.5,0.5-1,0.8-1.4s0.8-0.7,1.2-0.9
			c0.5-0.2,1-0.3,1.6-0.3s1.1,0.1,1.6,0.3c0.5,0.2,0.8,0.5,1.1,0.8s0.5,0.8,0.7,1.3s0.2,1.1,0.2,1.7v0.9h-6.6V474h4.6v-0.2
			c0-0.3-0.1-0.6-0.2-0.9c-0.1-0.3-0.3-0.5-0.5-0.7s-0.5-0.2-0.9-0.2c-0.3,0-0.6,0.1-0.8,0.2s-0.4,0.3-0.6,0.6
			c-0.1,0.2-0.3,0.5-0.3,0.9c-0.1,0.3-0.1,0.7-0.1,1.1v0.3c0,0.4,0,0.7,0.1,1s0.2,0.6,0.4,0.8c0.2,0.2,0.4,0.4,0.7,0.5
			s0.6,0.2,0.9,0.2c0.4,0,0.8-0.1,1.2-0.2c0.4-0.2,0.7-0.4,0.9-0.8l1,1.1c-0.2,0.3-0.4,0.5-0.7,0.8c-0.3,0.2-0.7,0.4-1.1,0.6
			C37.5,479.1,37,479.2,36.4,479.2z M47,474v1.6h-4.3V474H47z M43.3,470.5v8.5h-2.1v-8.5H43.3z M48.4,470.5v8.5h-2.1v-8.5H48.4z
			 M54.4,470.5v8.5h-2.1v-8.5H54.4z M57.2,470.5v1.6h-7.5v-1.6H57.2z M60.4,472.2v10.1h-2.1v-11.7h1.9L60.4,472.2z M65.9,474.7v0.2
			c0,0.6-0.1,1.2-0.2,1.7s-0.3,1-0.6,1.4c-0.3,0.4-0.6,0.7-1,0.9c-0.4,0.2-0.9,0.3-1.4,0.3s-1-0.1-1.4-0.3c-0.4-0.2-0.7-0.5-1-0.9
			s-0.5-0.8-0.6-1.3c-0.2-0.5-0.3-1-0.4-1.6v-0.5c0.1-0.6,0.2-1.2,0.4-1.7s0.4-1,0.6-1.3c0.3-0.4,0.6-0.7,1-0.9
			c0.4-0.2,0.8-0.3,1.4-0.3c0.5,0,1,0.1,1.4,0.3c0.4,0.2,0.8,0.5,1,0.9c0.3,0.4,0.5,0.8,0.6,1.4C65.8,473.5,65.9,474,65.9,474.7z
			 M63.8,474.9v-0.2c0-0.4,0-0.7-0.1-1s-0.2-0.6-0.3-0.8c-0.1-0.2-0.3-0.4-0.5-0.6c-0.2-0.1-0.5-0.2-0.8-0.2s-0.6,0.1-0.8,0.2
			s-0.4,0.3-0.6,0.4c-0.1,0.2-0.3,0.4-0.3,0.7c-0.1,0.3-0.1,0.5-0.2,0.9v1.3c0,0.4,0.1,0.7,0.3,1c0.1,0.3,0.3,0.6,0.6,0.7
			c0.3,0.2,0.6,0.3,1,0.3c0.3,0,0.6-0.1,0.8-0.2s0.4-0.3,0.5-0.6c0.1-0.2,0.2-0.5,0.3-0.9S63.8,475.2,63.8,474.9z"/>
		<path class="st7" d="M492,367.9v7.1h-1.3v-7.1H492z M496.3,367.9l-2.8,4.1h-1.8l-0.2-1.2h1.2l1.9-2.9H496.3z M494.9,375l-2.1-3.2
			l0.9-1l2.8,4.2H494.9z M499.9,373.9v-2.4c0-0.2,0-0.3-0.1-0.5c-0.1-0.1-0.2-0.2-0.3-0.3c-0.1-0.1-0.3-0.1-0.5-0.1s-0.3,0-0.5,0.1
			c-0.1,0.1-0.2,0.1-0.3,0.2c-0.1,0.1-0.1,0.2-0.1,0.4h-1.3c0-0.2,0.1-0.4,0.2-0.6s0.3-0.4,0.4-0.5c0.2-0.2,0.4-0.3,0.7-0.4
			c0.3-0.1,0.6-0.1,0.9-0.1c0.4,0,0.8,0.1,1.1,0.2c0.3,0.1,0.6,0.3,0.7,0.6c0.2,0.3,0.3,0.6,0.3,1v2.3c0,0.3,0,0.5,0,0.7
			s0.1,0.3,0.2,0.5v0.1H500c-0.1-0.1-0.1-0.3-0.1-0.5C500,374.3,499.9,374.1,499.9,373.9z M500.1,371.8v0.8h-0.8
			c-0.2,0-0.4,0-0.5,0.1c-0.2,0-0.3,0.1-0.4,0.2s-0.2,0.2-0.2,0.3c0,0.1-0.1,0.2-0.1,0.4c0,0.1,0,0.2,0.1,0.4
			c0.1,0.1,0.1,0.2,0.3,0.2c0.1,0.1,0.3,0.1,0.4,0.1c0.2,0,0.4,0,0.6-0.1s0.3-0.2,0.4-0.3c0.1-0.1,0.1-0.3,0.2-0.4l0.4,0.6
			c0,0.1-0.1,0.3-0.2,0.4s-0.2,0.3-0.4,0.4c-0.1,0.1-0.3,0.2-0.5,0.3c-0.2,0.1-0.4,0.1-0.7,0.1c-0.3,0-0.6-0.1-0.9-0.2
			s-0.5-0.3-0.6-0.6c-0.2-0.2-0.2-0.5-0.2-0.8s0.1-0.5,0.2-0.7s0.3-0.4,0.5-0.5s0.5-0.3,0.8-0.3c0.3-0.1,0.7-0.1,1-0.1h0.6
			L500.1,371.8L500.1,371.8z M503.7,370.7v6.3h-1.3v-7.3h1.2L503.7,370.7z M507.1,372.3v0.1c0,0.4,0,0.7-0.1,1.1
			c-0.1,0.3-0.2,0.6-0.4,0.9c-0.2,0.2-0.4,0.4-0.6,0.6c-0.3,0.1-0.5,0.2-0.9,0.2c-0.3,0-0.6-0.1-0.9-0.2c-0.2-0.1-0.4-0.3-0.6-0.5
			s-0.3-0.5-0.4-0.8s-0.2-0.6-0.2-1v-0.3c0-0.4,0.1-0.7,0.2-1.1c0.1-0.3,0.2-0.6,0.4-0.8c0.2-0.2,0.4-0.4,0.6-0.5s0.5-0.2,0.8-0.2
			s0.6,0.1,0.9,0.2s0.5,0.3,0.6,0.5c0.2,0.2,0.3,0.5,0.4,0.9C507,371.5,507.1,371.9,507.1,372.3z M505.8,372.4v-0.1
			c0-0.2,0-0.5-0.1-0.6c0-0.2-0.1-0.4-0.2-0.5c-0.1-0.2-0.2-0.3-0.3-0.4c-0.1-0.1-0.3-0.1-0.5-0.1s-0.4,0-0.5,0.1s-0.3,0.2-0.4,0.3
			c-0.1,0.1-0.2,0.3-0.2,0.4c0,0.2-0.1,0.3-0.1,0.5v0.8c0,0.2,0.1,0.5,0.2,0.6c0.1,0.2,0.2,0.3,0.4,0.5c0.2,0.1,0.4,0.2,0.6,0.2
			s0.4,0,0.5-0.1s0.3-0.2,0.3-0.4c0.1-0.2,0.2-0.3,0.2-0.5S505.8,372.6,505.8,372.4z M510.9,373.9v-2.4c0-0.2,0-0.3-0.1-0.5
			c-0.1-0.1-0.2-0.2-0.3-0.3c-0.1-0.1-0.3-0.1-0.5-0.1s-0.3,0-0.5,0.1c-0.1,0.1-0.2,0.1-0.3,0.2c-0.1,0.1-0.1,0.2-0.1,0.4h-1.3
			c0-0.2,0.1-0.4,0.2-0.6s0.3-0.4,0.4-0.5c0.2-0.2,0.4-0.3,0.7-0.4c0.3-0.1,0.6-0.1,0.9-0.1c0.4,0,0.8,0.1,1.1,0.2
			c0.3,0.1,0.6,0.3,0.7,0.6c0.2,0.3,0.3,0.6,0.3,1v2.3c0,0.3,0,0.5,0,0.7s0.1,0.3,0.2,0.5v0.1H511c-0.1-0.1-0.1-0.3-0.1-0.5
			C511,374.3,510.9,374.1,510.9,373.9z M511.1,371.8v0.8h-0.8c-0.2,0-0.4,0-0.5,0.1c-0.2,0-0.3,0.1-0.4,0.2s-0.2,0.2-0.2,0.3
			c0,0.1-0.1,0.2-0.1,0.4c0,0.1,0,0.2,0.1,0.4c0.1,0.1,0.1,0.2,0.3,0.2c0.1,0.1,0.3,0.1,0.4,0.1c0.2,0,0.4,0,0.6-0.1
			s0.3-0.2,0.4-0.3c0.1-0.1,0.1-0.3,0.2-0.4l0.4,0.6c0,0.1-0.1,0.3-0.2,0.4s-0.2,0.3-0.4,0.4c-0.1,0.1-0.3,0.2-0.5,0.3
			c-0.2,0.1-0.4,0.1-0.7,0.1c-0.3,0-0.6-0.1-0.9-0.2s-0.5-0.3-0.6-0.6c-0.2-0.2-0.2-0.5-0.2-0.8s0.1-0.5,0.2-0.7s0.3-0.4,0.5-0.5
			s0.5-0.3,0.8-0.3c0.3-0.1,0.7-0.1,1-0.1h0.6L511.1,371.8L511.1,371.8z M517,371.9v1h-2.7v-1H517z M514.7,369.7v5.3h-1.3v-5.3
			H514.7z M517.9,369.7v5.3h-1.3v-5.3H517.9z M521.7,369.7v5.3h-1.3v-5.3H521.7z M523.4,369.7v1h-4.7v-1H523.4z M525.4,373.2
			l1.9-3.4h1.3v5.3h-1.3v-3.4l-1.9,3.4h-1.3v-5.3h1.3V373.2z M533.4,371.9v1h-2.7v-1H533.4z M531.1,369.7v5.3h-1.3v-5.3H531.1z
			 M534.3,369.7v5.3H533v-5.3H534.3z M539.1,371.9v1h-2.7v-1H539.1z M536.8,369.7v5.3h-1.3v-5.3H536.8z M540,369.7v5.3h-1.3v-5.3
			H540z M542.1,371.3h1.5c0.5,0,0.9,0.1,1.2,0.2c0.3,0.2,0.6,0.4,0.8,0.6c0.2,0.3,0.3,0.6,0.3,1c0,0.3,0,0.5-0.2,0.7
			c-0.1,0.2-0.2,0.4-0.4,0.6s-0.4,0.3-0.7,0.4s-0.6,0.1-0.9,0.1h-2.4v-5.3h1.3v4.3h1.1c0.2,0,0.4,0,0.5-0.1s0.2-0.2,0.3-0.3
			c0.1-0.1,0.1-0.3,0.1-0.4s0-0.3-0.1-0.4s-0.2-0.2-0.3-0.3c-0.1-0.1-0.3-0.1-0.5-0.1h-1.5L542.1,371.3L542.1,371.3z M548,369.7v5.3
			h-1.3v-5.3H548z M550.7,373.2l1.9-3.4h1.3v5.3h-1.3v-3.4l-1.9,3.4h-1.3v-5.3h1.3V373.2z M552.3,367.6h0.9c0,0.3-0.1,0.5-0.2,0.7
			c-0.1,0.2-0.3,0.4-0.6,0.5c-0.2,0.1-0.5,0.2-0.9,0.2c-0.5,0-0.9-0.1-1.2-0.4s-0.4-0.6-0.4-1h0.9c0,0.2,0.1,0.3,0.2,0.5
			c0.1,0.1,0.3,0.2,0.5,0.2c0.3,0,0.4-0.1,0.5-0.2C552.3,368,552.3,367.8,552.3,367.6z M493.2,384.8h-1.7v-0.9h1.4
			c0.2,0,0.4,0,0.5-0.1c0.1,0,0.2-0.1,0.3-0.2c0.1-0.1,0.1-0.2,0.1-0.3c0-0.1,0-0.2-0.1-0.3c0-0.1-0.1-0.1-0.2-0.2
			c-0.1,0-0.2-0.1-0.3-0.1c-0.1,0-0.2,0-0.4,0H492v4.3h-1.3v-5.3h2.2c0.3,0,0.6,0,0.9,0.1s0.5,0.1,0.7,0.3c0.2,0.1,0.3,0.3,0.4,0.5
			s0.2,0.4,0.2,0.6s0,0.3-0.1,0.5c-0.1,0.1-0.2,0.3-0.3,0.4c-0.1,0.1-0.3,0.2-0.5,0.3c-0.2,0.1-0.4,0.1-0.7,0.1L493.2,384.8z
			 M493.2,387h-2l0.5-1h1.5c0.2,0,0.3,0,0.5-0.1c0.1,0,0.2-0.1,0.3-0.2c0.1-0.1,0.1-0.2,0.1-0.3c0-0.1,0-0.2-0.1-0.3
			c-0.1-0.1-0.1-0.2-0.3-0.2c-0.1-0.1-0.3-0.1-0.5-0.1h-1.3v-0.9h1.5l0.3,0.3c0.4,0,0.6,0.1,0.9,0.2c0.2,0.1,0.4,0.3,0.5,0.4
			c0.1,0.2,0.2,0.4,0.2,0.6c0,0.3,0,0.5-0.1,0.7s-0.2,0.3-0.4,0.5c-0.2,0.1-0.4,0.2-0.7,0.3C493.8,387,493.5,387,493.2,387z
			 M496,384.4v-0.1c0-0.4,0.1-0.7,0.2-1.1c0.1-0.3,0.3-0.6,0.5-0.9c0.2-0.2,0.5-0.4,0.8-0.6c0.3-0.1,0.7-0.2,1-0.2
			c0.4,0,0.7,0.1,1.1,0.2c0.3,0.1,0.6,0.3,0.8,0.6c0.2,0.2,0.4,0.5,0.5,0.9c0.1,0.3,0.2,0.7,0.2,1.1v0.1c0,0.4-0.1,0.7-0.2,1.1
			c-0.1,0.3-0.3,0.6-0.5,0.9c-0.2,0.2-0.5,0.4-0.8,0.6c-0.3,0.1-0.7,0.2-1,0.2c-0.4,0-0.7-0.1-1-0.2s-0.6-0.3-0.8-0.6
			c-0.2-0.2-0.4-0.5-0.5-0.9C496.1,385.2,496,384.8,496,384.4z M497.3,384.3v0.1c0,0.2,0,0.4,0.1,0.7c0,0.2,0.1,0.4,0.2,0.5
			c0.1,0.2,0.2,0.3,0.4,0.4c0.2,0.1,0.3,0.1,0.5,0.1s0.4,0,0.5-0.1c0.2-0.1,0.3-0.2,0.4-0.4c0.1-0.2,0.2-0.3,0.2-0.5
			s0.1-0.4,0.1-0.7v-0.1c0-0.2,0-0.4-0.1-0.6c0-0.2-0.1-0.4-0.2-0.5c-0.1-0.2-0.2-0.3-0.4-0.4c-0.1-0.1-0.3-0.1-0.5-0.1
			s-0.4,0-0.5,0.1s-0.3,0.2-0.4,0.4c-0.1,0.2-0.2,0.3-0.2,0.5C497.3,383.9,497.3,384.1,497.3,384.3z M505.4,381.7v1h-2.6v-1H505.4z
			 M506.4,381.7v5.3h-1.3v-5.3H506.4z M502.5,381.7h1.3l-0.1,2.6c0,0.4-0.1,0.7-0.1,1c-0.1,0.3-0.1,0.5-0.2,0.7s-0.2,0.4-0.4,0.5
			c-0.1,0.1-0.3,0.2-0.5,0.3c-0.2,0.1-0.4,0.1-0.6,0.1h-0.4v-1h0.2c0.1,0,0.2,0,0.3-0.1c0.1-0.1,0.2-0.1,0.2-0.2
			c0.1-0.1,0.1-0.2,0.2-0.4c0-0.2,0.1-0.3,0.1-0.5s0-0.5,0.1-0.7L502.5,381.7z M508.5,383.3h1.5c0.5,0,0.9,0.1,1.2,0.2
			c0.3,0.2,0.6,0.4,0.8,0.6c0.2,0.3,0.3,0.6,0.3,1c0,0.3-0.1,0.5-0.2,0.7c-0.1,0.2-0.2,0.4-0.4,0.6c-0.2,0.2-0.4,0.3-0.7,0.4
			c-0.3,0.1-0.6,0.1-0.9,0.1h-2.4v-5.3h1.3v4.3h1.1c0.2,0,0.4,0,0.5-0.1s0.2-0.2,0.3-0.3c0.1-0.1,0.1-0.3,0.1-0.4s0-0.3-0.1-0.4
			s-0.2-0.2-0.3-0.3c-0.1-0.1-0.3-0.1-0.5-0.1h-1.5L508.5,383.3L508.5,383.3z M515.5,387.1c-0.4,0-0.8-0.1-1.1-0.2s-0.6-0.3-0.8-0.5
			s-0.4-0.5-0.5-0.8s-0.2-0.6-0.2-1v-0.2c0-0.4,0.1-0.8,0.2-1.1c0.1-0.3,0.3-0.6,0.5-0.9c0.2-0.2,0.5-0.4,0.8-0.6
			c0.3-0.1,0.6-0.2,1-0.2s0.7,0.1,1,0.2s0.5,0.3,0.7,0.5s0.3,0.5,0.4,0.8c0.1,0.3,0.1,0.7,0.1,1v0.5h-4.1v-0.9h2.9v-0.1
			c0-0.2,0-0.4-0.1-0.6s-0.2-0.3-0.3-0.4c-0.2-0.1-0.3-0.2-0.6-0.2c-0.2,0-0.4,0-0.5,0.1s-0.3,0.2-0.4,0.4c-0.1,0.1-0.2,0.3-0.2,0.5
			s-0.1,0.4-0.1,0.7v0.2c0,0.2,0,0.4,0.1,0.6s0.2,0.4,0.3,0.5s0.3,0.2,0.4,0.3c0.2,0.1,0.4,0.1,0.6,0.1c0.3,0,0.5-0.1,0.7-0.2
			s0.4-0.3,0.6-0.5l0.6,0.7c-0.1,0.2-0.3,0.3-0.4,0.5c-0.2,0.1-0.4,0.3-0.7,0.4C516.1,387.1,515.8,387.1,515.5,387.1z M519.8,382.7
			v6.3h-1.3v-7.3h1.2L519.8,382.7z M523.1,384.3v0.1c0,0.4,0,0.7-0.1,1.1c-0.1,0.3-0.2,0.6-0.4,0.9c-0.2,0.2-0.4,0.4-0.6,0.6
			c-0.3,0.1-0.5,0.2-0.9,0.2c-0.3,0-0.6-0.1-0.8-0.2s-0.4-0.3-0.6-0.5c-0.2-0.2-0.3-0.5-0.4-0.8c-0.1-0.3-0.2-0.6-0.2-1v-0.3
			c0-0.4,0.1-0.7,0.2-1.1c0.1-0.3,0.2-0.6,0.4-0.8c0.2-0.2,0.4-0.4,0.6-0.5c0.2-0.1,0.5-0.2,0.8-0.2s0.6,0.1,0.9,0.2
			c0.3,0.1,0.5,0.3,0.6,0.5c0.2,0.2,0.3,0.5,0.4,0.9C523.1,383.5,523.1,383.9,523.1,384.3z M521.9,384.4v-0.1c0-0.2,0-0.5-0.1-0.6
			c0-0.2-0.1-0.4-0.2-0.5c-0.1-0.2-0.2-0.3-0.3-0.4s-0.3-0.1-0.5-0.1s-0.4,0-0.5,0.1s-0.3,0.2-0.4,0.3c-0.1,0.1-0.2,0.3-0.2,0.4
			c0,0.2-0.1,0.3-0.1,0.5v0.8c0,0.2,0.1,0.5,0.2,0.6c0.1,0.2,0.2,0.3,0.4,0.5c0.2,0.1,0.4,0.2,0.6,0.2c0.2,0,0.4,0,0.5-0.1
			s0.3-0.2,0.3-0.4c0.1-0.2,0.2-0.3,0.2-0.5S521.9,384.6,521.9,384.4z"/>
		<path class="st7" d="M358.4,359.3v0.4c0,0.5-0.1,1-0.2,1.4s-0.3,0.8-0.6,1.1c-0.3,0.3-0.6,0.5-0.9,0.7c-0.4,0.2-0.8,0.2-1.2,0.2
			c-0.4,0-0.8-0.1-1.2-0.2c-0.4-0.2-0.7-0.4-0.9-0.7c-0.3-0.3-0.5-0.7-0.6-1.1s-0.2-0.9-0.2-1.4v-0.4c0-0.5,0.1-1,0.2-1.5
			c0.1-0.4,0.4-0.8,0.6-1.1c0.3-0.3,0.6-0.5,0.9-0.7c0.4-0.2,0.8-0.2,1.2-0.2c0.4,0,0.9,0.1,1.2,0.2c0.4,0.2,0.7,0.4,0.9,0.7
			c0.3,0.3,0.5,0.7,0.6,1.1C358.4,358.2,358.4,358.7,358.4,359.3z M357.1,359.6v-0.4c0-0.4,0-0.7-0.1-1s-0.2-0.5-0.3-0.7
			c-0.1-0.2-0.3-0.4-0.5-0.5s-0.4-0.2-0.7-0.2c-0.3,0-0.5,0.1-0.7,0.2s-0.4,0.3-0.5,0.5s-0.2,0.5-0.3,0.7c-0.1,0.3-0.1,0.6-0.1,1
			v0.4c0,0.4,0,0.7,0.1,1s0.2,0.5,0.3,0.8c0.1,0.2,0.3,0.4,0.5,0.5s0.4,0.2,0.7,0.2c0.3,0,0.5-0.1,0.7-0.2s0.4-0.3,0.5-0.5
			s0.2-0.5,0.3-0.8C357,360.4,357.1,360,357.1,359.6z M362.7,355.4h1c0,0.3,0,0.5-0.1,0.7s-0.2,0.3-0.3,0.5
			c-0.1,0.1-0.3,0.2-0.6,0.3c-0.2,0.1-0.5,0.2-0.8,0.2c-0.3,0.1-0.5,0.1-0.7,0.3c-0.2,0.1-0.4,0.3-0.5,0.5s-0.2,0.5-0.3,0.8
			c-0.1,0.3-0.1,0.8-0.1,1.2v0.3l-1,0.1V360c0-0.6,0.1-1.2,0.2-1.6c0.1-0.5,0.3-0.9,0.5-1.2c0.2-0.3,0.5-0.6,0.7-0.8
			c0.3-0.2,0.6-0.3,1-0.4c0.2,0,0.4-0.1,0.6-0.2s0.3-0.1,0.3-0.2C362.7,355.6,362.7,355.5,362.7,355.4z M362,358
			c0.4,0,0.7,0.1,0.9,0.2c0.3,0.1,0.5,0.3,0.7,0.5s0.3,0.5,0.4,0.8s0.2,0.6,0.2,1v0.1c0,0.4-0.1,0.7-0.2,1s-0.3,0.6-0.5,0.8
			c-0.2,0.2-0.5,0.4-0.8,0.5s-0.7,0.2-1,0.2c-0.4,0-0.7-0.1-1-0.2s-0.6-0.3-0.8-0.6c-0.2-0.2-0.4-0.5-0.5-0.9
			c-0.1-0.3-0.2-0.7-0.2-1.1v-0.1c0-0.1,0-0.1,0.1-0.2c0-0.1,0.1-0.1,0.2-0.2s0.1-0.2,0.2-0.3c0.2-0.3,0.4-0.6,0.6-0.9
			c0.2-0.2,0.5-0.4,0.8-0.6C361.4,358.1,361.7,358,362,358z M361.8,359c-0.3,0-0.5,0.1-0.7,0.2s-0.3,0.3-0.4,0.5s-0.1,0.5-0.1,0.7
			v0.1c0,0.2,0,0.4,0.1,0.6c0,0.2,0.1,0.3,0.2,0.5s0.2,0.2,0.4,0.3c0.1,0.1,0.3,0.1,0.5,0.1s0.4,0,0.5-0.1s0.3-0.2,0.4-0.3
			c0.1-0.1,0.2-0.3,0.2-0.5s0.1-0.4,0.1-0.6v-0.1c0-0.2,0-0.4-0.1-0.5c0-0.2-0.1-0.3-0.2-0.5c-0.1-0.1-0.2-0.2-0.4-0.3
			C362.2,359.1,362,359,361.8,359z M368.7,357.7v1h-2.6v-1H368.7z M369.7,357.7v5.3h-1.3v-5.3H369.7z M365.8,357.7h1.3l-0.1,2.6
			c0,0.4-0.1,0.7-0.1,1c-0.1,0.3-0.1,0.5-0.2,0.7s-0.2,0.4-0.4,0.5c-0.1,0.1-0.3,0.2-0.5,0.3c-0.2,0.1-0.4,0.1-0.6,0.1h-0.4v-1h0.2
			c0.1,0,0.2,0,0.3-0.1c0.1-0.1,0.2-0.1,0.2-0.2c0.1-0.1,0.1-0.2,0.2-0.4c0-0.2,0.1-0.3,0.1-0.5s0-0.5,0.1-0.7L365.8,357.7z
			 M373.2,363.1c-0.4,0-0.8-0.1-1.1-0.2c-0.3-0.1-0.6-0.3-0.8-0.5c-0.2-0.2-0.4-0.5-0.5-0.8s-0.2-0.6-0.2-1v-0.2
			c0-0.4,0.1-0.8,0.2-1.1c0.1-0.3,0.3-0.6,0.5-0.9c0.2-0.2,0.5-0.4,0.8-0.6c0.3-0.1,0.6-0.2,1-0.2s0.7,0.1,1,0.2s0.5,0.3,0.7,0.5
			s0.3,0.5,0.4,0.8s0.1,0.7,0.1,1v0.5h-4.1v-0.9h2.9v-0.1c0-0.2,0-0.4-0.1-0.6s-0.2-0.3-0.3-0.4c-0.1-0.1-0.3-0.2-0.6-0.2
			c-0.2,0-0.4,0-0.5,0.1s-0.3,0.2-0.4,0.4c-0.1,0.1-0.2,0.3-0.2,0.5s-0.1,0.4-0.1,0.7v0.2c0,0.2,0,0.4,0.1,0.6s0.2,0.4,0.3,0.5
			c0.1,0.1,0.3,0.2,0.4,0.3c0.2,0.1,0.4,0.1,0.6,0.1c0.3,0,0.5-0.1,0.7-0.2s0.4-0.3,0.6-0.5l0.6,0.7c-0.1,0.2-0.3,0.3-0.4,0.5
			c-0.2,0.1-0.4,0.3-0.7,0.4C373.9,363.1,373.6,363.1,373.2,363.1z M378.7,357.7v5.3h-1.3v-5.3H378.7z M380.4,357.7v1h-4.7v-1H380.4
			z M380.8,360.4v-0.1c0-0.4,0.1-0.7,0.2-1.1c0.1-0.3,0.3-0.6,0.5-0.9c0.2-0.2,0.5-0.4,0.8-0.6c0.3-0.1,0.7-0.2,1-0.2
			c0.4,0,0.7,0.1,1.1,0.2c0.3,0.1,0.6,0.3,0.8,0.6c0.2,0.2,0.4,0.5,0.5,0.9c0.1,0.3,0.2,0.7,0.2,1.1v0.1c0,0.4-0.1,0.7-0.2,1.1
			c-0.1,0.3-0.3,0.6-0.5,0.9c-0.2,0.2-0.5,0.4-0.8,0.6c-0.3,0.1-0.7,0.2-1.1,0.2s-0.7-0.1-1-0.2s-0.6-0.3-0.8-0.6
			c-0.2-0.2-0.4-0.5-0.5-0.9C380.9,361.2,380.8,360.8,380.8,360.4z M382.1,360.3v0.1c0,0.2,0,0.4,0.1,0.7c0,0.2,0.1,0.4,0.2,0.5
			c0.1,0.2,0.2,0.3,0.4,0.4c0.2,0.1,0.3,0.1,0.5,0.1s0.4,0,0.5-0.1s0.3-0.2,0.4-0.4c0.1-0.2,0.2-0.3,0.2-0.5s0.1-0.4,0.1-0.7v-0.1
			c0-0.2,0-0.4-0.1-0.6c0-0.2-0.1-0.4-0.2-0.5c-0.1-0.2-0.2-0.3-0.4-0.4c-0.2-0.1-0.3-0.1-0.5-0.1s-0.4,0-0.5,0.1s-0.3,0.2-0.4,0.4
			c-0.1,0.2-0.2,0.3-0.2,0.5C382.1,359.9,382.1,360.1,382.1,360.3z M391,357.7v5.3h-1.3v-5.3H391z M390.5,360v1
			c-0.1,0.1-0.3,0.1-0.4,0.2c-0.2,0-0.4,0.1-0.5,0.1c-0.2,0-0.4,0-0.6,0c-0.5,0-0.9-0.1-1.3-0.2c-0.3-0.1-0.6-0.4-0.8-0.7
			c-0.2-0.3-0.3-0.7-0.3-1.1v-1.6h1.3v1.6c0,0.3,0,0.4,0.1,0.6c0.1,0.1,0.2,0.2,0.3,0.3c0.2,0.1,0.4,0.1,0.6,0.1s0.4,0,0.5,0
			c0.2,0,0.3-0.1,0.5-0.1C390.1,360.1,390.3,360.1,390.5,360z M395.8,359.9v1h-2.7v-1H395.8z M393.5,357.7v5.3h-1.3v-5.3H393.5z
			 M396.7,357.7v5.3h-1.3v-5.3H396.7z M398.8,359.3h1.5c0.5,0,0.9,0.1,1.2,0.2c0.3,0.2,0.6,0.4,0.8,0.6c0.2,0.3,0.3,0.6,0.3,1
			c0,0.3-0.1,0.5-0.2,0.7s-0.2,0.4-0.4,0.6c-0.2,0.2-0.4,0.3-0.7,0.4c-0.3,0.1-0.6,0.1-0.9,0.1H398v-5.3h1.3v4.3h1.1
			c0.2,0,0.4,0,0.5-0.1s0.2-0.2,0.3-0.3c0.1-0.1,0.1-0.3,0.1-0.4s0-0.3-0.1-0.4s-0.2-0.2-0.3-0.3c-0.1-0.1-0.3-0.1-0.5-0.1h-1.5v-1
			L398.8,359.3L398.8,359.3z M404.7,357.7v5.3h-1.3v-5.3H404.7z M407.4,361.2l1.9-3.4h1.3v5.3h-1.3v-3.4l-1.9,3.4h-1.3v-5.3h1.3
			V361.2z M409,355.6h0.9c0,0.3-0.1,0.5-0.2,0.7s-0.3,0.4-0.6,0.5c-0.2,0.1-0.5,0.2-0.9,0.2c-0.5,0-0.9-0.1-1.2-0.4
			c-0.3-0.3-0.4-0.6-0.4-1h0.9c0,0.2,0.1,0.3,0.2,0.5c0.1,0.1,0.3,0.2,0.5,0.2c0.3,0,0.4-0.1,0.5-0.2C409,356,409,355.8,409,355.6z
			 M416.8,360.8h-1.7v-0.9h1.4c0.2,0,0.4,0,0.5-0.1c0.1,0,0.2-0.1,0.3-0.2c0.1-0.1,0.1-0.2,0.1-0.3c0-0.1,0-0.2-0.1-0.3
			c0-0.1-0.1-0.1-0.2-0.2c-0.1,0-0.2-0.1-0.3-0.1c-0.1,0-0.2,0-0.4,0h-0.9v4.3h-1.3v-5.3h2.2c0.3,0,0.6,0,0.9,0.1s0.5,0.1,0.7,0.3
			c0.2,0.1,0.3,0.3,0.4,0.5s0.2,0.4,0.2,0.6s0,0.3-0.1,0.5c-0.1,0.1-0.2,0.3-0.3,0.4c-0.1,0.1-0.3,0.2-0.5,0.3
			c-0.2,0.1-0.4,0.1-0.7,0.1L416.8,360.8z M416.8,363h-2l0.5-1h1.5c0.2,0,0.3,0,0.5-0.1c0.1,0,0.2-0.1,0.3-0.2
			c0.1-0.1,0.1-0.2,0.1-0.3c0-0.1,0-0.2-0.1-0.3c-0.1-0.1-0.1-0.2-0.3-0.2c-0.1-0.1-0.3-0.1-0.5-0.1h-1.3v-0.9h1.5l0.3,0.3
			c0.4,0,0.6,0.1,0.9,0.2c0.2,0.1,0.4,0.3,0.5,0.4c0.1,0.2,0.2,0.4,0.2,0.6c0,0.3,0,0.5-0.1,0.7s-0.2,0.3-0.4,0.5
			c-0.2,0.1-0.4,0.2-0.7,0.3C417.5,363,417.2,363,416.8,363z M419.7,360.4v-0.1c0-0.4,0.1-0.7,0.2-1.1c0.1-0.3,0.3-0.6,0.5-0.9
			c0.2-0.2,0.5-0.4,0.8-0.6c0.3-0.1,0.7-0.2,1-0.2c0.4,0,0.7,0.1,1.1,0.2c0.3,0.1,0.6,0.3,0.8,0.6c0.2,0.2,0.4,0.5,0.5,0.9
			c0.1,0.3,0.2,0.7,0.2,1.1v0.1c0,0.4-0.1,0.7-0.2,1.1c-0.1,0.3-0.3,0.6-0.5,0.9c-0.2,0.2-0.5,0.4-0.8,0.6c-0.3,0.1-0.7,0.2-1,0.2
			c-0.4,0-0.7-0.1-1.1-0.2c-0.3-0.1-0.6-0.3-0.8-0.6c-0.2-0.2-0.4-0.5-0.5-0.9C419.7,361.2,419.7,360.8,419.7,360.4z M421,360.3v0.1
			c0,0.2,0,0.4,0.1,0.7c0,0.2,0.1,0.4,0.2,0.5c0.1,0.2,0.2,0.3,0.4,0.4c0.2,0.1,0.3,0.1,0.5,0.1s0.4,0,0.5-0.1s0.3-0.2,0.4-0.4
			c0.1-0.2,0.2-0.3,0.2-0.5s0.1-0.4,0.1-0.7v-0.1c0-0.2,0-0.4-0.1-0.6c0-0.2-0.1-0.4-0.2-0.5c-0.1-0.2-0.2-0.3-0.4-0.4
			c-0.1-0.1-0.3-0.1-0.5-0.1s-0.4,0-0.5,0.1s-0.3,0.2-0.4,0.4c-0.1,0.2-0.2,0.3-0.2,0.5C421,359.9,421,360.1,421,360.3z M429,357.7
			v1h-2.6v-1H429z M430,357.7v5.3h-1.3v-5.3H430z M426.1,357.7h1.3l-0.1,2.6c0,0.4-0.1,0.7-0.1,1c-0.1,0.3-0.1,0.5-0.2,0.7
			s-0.2,0.4-0.4,0.5c-0.1,0.1-0.3,0.2-0.5,0.3c-0.2,0.1-0.4,0.1-0.6,0.1h-0.4v-1h0.2c0.1,0,0.2,0,0.3-0.1c0.1-0.1,0.2-0.1,0.2-0.2
			c0.1-0.1,0.1-0.2,0.2-0.4c0-0.2,0.1-0.3,0.1-0.5s0-0.5,0.1-0.7L426.1,357.7z M432.1,359.3h1.5c0.5,0,0.9,0.1,1.2,0.2
			c0.3,0.2,0.6,0.4,0.8,0.6c0.2,0.3,0.3,0.6,0.3,1c0,0.3-0.1,0.5-0.2,0.7s-0.2,0.4-0.4,0.6c-0.2,0.2-0.4,0.3-0.7,0.4
			c-0.3,0.1-0.6,0.1-0.9,0.1h-2.4v-5.3h1.3v4.3h1.1c0.2,0,0.4,0,0.5-0.1s0.2-0.2,0.3-0.3c0.1-0.1,0.1-0.3,0.1-0.4s0-0.3-0.1-0.4
			s-0.2-0.2-0.3-0.3c-0.1-0.1-0.3-0.1-0.5-0.1h-1.5L432.1,359.3L432.1,359.3z M439.1,363.1c-0.4,0-0.8-0.1-1.1-0.2
			c-0.3-0.1-0.6-0.3-0.8-0.5c-0.2-0.2-0.4-0.5-0.5-0.8s-0.2-0.6-0.2-1v-0.2c0-0.4,0.1-0.8,0.2-1.1c0.1-0.3,0.3-0.6,0.5-0.9
			c0.2-0.2,0.5-0.4,0.8-0.6c0.3-0.1,0.6-0.2,1-0.2s0.7,0.1,1,0.2s0.5,0.3,0.7,0.5s0.3,0.5,0.4,0.8s0.1,0.7,0.1,1v0.5h-4.1v-0.9h2.9
			v-0.1c0-0.2,0-0.4-0.1-0.6s-0.2-0.3-0.3-0.4c-0.1-0.1-0.3-0.2-0.6-0.2c-0.2,0-0.4,0-0.5,0.1s-0.3,0.2-0.4,0.4
			c-0.1,0.1-0.2,0.3-0.2,0.5s-0.1,0.4-0.1,0.7v0.2c0,0.2,0,0.4,0.1,0.6s0.2,0.4,0.3,0.5c0.1,0.1,0.3,0.2,0.4,0.3
			c0.2,0.1,0.4,0.1,0.6,0.1c0.3,0,0.5-0.1,0.7-0.2s0.4-0.3,0.6-0.5l0.6,0.7c-0.1,0.2-0.3,0.3-0.4,0.5c-0.2,0.1-0.4,0.3-0.7,0.4
			C439.8,363.1,439.5,363.1,439.1,363.1z M443.4,358.7v6.3h-1.3v-7.3h1.2L443.4,358.7z M446.8,360.3v0.1c0,0.4,0,0.7-0.1,1.1
			c-0.1,0.3-0.2,0.6-0.4,0.9c-0.2,0.2-0.4,0.4-0.6,0.6c-0.3,0.1-0.5,0.2-0.9,0.2c-0.3,0-0.6-0.1-0.9-0.2c-0.2-0.1-0.4-0.3-0.6-0.5
			s-0.3-0.5-0.4-0.8s-0.2-0.6-0.2-1v-0.3c0-0.4,0.1-0.7,0.2-1.1c0.1-0.3,0.2-0.6,0.4-0.8c0.2-0.2,0.4-0.4,0.6-0.5s0.5-0.2,0.8-0.2
			s0.6,0.1,0.9,0.2s0.5,0.3,0.6,0.5c0.2,0.2,0.3,0.5,0.4,0.9C446.8,359.5,446.8,359.9,446.8,360.3z M445.5,360.4v-0.1
			c0-0.2,0-0.5-0.1-0.6c0-0.2-0.1-0.4-0.2-0.5c-0.1-0.2-0.2-0.3-0.3-0.4c-0.1-0.1-0.3-0.1-0.5-0.1s-0.4,0-0.5,0.1s-0.3,0.2-0.4,0.3
			c-0.1,0.1-0.2,0.3-0.2,0.4c0,0.2-0.1,0.3-0.1,0.5v0.8c0,0.2,0.1,0.5,0.2,0.6c0.1,0.2,0.2,0.3,0.4,0.5c0.2,0.1,0.4,0.2,0.6,0.2
			s0.4,0,0.5-0.1s0.3-0.2,0.3-0.4c0.1-0.2,0.2-0.3,0.2-0.5S445.5,360.6,445.5,360.4z M353.5,369.7h1.3v1.8c0,0.6-0.1,1-0.2,1.4
			s-0.3,0.7-0.4,1c-0.2,0.3-0.4,0.5-0.6,0.7s-0.5,0.3-0.7,0.4h-0.3v-1h0.2c0.2-0.2,0.3-0.3,0.4-0.5s0.2-0.3,0.3-0.5
			c0.1-0.2,0.1-0.4,0.1-0.6s0.1-0.5,0.1-0.8L353.5,369.7z M353.9,369.7h3.4v5.3H356v-4.2h-2.1V369.7z M352.2,374h5.9v2.6h-1.3V375
			h-3.3v1.6h-1.3L352.2,374z M362.4,369.7v1h-2.6v-1H362.4z M363.4,369.7v5.3h-1.3v-5.3H363.4z M359.5,369.7h1.3l-0.1,2.6
			c0,0.4-0.1,0.7-0.1,1c-0.1,0.3-0.1,0.5-0.2,0.7s-0.2,0.4-0.4,0.5c-0.1,0.1-0.3,0.2-0.5,0.3c-0.2,0.1-0.4,0.1-0.6,0.1h-0.4v-1h0.2
			c0.1,0,0.2,0,0.3-0.1c0.1-0.1,0.2-0.1,0.2-0.2c0.1-0.1,0.1-0.2,0.2-0.4c0-0.2,0.1-0.3,0.1-0.5s0-0.5,0.1-0.7L359.5,369.7z
			 M365.7,372.4h1.3l-1.5,2.6h-1.3L365.7,372.4z M366.6,369.7h2.3v5.3h-1.3v-4.3h-1c-0.2,0-0.4,0-0.5,0.1s-0.2,0.2-0.3,0.3
			c-0.1,0.1-0.1,0.2-0.1,0.4c0,0.1,0,0.2,0.1,0.3c0.1,0.1,0.2,0.2,0.3,0.3c0.1,0.1,0.3,0.1,0.5,0.1h1.5v0.9h-1.5
			c-0.3,0-0.6,0-0.9-0.1s-0.5-0.2-0.7-0.4c-0.2-0.1-0.3-0.3-0.4-0.5s-0.1-0.4-0.1-0.7c0-0.2,0-0.5,0.1-0.7s0.2-0.4,0.4-0.5
			c0.2-0.2,0.4-0.3,0.7-0.4C365.9,369.8,366.2,369.7,366.6,369.7z M373.6,369.7l0.9,1.7l1-1.7h1.4l-1.6,2.6l1.6,2.7h-1.4l-1-1.8
			l-1,1.8h-1.4l1.6-2.7l-1.5-2.6H373.6z M379,373.2l1.9-3.4h1.3v5.3h-1.3v-3.4L379,375h-1.3v-5.3h1.3V373.2z M391.3,374l-0.1,2.6
			H390V375h-0.6v-1H391.3z M383.3,369.7h1.3v4.3h1.6v-4.3h1.3v4.3h1.6v-4.3h1.3v5.3h-7L383.3,369.7L383.3,369.7z M395.8,371.9v1
			h-2.7v-1H395.8z M393.5,369.7v5.3h-1.3v-5.3H393.5z M396.7,369.7v5.3h-1.3v-5.3H396.7z M398.8,371.3h1.5c0.5,0,0.9,0.1,1.2,0.2
			c0.3,0.2,0.6,0.4,0.8,0.6c0.2,0.3,0.3,0.6,0.3,1c0,0.3-0.1,0.5-0.2,0.7s-0.2,0.4-0.4,0.6c-0.2,0.2-0.4,0.3-0.7,0.4
			c-0.3,0.1-0.6,0.1-0.9,0.1H398v-5.3h1.3v4.3h1.1c0.2,0,0.4,0,0.5-0.1s0.2-0.2,0.3-0.3c0.1-0.1,0.1-0.3,0.1-0.4s0-0.3-0.1-0.4
			s-0.2-0.2-0.3-0.3c-0.1-0.1-0.3-0.1-0.5-0.1h-1.5v-1L398.8,371.3L398.8,371.3z M404.7,369.7v5.3h-1.3v-5.3H404.7z M407.1,369.7
			l0.9,1.7l1-1.7h1.4l-1.6,2.6l1.6,2.7H409l-1-1.8l-1,1.8h-1.4l1.6-2.7l-1.5-2.6H407.1z M417.1,369.7v1h-2.6v-1H417.1z M414.9,369.7
			v5.3h-1.3v-5.3H414.9z M418.1,369.7v5.3h-1.3v-5.3H418.1z M421.9,369.7v5.3h-1.3v-5.3H421.9z M423.6,369.7v1h-4.7v-1H423.6z
			 M425.6,373.2l1.9-3.4h1.3v5.3h-1.3v-3.4l-1.9,3.4h-1.3v-5.3h1.3V373.2z M430,375v-5.3h1.3v4.3h1.9v-4.3h1.3v5.3H430z M435.3,374
			l-0.1,2.6H434V375h-0.6v-1H435.3z"/>
		<path class="st7" d="M423.3,180.9v1.1H420v6.1h-1.3V181h4.6L423.3,180.9L423.3,180.9z M426.5,182.7v1h-2.6v-1H426.5z M427.5,182.7
			v5.3h-1.3v-5.3H427.5z M423.6,182.7h1.3l-0.1,2.6c0,0.4-0.1,0.7-0.1,1c-0.1,0.3-0.1,0.5-0.2,0.7s-0.2,0.4-0.4,0.5
			c-0.1,0.1-0.3,0.2-0.5,0.3s-0.4,0.1-0.6,0.1h-0.4v-1h0.2c0.1,0,0.2,0,0.3-0.1c0.1-0.1,0.2-0.1,0.2-0.2c0.1-0.1,0.1-0.2,0.2-0.4
			c0-0.2,0.1-0.3,0.1-0.5s0-0.5,0.1-0.7L423.6,182.7z M430.6,183.6c-0.2,0-0.3,0-0.5,0.1c-0.1,0.1-0.2,0.2-0.3,0.3
			c-0.1,0.1-0.1,0.3-0.1,0.5h-1.2c0-0.4,0.1-0.7,0.3-1c0.2-0.3,0.5-0.5,0.8-0.7s0.7-0.2,1.1-0.2s0.7,0.1,1,0.2
			c0.3,0.1,0.6,0.3,0.8,0.6c0.2,0.2,0.4,0.5,0.5,0.8s0.2,0.7,0.2,1v0.2c0,0.4-0.1,0.7-0.2,1s-0.3,0.6-0.5,0.8s-0.5,0.4-0.8,0.6
			c-0.3,0.1-0.6,0.2-1,0.2s-0.8-0.1-1.1-0.2c-0.3-0.2-0.6-0.4-0.8-0.7c-0.2-0.3-0.3-0.7-0.3-1.1h1.2c0,0.2,0,0.4,0.1,0.5
			s0.2,0.3,0.3,0.4c0.1,0.1,0.3,0.1,0.5,0.1s0.4,0,0.5-0.1s0.3-0.2,0.3-0.4c0.1-0.2,0.1-0.3,0.2-0.5c0-0.2,0.1-0.4,0.1-0.6v-0.2
			c0-0.2,0-0.4-0.1-0.6c0-0.2-0.1-0.4-0.2-0.5c-0.1-0.2-0.2-0.3-0.3-0.4C431,183.7,430.8,183.6,430.6,183.6z M432.1,184.9v0.8h-2
			v-0.8H432.1z M437.1,186.5l1.5-3.8h1.1l-2.1,5.3h-0.9l-2.1-5.3h1.1L437.1,186.5z M435.3,182.7v5.3H434v-5.3H435.3z M438.9,188
			v-5.3h1.3v5.3H438.9z M445,182.7v1h-2.6v-1H445z M442.8,182.7v5.3h-1.3v-5.3H442.8z M446,182.7v5.3h-1.3v-5.3H446z M448.5,186.2
			l1.9-3.4h1.3v5.3h-1.3v-3.4l-1.9,3.4h-1.3v-5.3h1.3V186.2z M456.5,184.9v1h-2.7v-1H456.5z M454.2,182.7v5.3h-1.3v-5.3H454.2z
			 M457.4,182.7v5.3h-1.3v-5.3H457.4z M462.1,182.7v1h-2.3v4.3h-1.3v-5.3H462.1z"/>
		<path class="st7" d="M432.4,446.4h-1.8v-1.1h1.8c0.3,0,0.5,0,0.7-0.1s0.3-0.2,0.4-0.4c0.1-0.2,0.1-0.4,0.1-0.6s0-0.4-0.1-0.6
			s-0.2-0.3-0.4-0.5c-0.2-0.1-0.4-0.2-0.7-0.2H431v6h-1.3v-7.1h2.7c0.6,0,1,0.1,1.4,0.3c0.4,0.2,0.7,0.5,0.9,0.8
			c0.2,0.3,0.3,0.7,0.3,1.2s-0.1,0.9-0.3,1.2c-0.2,0.3-0.5,0.6-0.9,0.8C433.4,446.3,433,446.4,432.4,446.4z M438.3,449.1
			c-0.4,0-0.8-0.1-1.1-0.2c-0.3-0.1-0.6-0.3-0.8-0.5c-0.2-0.2-0.4-0.5-0.5-0.8s-0.2-0.6-0.2-1v-0.2c0-0.4,0.1-0.8,0.2-1.1
			c0.1-0.3,0.3-0.6,0.5-0.9s0.5-0.4,0.8-0.6c0.3-0.1,0.6-0.2,1-0.2s0.7,0.1,1,0.2s0.5,0.3,0.7,0.5s0.3,0.5,0.4,0.8s0.1,0.7,0.1,1
			v0.5h-4.1v-0.9h2.9v-0.1c0-0.2,0-0.4-0.1-0.6s-0.2-0.3-0.3-0.4c-0.1-0.1-0.3-0.2-0.6-0.2c-0.2,0-0.4,0-0.5,0.1s-0.3,0.2-0.4,0.4
			c-0.1,0.1-0.2,0.3-0.2,0.5s-0.1,0.4-0.1,0.7v0.2c0,0.2,0,0.4,0.1,0.6s0.2,0.4,0.3,0.5c0.1,0.1,0.3,0.2,0.4,0.3
			c0.2,0.1,0.4,0.1,0.6,0.1c0.3,0,0.5-0.1,0.7-0.2s0.4-0.3,0.6-0.5l0.7,0.7c-0.1,0.2-0.3,0.3-0.5,0.5c-0.2,0.1-0.4,0.3-0.7,0.4
			C439,449.1,438.6,449.1,438.3,449.1z M444.2,447.9v-2.4c0-0.2,0-0.3-0.1-0.5c-0.1-0.1-0.2-0.2-0.3-0.3c-0.1-0.1-0.3-0.1-0.5-0.1
			s-0.3,0-0.5,0.1c-0.1,0.1-0.2,0.1-0.3,0.2c-0.1,0.1-0.1,0.2-0.1,0.4h-1.3c0-0.2,0.1-0.4,0.2-0.6s0.3-0.4,0.4-0.5
			c0.2-0.2,0.4-0.3,0.7-0.4c0.3-0.1,0.6-0.1,0.9-0.1c0.4,0,0.8,0.1,1.1,0.2c0.3,0.1,0.6,0.3,0.7,0.6c0.2,0.3,0.3,0.6,0.3,1v2.3
			c0,0.3,0,0.5,0,0.7s0.1,0.3,0.2,0.5v0.1h-1.3c-0.1-0.1-0.1-0.3-0.1-0.5C444.2,448.3,444.2,448.1,444.2,447.9z M444.4,445.8v0.8
			h-0.8c-0.2,0-0.4,0-0.5,0.1c-0.2,0-0.3,0.1-0.4,0.2s-0.2,0.2-0.2,0.3c0,0.1-0.1,0.2-0.1,0.4c0,0.1,0,0.2,0.1,0.4
			c0.1,0.1,0.2,0.2,0.3,0.2c0.1,0.1,0.3,0.1,0.4,0.1c0.2,0,0.4,0,0.6-0.1s0.3-0.2,0.4-0.3c0.1-0.1,0.1-0.3,0.2-0.4l0.4,0.6
			c0,0.1-0.1,0.3-0.2,0.4s-0.2,0.3-0.4,0.4c-0.1,0.1-0.3,0.2-0.5,0.3c-0.2,0.1-0.4,0.1-0.7,0.1c-0.3,0-0.6-0.1-0.9-0.2
			s-0.5-0.3-0.6-0.6c-0.2-0.2-0.2-0.5-0.2-0.8s0.1-0.5,0.2-0.7s0.3-0.4,0.5-0.5s0.5-0.3,0.8-0.3c0.3-0.1,0.7-0.1,1.1-0.1h0.5
			L444.4,445.8L444.4,445.8z M450,441.4h1c0,0.3,0,0.5-0.1,0.7s-0.2,0.3-0.3,0.5c-0.1,0.1-0.3,0.2-0.6,0.3c-0.2,0.1-0.5,0.2-0.8,0.2
			c-0.3,0.1-0.5,0.1-0.7,0.3c-0.2,0.1-0.4,0.3-0.5,0.5s-0.2,0.5-0.3,0.8c-0.1,0.3-0.1,0.8-0.1,1.2v0.3l-1,0.1V446
			c0-0.6,0.1-1.2,0.2-1.6c0.1-0.5,0.3-0.9,0.5-1.2c0.2-0.3,0.5-0.6,0.7-0.8c0.3-0.2,0.6-0.3,1-0.4c0.2,0,0.4-0.1,0.6-0.2
			s0.3-0.1,0.3-0.2C449.9,441.6,450,441.5,450,441.4z M449.2,444c0.4,0,0.7,0.1,0.9,0.2c0.3,0.1,0.5,0.3,0.7,0.5s0.3,0.5,0.4,0.8
			s0.2,0.6,0.2,1v0.1c0,0.4-0.1,0.7-0.2,1s-0.3,0.6-0.5,0.8c-0.2,0.2-0.5,0.4-0.8,0.5s-0.7,0.2-1.1,0.2s-0.7-0.1-1-0.2
			s-0.6-0.3-0.8-0.6c-0.2-0.2-0.4-0.5-0.5-0.9c-0.1-0.3-0.2-0.7-0.2-1.1v-0.1c0-0.1,0-0.1,0.1-0.2c0-0.1,0.1-0.1,0.2-0.2
			s0.1-0.2,0.2-0.3c0.2-0.3,0.4-0.6,0.6-0.9c0.2-0.2,0.5-0.4,0.8-0.6C448.6,444.1,448.9,444,449.2,444z M449,445
			c-0.3,0-0.5,0.1-0.7,0.2s-0.3,0.3-0.4,0.5s-0.1,0.5-0.1,0.7v0.1c0,0.2,0,0.4,0.1,0.6c0,0.2,0.1,0.3,0.2,0.5s0.2,0.2,0.4,0.3
			c0.1,0.1,0.3,0.1,0.5,0.1s0.4,0,0.5-0.1s0.3-0.2,0.4-0.3c0.1-0.1,0.2-0.3,0.2-0.5s0.1-0.4,0.1-0.6v-0.1c0-0.2,0-0.4-0.1-0.5
			c0-0.2-0.1-0.3-0.2-0.5c-0.1-0.1-0.2-0.2-0.4-0.3C449.4,445.1,449.2,445,449,445z M453.6,447.2l1.9-3.4h1.3v5.3h-1.3v-3.4
			l-1.9,3.4h-1.3v-5.3h1.3V447.2z M461.5,443.7v1h-2.6v-1H461.5z M462.5,443.7v5.3h-1.3v-5.3H462.5z M458.6,443.7h1.3l-0.1,2.6
			c0,0.4-0.1,0.7-0.1,1c-0.1,0.3-0.1,0.5-0.2,0.7s-0.2,0.4-0.4,0.5c-0.1,0.1-0.3,0.2-0.5,0.3c-0.2,0.1-0.4,0.1-0.6,0.1h-0.4v-1h0.2
			c0.1,0,0.2,0,0.3-0.1c0.1-0.1,0.2-0.1,0.2-0.2c0.1-0.1,0.1-0.2,0.2-0.4c0-0.2,0.1-0.3,0.1-0.5s0-0.5,0.1-0.7L458.6,443.7z
			 M465,447.2l1.9-3.4h1.3v5.3h-1.3v-3.4L465,449h-1.3v-5.3h1.3V447.2z M471.9,443.7v5.3h-1.3v-5.3H471.9z M473.6,443.7v1h-4.7v-1
			H473.6z M477.2,447.9v-2.4c0-0.2,0-0.3-0.1-0.5c-0.1-0.1-0.2-0.2-0.3-0.3c-0.1-0.1-0.3-0.1-0.5-0.1s-0.3,0-0.5,0.1
			c-0.1,0.1-0.2,0.1-0.3,0.2c-0.1,0.1-0.1,0.2-0.1,0.4h-1.3c0-0.2,0.1-0.4,0.2-0.6s0.3-0.4,0.4-0.5c0.2-0.2,0.4-0.3,0.7-0.4
			c0.3-0.1,0.6-0.1,0.9-0.1c0.4,0,0.8,0.1,1.1,0.2c0.3,0.1,0.6,0.3,0.7,0.6c0.2,0.3,0.3,0.6,0.3,1v2.3c0,0.3,0,0.5,0,0.7
			s0.1,0.3,0.2,0.5v0.1h-1.3c-0.1-0.1-0.1-0.3-0.1-0.5C477.2,448.3,477.2,448.1,477.2,447.9z M477.4,445.8v0.8h-0.8
			c-0.2,0-0.4,0-0.5,0.1c-0.2,0-0.3,0.1-0.4,0.2s-0.2,0.2-0.2,0.3c0,0.1-0.1,0.2-0.1,0.4c0,0.1,0,0.2,0.1,0.4
			c0.1,0.1,0.1,0.2,0.3,0.2c0.1,0.1,0.3,0.1,0.4,0.1c0.2,0,0.4,0,0.6-0.1s0.3-0.2,0.4-0.3c0.1-0.1,0.1-0.3,0.2-0.4l0.4,0.6
			c0,0.1-0.1,0.3-0.2,0.4s-0.2,0.3-0.4,0.4c-0.1,0.1-0.3,0.2-0.5,0.3c-0.2,0.1-0.4,0.1-0.7,0.1c-0.3,0-0.6-0.1-0.9-0.2
			s-0.5-0.3-0.6-0.6s-0.2-0.5-0.2-0.8s0.1-0.5,0.2-0.7s0.3-0.4,0.5-0.5s0.5-0.3,0.8-0.3c0.3-0.1,0.7-0.1,1-0.1h0.6L477.4,445.8
			L477.4,445.8z M479.7,449v-5.3h1.3v4.3h1.9v-4.3h1.3v5.3H479.7z M485,448l-0.1,2.6h-1.2V449h-0.6v-1H485z M487,447.2l1.9-3.4h1.3
			v5.3H489v-3.4l-2,3.3h-1.3v-5.3h1.3V447.2z M491.2,446.4v-0.1c0-0.4,0.1-0.7,0.2-1.1c0.1-0.3,0.3-0.6,0.5-0.9
			c0.2-0.2,0.5-0.4,0.8-0.6c0.3-0.1,0.7-0.2,1-0.2c0.4,0,0.7,0.1,1.1,0.2c0.3,0.1,0.6,0.3,0.8,0.6c0.2,0.2,0.4,0.5,0.5,0.9
			c0.1,0.3,0.2,0.7,0.2,1.1v0.1c0,0.4-0.1,0.7-0.2,1.1c-0.1,0.3-0.3,0.6-0.5,0.9c-0.2,0.2-0.5,0.4-0.8,0.6c-0.3,0.1-0.7,0.2-1,0.2
			c-0.4,0-0.7-0.1-1-0.2s-0.6-0.3-0.8-0.6c-0.2-0.2-0.4-0.5-0.5-0.9C491.3,447.2,491.2,446.8,491.2,446.4z M492.5,446.3v0.1
			c0,0.2,0,0.4,0.1,0.7c0,0.2,0.1,0.4,0.2,0.5c0.1,0.2,0.2,0.3,0.4,0.4c0.2,0.1,0.3,0.1,0.5,0.1s0.4,0,0.5-0.1s0.3-0.2,0.4-0.4
			c0.1-0.2,0.2-0.3,0.2-0.5s0.1-0.4,0.1-0.7v-0.1c0-0.2,0-0.4-0.1-0.6c0-0.2-0.1-0.4-0.2-0.5c-0.1-0.2-0.2-0.3-0.4-0.4
			c-0.1-0.1-0.3-0.1-0.5-0.1s-0.4,0-0.5,0.1c-0.2,0.1-0.3,0.2-0.4,0.4c-0.1,0.2-0.2,0.3-0.2,0.5
			C492.5,445.9,492.5,446.1,492.5,446.3z M500.7,445.9v1H498v-1H500.7z M498.4,443.7v5.3h-1.3v-5.3H498.4z M501.6,443.7v5.3h-1.3
			v-5.3H501.6z M506.4,445.9v1h-2.7v-1H506.4z M504.1,443.7v5.3h-1.3v-5.3H504.1z M507.3,443.7v5.3H506v-5.3H507.3z M509.4,445.3
			h1.5c0.5,0,0.9,0.1,1.2,0.2c0.3,0.2,0.6,0.4,0.8,0.6c0.2,0.3,0.3,0.6,0.3,1c0,0.3,0,0.5-0.2,0.7c-0.1,0.2-0.2,0.4-0.4,0.6
			s-0.4,0.3-0.7,0.4s-0.6,0.1-0.9,0.1h-2.4v-5.3h1.3v4.3h1.1c0.2,0,0.4,0,0.5-0.1s0.2-0.2,0.3-0.3c0.1-0.1,0.1-0.3,0.1-0.4
			s0-0.3-0.1-0.4s-0.2-0.2-0.3-0.3c-0.1-0.1-0.3-0.1-0.5-0.1h-1.5L509.4,445.3L509.4,445.3z M515.3,443.7v5.3H514v-5.3H515.3z
			 M517.9,447.2l1.9-3.4h1.3v5.3h-1.3v-3.4l-1.9,3.4h-1.3v-5.3h1.3V447.2z M519.6,441.6h0.9c0,0.3-0.1,0.5-0.2,0.7
			c-0.1,0.2-0.3,0.4-0.6,0.5c-0.2,0.1-0.5,0.2-0.9,0.2c-0.5,0-0.9-0.1-1.2-0.4s-0.4-0.6-0.4-1h0.9c0,0.2,0.1,0.3,0.2,0.5
			c0.1,0.1,0.3,0.2,0.5,0.2c0.3,0,0.4-0.1,0.5-0.2C519.6,442,519.6,441.8,519.6,441.6z M429.6,461v-5.3h1.3v4.3h1.9v-4.3h1.3v5.3
			H429.6z M434.9,460l-0.1,2.6h-1.2V461H433v-1H434.9z M438,461.1c-0.4,0-0.8-0.1-1.1-0.2c-0.3-0.1-0.6-0.3-0.8-0.5
			c-0.2-0.2-0.4-0.5-0.5-0.8s-0.2-0.6-0.2-1v-0.2c0-0.4,0.1-0.8,0.2-1.1c0.1-0.3,0.3-0.6,0.5-0.9c0.2-0.2,0.5-0.4,0.8-0.6
			c0.3-0.1,0.6-0.2,1-0.2s0.7,0.1,1,0.2s0.5,0.3,0.7,0.5s0.3,0.5,0.4,0.8s0.1,0.7,0.1,1v0.5H436v-0.9h2.9v-0.1c0-0.2,0-0.4-0.1-0.6
			s-0.2-0.3-0.3-0.4c-0.1-0.1-0.3-0.2-0.6-0.2c-0.2,0-0.4,0-0.5,0.1s-0.3,0.2-0.4,0.4c-0.1,0.1-0.2,0.3-0.2,0.5s-0.1,0.4-0.1,0.7
			v0.2c0,0.2,0,0.4,0.1,0.6s0.2,0.4,0.3,0.5c0.1,0.1,0.3,0.2,0.4,0.3c0.2,0.1,0.4,0.1,0.6,0.1c0.3,0,0.5-0.1,0.7-0.2
			s0.4-0.3,0.6-0.5l0.7,0.7c-0.1,0.2-0.3,0.3-0.5,0.5c-0.2,0.1-0.4,0.3-0.7,0.4C438.7,461.1,438.4,461.1,438,461.1z M444.6,457.9v1
			h-2.7v-1H444.6z M442.3,455.7v5.3H441v-5.3H442.3z M445.5,455.7v5.3h-1.3v-5.3H445.5z M449.3,455.7v5.3H448v-5.3H449.3z
			 M451,455.7v1h-4.7v-1H451z M453,456.7v6.3h-1.3v-7.3h1.2L453,456.7z M456.4,458.3v0.1c0,0.4,0,0.7-0.1,1.1
			c-0.1,0.3-0.2,0.6-0.4,0.9c-0.2,0.2-0.4,0.4-0.6,0.6c-0.3,0.1-0.5,0.2-0.9,0.2c-0.3,0-0.6-0.1-0.9-0.2c-0.2-0.1-0.4-0.3-0.6-0.5
			s-0.3-0.5-0.4-0.8s-0.2-0.6-0.2-1v-0.3c0-0.4,0.1-0.7,0.2-1.1c0.1-0.3,0.2-0.6,0.4-0.8c0.2-0.2,0.4-0.4,0.6-0.5s0.5-0.2,0.8-0.2
			s0.6,0.1,0.9,0.2s0.5,0.3,0.6,0.5c0.2,0.2,0.3,0.5,0.4,0.9C456.4,457.5,456.4,457.9,456.4,458.3z M455.1,458.4v-0.1
			c0-0.2,0-0.5-0.1-0.6c0-0.2-0.1-0.4-0.2-0.5c-0.1-0.2-0.2-0.3-0.3-0.4c-0.1-0.1-0.3-0.1-0.5-0.1s-0.4,0-0.5,0.1s-0.3,0.2-0.4,0.3
			c-0.1,0.1-0.2,0.3-0.2,0.4c0,0.2-0.1,0.3-0.1,0.5v0.8c0,0.2,0.1,0.5,0.2,0.6c0.1,0.2,0.2,0.3,0.4,0.5c0.2,0.1,0.4,0.2,0.6,0.2
			s0.4,0,0.5-0.1s0.3-0.2,0.3-0.4c0.1-0.2,0.2-0.3,0.2-0.5S455.1,458.6,455.1,458.4z"/>
	</g>
</g>
</svg>
